<svg width="258" height="272" viewBox="0 0 258 272" fill="none" xmlns="http://www.w3.org/2000/svg">
<g clip-path="url(#clip0_2408_5712)">
<rect width="300" height="300" transform="translate(-35 -1)" fill="white"/>
<g clip-path="url(#clip1_2408_5712)">
<path d="M273.811 0.370697H-138V903H273.811V0.370697Z" fill="#B8B2EA"/>
<path d="M-138 13.4672H279" stroke="#E3DCF9" stroke-miterlimit="10"/>
<path d="M-138 28.6654H279" stroke="#E3DCF9" stroke-miterlimit="10"/>
<path d="M-138 43.9267H279" stroke="#E3DCF9" stroke-miterlimit="10"/>
<path d="M-138 59.125H279" stroke="#E3DCF9" stroke-miterlimit="10"/>
<path d="M-138 74.3863H279" stroke="#E3DCF9" stroke-miterlimit="10"/>
<path d="M-138 89.5846H279" stroke="#E3DCF9" stroke-miterlimit="10"/>
<path d="M-138 104.85H279" stroke="#E3DCF9" stroke-miterlimit="10"/>
<path d="M-138 120.048H279" stroke="#E3DCF9" stroke-miterlimit="10"/>
<path d="M-138 135.309H279" stroke="#E3DCF9" stroke-miterlimit="10"/>
<path d="M-138 150.507H279" stroke="#E3DCF9" stroke-miterlimit="10"/>
<path d="M-138 165.769H279" stroke="#E3DCF9" stroke-miterlimit="10"/>
<path d="M-138 180.967H279" stroke="#E3DCF9" stroke-miterlimit="10"/>
<path d="M-138 196.232H279" stroke="#E3DCF9" stroke-miterlimit="10"/>
<path d="M-138 211.43H279" stroke="#E3DCF9" stroke-miterlimit="10"/>
<path d="M-138 226.692H279" stroke="#E3DCF9" stroke-miterlimit="10"/>
<path d="M-138 241.89H279" stroke="#E3DCF9" stroke-miterlimit="10"/>
<path d="M-138 257.155H279" stroke="#E3DCF9" stroke-miterlimit="10"/>
<path d="M-138 272.353H279" stroke="#E3DCF9" stroke-miterlimit="10"/>
<path d="M0.0732422 0V902.629" stroke="#E3DCF9" stroke-miterlimit="10"/>
<path d="M15.2705 0V902.629" stroke="#E3DCF9" stroke-miterlimit="10"/>
<path d="M30.4678 0V902.629" stroke="#E3DCF9" stroke-miterlimit="10"/>
<path d="M45.6655 0V902.629" stroke="#E3DCF9" stroke-miterlimit="10"/>
<path d="M60.8628 0V902.629" stroke="#E3DCF9" stroke-miterlimit="10"/>
<path d="M76.0601 0V902.629" stroke="#E3DCF9" stroke-miterlimit="10"/>
<path d="M91.2573 0V902.629" stroke="#E3DCF9" stroke-miterlimit="10"/>
<path d="M106.455 0V902.629" stroke="#E3DCF9" stroke-miterlimit="10"/>
<path d="M121.652 0V902.629" stroke="#E3DCF9" stroke-miterlimit="10"/>
<path d="M136.849 0V902.629" stroke="#E3DCF9" stroke-miterlimit="10"/>
<path d="M152.047 0V902.629" stroke="#E3DCF9" stroke-miterlimit="10"/>
<path d="M167.244 0V902.629" stroke="#E3DCF9" stroke-miterlimit="10"/>
<path d="M182.441 0V902.629" stroke="#E3DCF9" stroke-miterlimit="10"/>
<path d="M197.639 0V902.629" stroke="#E3DCF9" stroke-miterlimit="10"/>
<path d="M212.836 0V902.629" stroke="#E3DCF9" stroke-miterlimit="10"/>
<path d="M228.033 0V902.629" stroke="#E3DCF9" stroke-miterlimit="10"/>
<path d="M243.23 0V902.629" stroke="#E3DCF9" stroke-miterlimit="10"/>
<path d="M258.428 0V902.629" stroke="#E3DCF9" stroke-miterlimit="10"/>
</g>
</g>
<defs>
<clipPath id="clip0_2408_5712">
<rect width="300" height="300" fill="white" transform="translate(-35 -1)"/>
</clipPath>
<clipPath id="clip1_2408_5712">
<rect width="417" height="903" fill="white" transform="translate(-138)"/>
</clipPath>
</defs>
</svg>
