<svg width="96" height="102" xmlns="http://www.w3.org/2000/svg" shape-rendering="crispEdges"><path fill="#425284" d="M46 3h1v1h-1zm1 0h1v1h-1zm-2 1h1v1h-1z"/><path fill="#FFF" d="M46 4h1v1h-1zm1 0h1v1h-1z"/><path fill="#425284" d="M48 4h1v1h-1zm-3 1h1v1h-1z"/><path fill="#FFF" d="M46 5h1v1h-1zm1 0h1v1h-1zm1 0h1v1h-1z"/><path fill="#425284" d="M49 5h1v1h-1zm-4 1h1v1h-1z"/><path fill="#FFF" d="M46 6h1v1h-1zm1 0h1v1h-1zm1 0h1v1h-1z"/><path fill="#425284" d="M49 6h1v1h-1zm-4 1h1v1h-1z"/><path fill="#FFF" d="M46 7h1v1h-1zm1 0h1v1h-1zm1 0h1v1h-1zm1 0h1v1h-1z"/><path fill="#425284" d="M50 7h1v1h-1zm-5 1h1v1h-1z"/><path fill="#FFF" d="M46 8h1v1h-1zm1 0h1v1h-1zm1 0h1v1h-1zm1 0h1v1h-1z"/><path fill="#425284" d="M50 8h1v1h-1zm-4 1h1v1h-1z"/><path fill="#FFF" d="M47 9h1v1h-1zm1 0h1v1h-1zm1 0h1v1h-1zm1 0h1v1h-1z"/><path fill="#425284" d="M51 9h1v1h-1zm-5 1h1v1h-1z"/><path fill="#FFF" d="M47 10h1v1h-1zm1 0h1v1h-1zm1 0h1v1h-1zm1 0h1v1h-1z"/><path fill="#425284" d="M51 10h1v1h-1zm-4 1h1v1h-1z"/><path fill="#FFF" d="M48 11h1v1h-1zm1 0h1v1h-1zm1 0h1v1h-1zm1 0h1v1h-1z"/><path fill="#425284" d="M52 11h1v1h-1zm-5 1h1v1h-1z"/><path fill="#FFF" d="M48 12h1v1h-1zm1 0h1v1h-1zm1 0h1v1h-1zm1 0h1v1h-1z"/><path fill="#425284" d="M52 12h1v1h-1zm-4 1h1v1h-1z"/><path fill="#FFF" d="M49 13h1v1h-1zm1 0h1v1h-1zm1 0h1v1h-1zm1 0h1v1h-1z"/><path fill="#425284" d="M53 13h1v1h-1zm-5 1h1v1h-1z"/><path fill="#FFF" d="M49 14h1v1h-1zm1 0h1v1h-1zm1 0h1v1h-1zm1 0h1v1h-1z"/><path fill="#425284" d="M53 14h1v1h-1zm-6 1h1v1h-1z"/><path fill="#FFF" d="M48 15h1v1h-1zm1 0h1v1h-1zm1 0h1v1h-1zm1 0h1v1h-1zm1 0h1v1h-1z"/><path fill="#425284" d="M53 15h1v1h-1zm-6 1h1v1h-1z"/><path fill="#FFF" d="M48 16h1v1h-1zm1 0h1v1h-1zm1 0h1v1h-1zm1 0h1v1h-1zm1 0h1v1h-1z"/><path fill="#425284" d="M53 16h1v1h-1zm-6 1h1v1h-1z"/><path fill="#FFF" d="M48 17h1v1h-1zm1 0h1v1h-1zm1 0h1v1h-1zm1 0h1v1h-1zm1 0h1v1h-1z"/><path fill="#425284" d="M53 17h1v1h-1zm-6 1h1v1h-1z"/><path fill="#FFF" d="M48 18h1v1h-1zm1 0h1v1h-1zm1 0h1v1h-1zm1 0h1v1h-1zm1 0h1v1h-1z"/><path fill="#425284" d="M53 18h1v1h-1zm-7 1h1v1h-1z"/><path fill="#FFF" d="M47 19h1v1h-1zm1 0h1v1h-1zm1 0h1v1h-1zm1 0h1v1h-1zm1 0h1v1h-1zm1 0h1v1h-1z"/><path fill="#425284" d="M53 19h1v1h-1zm-7 1h1v1h-1z"/><path fill="#FFF" d="M47 20h1v1h-1zm1 0h1v1h-1zm1 0h1v1h-1zm1 0h1v1h-1zm1 0h1v1h-1z"/><path fill="#425284" d="M52 20h1v1h-1zm-6 1h1v1h-1z"/><path fill="#FFF" d="M47 21h1v1h-1zm1 0h1v1h-1zm1 0h1v1h-1zm1 0h1v1h-1zm1 0h1v1h-1z"/><path fill="#425284" d="M52 21h1v1h-1zm-7 1h1v1h-1z"/><path fill="#FFF" d="M46 22h1v1h-1zm1 0h1v1h-1zm1 0h1v1h-1zm1 0h1v1h-1zm1 0h1v1h-1zm1 0h1v1h-1z"/><path fill="#425284" d="M52 22h1v1h-1zm-8 1h1v1h-1z"/><path fill="#FFF" d="M45 23h1v1h-1zm1 0h1v1h-1zm1 0h1v1h-1zm1 0h1v1h-1zm1 0h1v1h-1zm1 0h1v1h-1z"/><path fill="#425284" d="M51 23h1v1h-1zm-7 1h1v1h-1z"/><path fill="#FFF" d="M45 24h1v1h-1zm1 0h1v1h-1zm1 0h1v1h-1zm1 0h1v1h-1zm1 0h1v1h-1zm1 0h1v1h-1z"/><path fill="#425284" d="M51 24h1v1h-1zm-8 1h1v1h-1z"/><path fill="#FFF" d="M44 25h1v1h-1zm1 0h1v1h-1zm1 0h1v1h-1zm1 0h1v1h-1zm1 0h1v1h-1zm1 0h1v1h-1z"/><path fill="#425284" d="M50 25h1v1h-1zm-8 1h1v1h-1z"/><path fill="#FFF" d="M43 26h1v1h-1zm1 0h1v1h-1zm1 0h1v1h-1zm1 0h1v1h-1zm1 0h1v1h-1zm1 0h1v1h-1z"/><path fill="#425284" d="M49 26h1v1h-1zm-7 1h1v1h-1z"/><path fill="#FFF" d="M43 27h1v1h-1zm1 0h1v1h-1zm1 0h1v1h-1zm1 0h1v1h-1zm1 0h1v1h-1zm1 0h1v1h-1z"/><path fill="#425284" d="M49 27h1v1h-1zm-7 1h1v1h-1z"/><path fill="#FFF" d="M43 28h1v1h-1zm1 0h1v1h-1zm1 0h1v1h-1zm1 0h1v1h-1zm1 0h1v1h-1zm1 0h1v1h-1z"/><path fill="#425284" d="M49 28h1v1h-1zm-8 1h1v1h-1z"/><path fill="#FFF" d="M42 29h1v1h-1zm1 0h1v1h-1zm1 0h1v1h-1zm1 0h1v1h-1zm1 0h1v1h-1zm1 0h1v1h-1z"/><path fill="#425284" d="M48 29h1v1h-1zm-7 1h1v1h-1z"/><path fill="#FFF" d="M42 30h1v1h-1zm1 0h1v1h-1zm1 0h1v1h-1zm1 0h1v1h-1zm1 0h1v1h-1zm1 0h1v1h-1z"/><path fill="#425284" d="M48 30h1v1h-1zm-7 1h1v1h-1z"/><path fill="#FFF" d="M42 31h1v1h-1zm1 0h1v1h-1zm1 0h1v1h-1zm1 0h1v1h-1zm1 0h1v1h-1zm1 0h1v1h-1z"/><path fill="#425284" d="M48 31h1v1h-1zm-24 1h1v1h-1zm1 0h1v1h-1zm16 0h1v1h-1z"/><path fill="#FFF" d="M42 32h1v1h-1zm1 0h1v1h-1zm1 0h1v1h-1zm1 0h1v1h-1zm1 0h1v1h-1zm1 0h1v1h-1z"/><path fill="#425284" d="M48 32h1v1h-1zm22 0h1v1h-1zm1 0h1v1h-1zm-48 1h1v1h-1z"/><path fill="#FFF" d="M24 33h1v1h-1zm1 0h1v1h-1z"/><path fill="#425284" d="M26 33h1v1h-1zm1 0h1v1h-1zm15 0h1v1h-1z"/><path fill="#FFF" d="M43 33h1v1h-1zm1 0h1v1h-1zm1 0h1v1h-1zm1 0h1v1h-1zm1 0h1v1h-1z"/><path fill="#425284" d="M48 33h1v1h-1zm20 0h1v1h-1zm1 0h1v1h-1z"/><path fill="#FFF" d="M70 33h1v1h-1zm1 0h1v1h-1z"/><path fill="#425284" d="M72 33h1v1h-1zm-50 1h1v1h-1z"/><path fill="#FFF" d="M23 34h1v1h-1zm1 0h1v1h-1zm1 0h1v1h-1zm1 0h1v1h-1z"/><path fill="#425284" d="M27 34h1v1h-1zm1 0h1v1h-1zm1 0h1v1h-1zm13 0h1v1h-1z"/><path fill="#FFF" d="M43 34h1v1h-1zm1 0h1v1h-1zm1 0h1v1h-1zm1 0h1v1h-1zm1 0h1v1h-1z"/><path fill="#425284" d="M48 34h1v1h-1zm18 0h1v1h-1zm1 0h1v1h-1zm1 0h1v1h-1z"/><path fill="#FFF" d="M69 34h1v1h-1zm1 0h1v1h-1zm1 0h1v1h-1zm1 0h1v1h-1z"/><path fill="#425284" d="M73 34h1v1h-1zm-51 1h1v1h-1z"/><path fill="#FFF" d="M23 35h1v1h-1zm1 0h1v1h-1zm1 0h1v1h-1zm1 0h1v1h-1zm1 0h1v1h-1zm1 0h1v1h-1z"/><path fill="#425284" d="M29 35h1v1h-1zm1 0h1v1h-1zm1 0h1v1h-1zm11 0h1v1h-1z"/><path fill="#FFF" d="M43 35h1v1h-1zm1 0h1v1h-1zm1 0h1v1h-1zm1 0h1v1h-1zm1 0h1v1h-1z"/><path fill="#425284" d="M48 35h1v1h-1zm16 0h1v1h-1zm1 0h1v1h-1zm1 0h1v1h-1z"/><path fill="#FFF" d="M67 35h1v1h-1zm1 0h1v1h-1zm1 0h1v1h-1zm1 0h1v1h-1zm1 0h1v1h-1zm1 0h1v1h-1z"/><path fill="#425284" d="M73 35h1v1h-1zm-52 1h1v1h-1z"/><path fill="#FFF" d="M22 36h1v1h-1zm1 0h1v1h-1zm1 0h1v1h-1zm1 0h1v1h-1zm1 0h1v1h-1zm1 0h1v1h-1zm1 0h1v1h-1zm1 0h1v1h-1zm1 0h1v1h-1z"/><path fill="#425284" d="M31 36h1v1h-1zm1 0h1v1h-1zm10 0h1v1h-1z"/><path fill="#FFF" d="M43 36h1v1h-1zm1 0h1v1h-1zm1 0h1v1h-1zm1 0h1v1h-1zm1 0h1v1h-1zm1 0h1v1h-1z"/><path fill="#425284" d="M49 36h1v1h-1zm14 0h1v1h-1zm1 0h1v1h-1z"/><path fill="#FFF" d="M65 36h1v1h-1zm1 0h1v1h-1zm1 0h1v1h-1zm1 0h1v1h-1zm1 0h1v1h-1zm1 0h1v1h-1zm1 0h1v1h-1zm1 0h1v1h-1zm1 0h1v1h-1z"/><path fill="#425284" d="M74 36h1v1h-1zm-53 1h1v1h-1z"/><path fill="#FFF" d="M22 37h1v1h-1zm1 0h1v1h-1zm1 0h1v1h-1zm1 0h1v1h-1zm1 0h1v1h-1zm1 0h1v1h-1zm1 0h1v1h-1zm1 0h1v1h-1zm1 0h1v1h-1zm1 0h1v1h-1zm1 0h1v1h-1z"/><path fill="#425284" d="M33 37h1v1h-1zm10 0h1v1h-1z"/><path fill="#FFF" d="M44 37h1v1h-1zm1 0h1v1h-1zm1 0h1v1h-1zm1 0h1v1h-1zm1 0h1v1h-1z"/><path fill="#425284" d="M49 37h1v1h-1zm13 0h1v1h-1z"/><path fill="#FFF" d="M63 37h1v1h-1zm1 0h1v1h-1zm1 0h1v1h-1zm1 0h1v1h-1zm1 0h1v1h-1zm1 0h1v1h-1zm1 0h1v1h-1zm1 0h1v1h-1zm1 0h1v1h-1zm1 0h1v1h-1zm1 0h1v1h-1z"/><path fill="#425284" d="M74 37h1v1h-1zm-54 1h1v1h-1z"/><path fill="#FFF" d="M21 38h1v1h-1zm1 0h1v1h-1zm1 0h1v1h-1zm1 0h1v1h-1zm1 0h1v1h-1zm1 0h1v1h-1zm1 0h1v1h-1zm1 0h1v1h-1zm1 0h1v1h-1zm1 0h1v1h-1zm1 0h1v1h-1zm1 0h1v1h-1zm1 0h1v1h-1z"/><path fill="#425284" d="M34 38h1v1h-1zm9 0h1v1h-1z"/><path fill="#FFF" d="M44 38h1v1h-1zm1 0h1v1h-1zm1 0h1v1h-1zm1 0h1v1h-1zm1 0h1v1h-1zm1 0h1v1h-1z"/><path fill="#425284" d="M50 38h1v1h-1zm11 0h1v1h-1z"/><path fill="#FFF" d="M62 38h1v1h-1zm1 0h1v1h-1zm1 0h1v1h-1zm1 0h1v1h-1zm1 0h1v1h-1zm1 0h1v1h-1zm1 0h1v1h-1zm1 0h1v1h-1zm1 0h1v1h-1zm1 0h1v1h-1zm1 0h1v1h-1zm1 0h1v1h-1zm1 0h1v1h-1z"/><path fill="#425284" d="M75 38h1v1h-1zm-55 1h1v1h-1z"/><path fill="#FFF" d="M21 39h1v1h-1zm1 0h1v1h-1zm1 0h1v1h-1zm1 0h1v1h-1zm1 0h1v1h-1zm1 0h1v1h-1zm1 0h1v1h-1zm1 0h1v1h-1zm1 0h1v1h-1zm1 0h1v1h-1zm1 0h1v1h-1zm1 0h1v1h-1zm1 0h1v1h-1zm1 0h1v1h-1z"/><path fill="#425284" d="M35 39h1v1h-1zm9 0h1v1h-1zm1 0h1v1h-1zm1 0h1v1h-1zm1 0h1v1h-1zm1 0h1v1h-1zm1 0h1v1h-1zm1 0h1v1h-1zm1 0h1v1h-1zm9 0h1v1h-1z"/><path fill="#FFF" d="M61 39h1v1h-1zm1 0h1v1h-1zm1 0h1v1h-1zm1 0h1v1h-1zm1 0h1v1h-1zm1 0h1v1h-1zm1 0h1v1h-1zm1 0h1v1h-1zm1 0h1v1h-1zm1 0h1v1h-1zm1 0h1v1h-1zm1 0h1v1h-1zm1 0h1v1h-1zm1 0h1v1h-1z"/><path fill="#425284" d="M75 39h1v1h-1zm-55 1h1v1h-1z"/><path fill="#FFF" d="M21 40h1v1h-1zm1 0h1v1h-1zm1 0h1v1h-1zm1 0h1v1h-1zm1 0h1v1h-1zm1 0h1v1h-1zm1 0h1v1h-1zm1 0h1v1h-1zm1 0h1v1h-1zm1 0h1v1h-1zm1 0h1v1h-1zm1 0h1v1h-1zm1 0h1v1h-1zm1 0h1v1h-1zm1 0h1v1h-1z"/><path fill="#425284" d="M36 40h1v1h-1zm3 0h1v1h-1zm1 0h1v1h-1zm1 0h1v1h-1zm1 0h1v1h-1zm1 0h1v1h-1z"/><path fill="#FFF" d="M44 40h1v1h-1zm1 0h1v1h-1zm1 0h1v1h-1zm1 0h1v1h-1zm1 0h1v1h-1zm1 0h1v1h-1zm1 0h1v1h-1zm1 0h1v1h-1z"/><path fill="#425284" d="M52 40h1v1h-1zm1 0h1v1h-1zm1 0h1v1h-1zm1 0h1v1h-1zm1 0h1v1h-1zm3 0h1v1h-1z"/><path fill="#FFF" d="M60 40h1v1h-1zm1 0h1v1h-1zm1 0h1v1h-1zm1 0h1v1h-1zm1 0h1v1h-1zm1 0h1v1h-1zm1 0h1v1h-1zm1 0h1v1h-1zm1 0h1v1h-1zm1 0h1v1h-1zm1 0h1v1h-1zm1 0h1v1h-1zm1 0h1v1h-1zm1 0h1v1h-1zm1 0h1v1h-1z"/><path fill="#425284" d="M75 40h1v1h-1zm-56 1h1v1h-1z"/><path fill="#FFF" d="M20 41h1v1h-1zm1 0h1v1h-1zm1 0h1v1h-1zm1 0h1v1h-1zm1 0h1v1h-1zm1 0h1v1h-1zm1 0h1v1h-1zm1 0h1v1h-1zm1 0h1v1h-1zm1 0h1v1h-1zm1 0h1v1h-1zm1 0h1v1h-1zm1 0h1v1h-1zm1 0h1v1h-1zm1 0h1v1h-1zm1 0h1v1h-1zm1 0h1v1h-1z"/><path fill="#425284" d="M37 41h1v1h-1zm1 0h1v1h-1z"/><path fill="#FFF" d="M39 41h1v1h-1zm1 0h1v1h-1zm1 0h1v1h-1zm1 0h1v1h-1zm1 0h1v1h-1zm1 0h1v1h-1zm1 0h1v1h-1zm1 0h1v1h-1zm1 0h1v1h-1zm1 0h1v1h-1zm1 0h1v1h-1zm1 0h1v1h-1zm1 0h1v1h-1zm1 0h1v1h-1zm1 0h1v1h-1zm1 0h1v1h-1zm1 0h1v1h-1zm1 0h1v1h-1z"/><path fill="#425284" d="M57 41h1v1h-1zm1 0h1v1h-1z"/><path fill="#FFF" d="M59 41h1v1h-1zm1 0h1v1h-1zm1 0h1v1h-1zm1 0h1v1h-1zm1 0h1v1h-1zm1 0h1v1h-1zm1 0h1v1h-1zm1 0h1v1h-1zm1 0h1v1h-1zm1 0h1v1h-1zm1 0h1v1h-1zm1 0h1v1h-1zm1 0h1v1h-1zm1 0h1v1h-1zm1 0h1v1h-1zm1 0h1v1h-1zm1 0h1v1h-1z"/><path fill="#425284" d="M76 41h1v1h-1zm-57 1h1v1h-1z"/><path fill="#FFF" d="M20 42h1v1h-1zm1 0h1v1h-1zm1 0h1v1h-1zm1 0h1v1h-1zm1 0h1v1h-1zm1 0h1v1h-1zm1 0h1v1h-1zm1 0h1v1h-1z"/><path fill="#B4C5D5" d="M28 42h1v1h-1zm1 0h1v1h-1z"/><path fill="#FFF" d="M30 42h1v1h-1zm1 0h1v1h-1zm1 0h1v1h-1zm1 0h1v1h-1zm1 0h1v1h-1zm1 0h1v1h-1zm1 0h1v1h-1z"/><path fill="#425284" d="M37 42h1v1h-1zm1 0h1v1h-1z"/><path fill="#FFF" d="M39 42h1v1h-1zm1 0h1v1h-1zm1 0h1v1h-1zm1 0h1v1h-1zm1 0h1v1h-1zm1 0h1v1h-1zm1 0h1v1h-1zm1 0h1v1h-1zm1 0h1v1h-1zm1 0h1v1h-1zm1 0h1v1h-1zm1 0h1v1h-1zm1 0h1v1h-1zm1 0h1v1h-1zm1 0h1v1h-1zm1 0h1v1h-1zm1 0h1v1h-1zm1 0h1v1h-1z"/><path fill="#425284" d="M57 42h1v1h-1zm1 0h1v1h-1z"/><path fill="#FFF" d="M59 42h1v1h-1zm1 0h1v1h-1zm1 0h1v1h-1zm1 0h1v1h-1zm1 0h1v1h-1z"/><path fill="#B4C5D5" d="M64 42h1v1h-1zm1 0h1v1h-1zm1 0h1v1h-1z"/><path fill="#FFF" d="M67 42h1v1h-1zm1 0h1v1h-1zm1 0h1v1h-1zm1 0h1v1h-1zm1 0h1v1h-1zm1 0h1v1h-1zm1 0h1v1h-1zm1 0h1v1h-1zm1 0h1v1h-1z"/><path fill="#425284" d="M76 42h1v1h-1zm-58 1h1v1h-1z"/><path fill="#FFF" d="M19 43h1v1h-1zm1 0h1v1h-1zm1 0h1v1h-1zm1 0h1v1h-1zm1 0h1v1h-1zm1 0h1v1h-1zm1 0h1v1h-1z"/><path fill="#B4C5D5" d="M26 43h1v1h-1zm1 0h1v1h-1z"/><path fill="#FFF" d="M28 43h1v1h-1zm1 0h1v1h-1z"/><path fill="#B4C5D5" d="M30 43h1v1h-1zm1 0h1v1h-1z"/><path fill="#FFF" d="M32 43h1v1h-1zm1 0h1v1h-1zm1 0h1v1h-1zm1 0h1v1h-1zm1 0h1v1h-1zm1 0h1v1h-1z"/><path fill="#425284" d="M38 43h1v1h-1z"/><path fill="#FFF" d="M39 43h1v1h-1zm1 0h1v1h-1zm1 0h1v1h-1zm1 0h1v1h-1zm1 0h1v1h-1zm1 0h1v1h-1zm1 0h1v1h-1zm1 0h1v1h-1zm1 0h1v1h-1zm1 0h1v1h-1zm1 0h1v1h-1zm1 0h1v1h-1zm1 0h1v1h-1zm1 0h1v1h-1zm1 0h1v1h-1zm1 0h1v1h-1zm1 0h1v1h-1zm1 0h1v1h-1z"/><path fill="#425284" d="M57 43h1v1h-1z"/><path fill="#FFF" d="M58 43h1v1h-1zm1 0h1v1h-1zm1 0h1v1h-1z"/><path fill="#B4C5D5" d="M61 43h1v1h-1zm1 0h1v1h-1zm1 0h1v1h-1z"/><path fill="#FFF" d="M64 43h1v1h-1zm1 0h1v1h-1zm1 0h1v1h-1z"/><path fill="#B4C5D5" d="M67 43h1v1h-1zm1 0h1v1h-1z"/><path fill="#FFF" d="M69 43h1v1h-1zm1 0h1v1h-1zm1 0h1v1h-1zm1 0h1v1h-1zm1 0h1v1h-1zm1 0h1v1h-1zm1 0h1v1h-1zm1 0h1v1h-1z"/><path fill="#425284" d="M77 43h1v1h-1zm-59 1h1v1h-1z"/><path fill="#FFF" d="M19 44h1v1h-1zm1 0h1v1h-1zm1 0h1v1h-1zm1 0h1v1h-1zm1 0h1v1h-1zm1 0h1v1h-1z"/><path fill="#B4C5D5" d="M25 44h1v1h-1z"/><path fill="#FFF" d="M26 44h1v1h-1zm1 0h1v1h-1zm1 0h1v1h-1zm1 0h1v1h-1zm1 0h1v1h-1zm1 0h1v1h-1z"/><path fill="#B4C5D5" d="M32 44h1v1h-1zm1 0h1v1h-1zm1 0h1v1h-1z"/><path fill="#FFF" d="M35 44h1v1h-1zm1 0h1v1h-1zm1 0h1v1h-1zm1 0h1v1h-1z"/><path fill="#425284" d="M39 44h1v1h-1z"/><path fill="#FFF" d="M40 44h1v1h-1zm1 0h1v1h-1zm1 0h1v1h-1zm1 0h1v1h-1zm1 0h1v1h-1z"/><path fill="#425284" d="M45 44h1v1h-1zm1 0h1v1h-1zm1 0h1v1h-1zm1 0h1v1h-1zm1 0h1v1h-1zm1 0h1v1h-1z"/><path fill="#FFF" d="M51 44h1v1h-1zm1 0h1v1h-1zm1 0h1v1h-1zm1 0h1v1h-1zm1 0h1v1h-1z"/><path fill="#425284" d="M56 44h1v1h-1z"/><path fill="#FFF" d="M57 44h1v1h-1zm1 0h1v1h-1zm1 0h1v1h-1z"/><path fill="#B4C5D5" d="M60 44h1v1h-1z"/><path fill="#FFF" d="M61 44h1v1h-1zm1 0h1v1h-1zm1 0h1v1h-1zm1 0h1v1h-1zm1 0h1v1h-1zm1 0h1v1h-1zm1 0h1v1h-1zm1 0h1v1h-1z"/><path fill="#B4C5D5" d="M69 44h1v1h-1zm1 0h1v1h-1z"/><path fill="#FFF" d="M71 44h1v1h-1zm1 0h1v1h-1zm1 0h1v1h-1zm1 0h1v1h-1zm1 0h1v1h-1zm1 0h1v1h-1z"/><path fill="#425284" d="M77 44h1v1h-1zm-59 1h1v1h-1z"/><path fill="#FFF" d="M19 45h1v1h-1zm1 0h1v1h-1zm1 0h1v1h-1zm1 0h1v1h-1zm1 0h1v1h-1z"/><path fill="#B4C5D5" d="M24 45h1v1h-1z"/><path fill="#FFF" d="M25 45h1v1h-1zm1 0h1v1h-1zm1 0h1v1h-1zm1 0h1v1h-1z"/><path fill="#B4C5D5" d="M29 45h1v1h-1zm1 0h1v1h-1zm1 0h1v1h-1z"/><path fill="#FFF" d="M32 45h1v1h-1zm1 0h1v1h-1zm1 0h1v1h-1z"/><path fill="#B4C5D5" d="M35 45h1v1h-1z"/><path fill="#FFF" d="M36 45h1v1h-1zm1 0h1v1h-1zm1 0h1v1h-1z"/><path fill="#425284" d="M39 45h1v1h-1zm1 0h1v1h-1z"/><path fill="#FFF" d="M41 45h1v1h-1z"/><path fill="#425284" d="M42 45h1v1h-1zm1 0h1v1h-1zm1 0h1v1h-1zm1 0h1v1h-1z"/><path fill="#FFF" d="M46 45h1v1h-1zm1 0h1v1h-1zm1 0h1v1h-1zm1 0h1v1h-1z"/><path fill="#425284" d="M50 45h1v1h-1zm1 0h1v1h-1zm1 0h1v1h-1zm1 0h1v1h-1z"/><path fill="#FFF" d="M54 45h1v1h-1z"/><path fill="#425284" d="M55 45h1v1h-1zm1 0h1v1h-1z"/><path fill="#FFF" d="M57 45h1v1h-1zm1 0h1v1h-1zm1 0h1v1h-1zm1 0h1v1h-1zm1 0h1v1h-1zm1 0h1v1h-1zm1 0h1v1h-1zm1 0h1v1h-1zm1 0h1v1h-1z"/><path fill="#B4C5D5" d="M66 45h1v1h-1zm1 0h1v1h-1zm1 0h1v1h-1z"/><path fill="#FFF" d="M69 45h1v1h-1zm1 0h1v1h-1zm1 0h1v1h-1zm1 0h1v1h-1zm1 0h1v1h-1zm1 0h1v1h-1zm1 0h1v1h-1zm1 0h1v1h-1z"/><path fill="#425284" d="M77 45h1v1h-1zm-59 1h1v1h-1z"/><path fill="#FFF" d="M19 46h1v1h-1zm1 0h1v1h-1zm1 0h1v1h-1zm1 0h1v1h-1zm1 0h1v1h-1zm1 0h1v1h-1zm1 0h1v1h-1zm1 0h1v1h-1zm1 0h1v1h-1z"/><path fill="#B4C5D5" d="M28 46h1v1h-1z"/><path fill="#FFF" d="M29 46h1v1h-1zm1 0h1v1h-1zm1 0h1v1h-1zm1 0h1v1h-1zm1 0h1v1h-1zm1 0h1v1h-1zm1 0h1v1h-1zm1 0h1v1h-1zm1 0h1v1h-1zm1 0h1v1h-1zm1 0h1v1h-1z"/><path fill="#425284" d="M40 46h1v1h-1zm1 0h1v1h-1zm1 0h1v1h-1z"/><path fill="#FFF" d="M43 46h1v1h-1zm1 0h1v1h-1zm1 0h1v1h-1zm1 0h1v1h-1zm1 0h1v1h-1zm1 0h1v1h-1zm1 0h1v1h-1zm1 0h1v1h-1zm1 0h1v1h-1zm1 0h1v1h-1z"/><path fill="#425284" d="M53 46h1v1h-1zm1 0h1v1h-1zm1 0h1v1h-1z"/><path fill="#FFF" d="M56 46h1v1h-1zm1 0h1v1h-1zm1 0h1v1h-1zm1 0h1v1h-1zm1 0h1v1h-1zm1 0h1v1h-1z"/><path fill="#B4C5D5" d="M62 46h1v1h-1zm1 0h1v1h-1z"/><path fill="#FFF" d="M64 46h1v1h-1z"/><path fill="#B4C5D5" d="M65 46h1v1h-1z"/><path fill="#FFF" d="M66 46h1v1h-1zm1 0h1v1h-1zm1 0h1v1h-1zm1 0h1v1h-1zm1 0h1v1h-1zm1 0h1v1h-1zm1 0h1v1h-1zm1 0h1v1h-1zm1 0h1v1h-1zm1 0h1v1h-1zm1 0h1v1h-1z"/><path fill="#425284" d="M77 46h1v1h-1zm-59 1h1v1h-1z"/><path fill="#FFF" d="M19 47h1v1h-1zm1 0h1v1h-1zm1 0h1v1h-1zm1 0h1v1h-1zm1 0h1v1h-1zm1 0h1v1h-1zm1 0h1v1h-1zm1 0h1v1h-1z"/><path fill="#B4C5D5" d="M27 47h1v1h-1z"/><path fill="#FFF" d="M28 47h1v1h-1z"/><path fill="#B4C5D5" d="M29 47h1v1h-1z"/><path fill="#FFF" d="M30 47h1v1h-1zm1 0h1v1h-1zm1 0h1v1h-1zm1 0h1v1h-1zm1 0h1v1h-1zm1 0h1v1h-1zm1 0h1v1h-1zm1 0h1v1h-1zm1 0h1v1h-1zm1 0h1v1h-1z"/><path fill="#425284" d="M40 47h1v1h-1z"/><path fill="#B4C5D5" d="M41 47h1v1h-1zm1 0h1v1h-1z"/><path fill="#FFF" d="M43 47h1v1h-1zm1 0h1v1h-1zm1 0h1v1h-1zm1 0h1v1h-1zm1 0h1v1h-1zm1 0h1v1h-1zm1 0h1v1h-1zm1 0h1v1h-1zm1 0h1v1h-1zm1 0h1v1h-1z"/><path fill="#B4C5D5" d="M53 47h1v1h-1zm1 0h1v1h-1z"/><path fill="#425284" d="M55 47h1v1h-1z"/><path fill="#FFF" d="M56 47h1v1h-1zm1 0h1v1h-1zm1 0h1v1h-1zm1 0h1v1h-1zm1 0h1v1h-1zm1 0h1v1h-1zm1 0h1v1h-1zm1 0h1v1h-1z"/><path fill="#B4C5D5" d="M64 47h1v1h-1zm1 0h1v1h-1zm1 0h1v1h-1zm1 0h1v1h-1z"/><path fill="#FFF" d="M68 47h1v1h-1zm1 0h1v1h-1zm1 0h1v1h-1zm1 0h1v1h-1zm1 0h1v1h-1zm1 0h1v1h-1zm1 0h1v1h-1zm1 0h1v1h-1zm1 0h1v1h-1z"/><path fill="#425284" d="M77 47h1v1h-1zm-59 1h1v1h-1zm1 0h1v1h-1z"/><path fill="#FFF" d="M20 48h1v1h-1zm1 0h1v1h-1zm1 0h1v1h-1zm1 0h1v1h-1zm1 0h1v1h-1zm1 0h1v1h-1zm1 0h1v1h-1zm1 0h1v1h-1zm1 0h1v1h-1zm1 0h1v1h-1z"/><path fill="#B4C5D5" d="M30 48h1v1h-1zm1 0h1v1h-1z"/><path fill="#FFF" d="M32 48h1v1h-1zm1 0h1v1h-1zm1 0h1v1h-1zm1 0h1v1h-1zm1 0h1v1h-1zm1 0h1v1h-1zm1 0h1v1h-1zm1 0h1v1h-1zm1 0h1v1h-1z"/><path fill="#425284" d="M41 48h1v1h-1z"/><path fill="#B4C5D5" d="M42 48h1v1h-1z"/><path fill="#FFF" d="M43 48h1v1h-1zm1 0h1v1h-1zm1 0h1v1h-1zm1 0h1v1h-1zm1 0h1v1h-1zm1 0h1v1h-1zm1 0h1v1h-1zm1 0h1v1h-1zm1 0h1v1h-1zm1 0h1v1h-1z"/><path fill="#B4C5D5" d="M53 48h1v1h-1z"/><path fill="#425284" d="M54 48h1v1h-1z"/><path fill="#FFF" d="M55 48h1v1h-1zm1 0h1v1h-1zm1 0h1v1h-1zm1 0h1v1h-1zm1 0h1v1h-1zm1 0h1v1h-1zm1 0h1v1h-1zm1 0h1v1h-1zm1 0h1v1h-1zm1 0h1v1h-1zm1 0h1v1h-1zm1 0h1v1h-1zm1 0h1v1h-1z"/><path fill="#B4C5D5" d="M68 48h1v1h-1zm1 0h1v1h-1z"/><path fill="#FFF" d="M70 48h1v1h-1zm1 0h1v1h-1zm1 0h1v1h-1zm1 0h1v1h-1zm1 0h1v1h-1zm1 0h1v1h-1z"/><path fill="#425284" d="M76 48h1v1h-1zm1 0h1v1h-1zm-58 1h1v1h-1z"/><path fill="#FFF" d="M20 49h1v1h-1zm1 0h1v1h-1zm1 0h1v1h-1zm1 0h1v1h-1zm1 0h1v1h-1zm1 0h1v1h-1zm1 0h1v1h-1zm1 0h1v1h-1z"/><path fill="#B4C5D5" d="M28 49h1v1h-1zm1 0h1v1h-1z"/><path fill="#FFF" d="M30 49h1v1h-1zm1 0h1v1h-1zm1 0h1v1h-1zm1 0h1v1h-1zm1 0h1v1h-1zm1 0h1v1h-1zm1 0h1v1h-1zm1 0h1v1h-1zm1 0h1v1h-1zm1 0h1v1h-1zm1 0h1v1h-1z"/><path fill="#425284" d="M41 49h1v1h-1z"/><path fill="#FFF" d="M42 49h1v1h-1zm1 0h1v1h-1zm1 0h1v1h-1zm1 0h1v1h-1zm1 0h1v1h-1zm1 0h1v1h-1zm1 0h1v1h-1zm1 0h1v1h-1zm1 0h1v1h-1zm1 0h1v1h-1zm1 0h1v1h-1zm1 0h1v1h-1z"/><path fill="#425284" d="M54 49h1v1h-1z"/><path fill="#FFF" d="M55 49h1v1h-1zm1 0h1v1h-1zm1 0h1v1h-1zm1 0h1v1h-1zm1 0h1v1h-1zm1 0h1v1h-1zm1 0h1v1h-1zm1 0h1v1h-1z"/><path fill="#B4C5D5" d="M63 49h1v1h-1zm1 0h1v1h-1zm1 0h1v1h-1z"/><path fill="#FFF" d="M66 49h1v1h-1zm1 0h1v1h-1zm1 0h1v1h-1zm1 0h1v1h-1z"/><path fill="#B4C5D5" d="M70 49h1v1h-1z"/><path fill="#FFF" d="M71 49h1v1h-1zm1 0h1v1h-1zm1 0h1v1h-1zm1 0h1v1h-1zm1 0h1v1h-1z"/><path fill="#425284" d="M76 49h1v1h-1zm-57 1h1v1h-1zm1 0h1v1h-1z"/><path fill="#FFF" d="M21 50h1v1h-1zm1 0h1v1h-1zm1 0h1v1h-1zm1 0h1v1h-1zm1 0h1v1h-1zm1 0h1v1h-1z"/><path fill="#B4C5D5" d="M27 50h1v1h-1z"/><path fill="#FFF" d="M28 50h1v1h-1zm1 0h1v1h-1zm1 0h1v1h-1zm1 0h1v1h-1z"/><path fill="#B4C5D5" d="M32 50h1v1h-1zm1 0h1v1h-1zm1 0h1v1h-1z"/><path fill="#FFF" d="M35 50h1v1h-1zm1 0h1v1h-1zm1 0h1v1h-1zm1 0h1v1h-1zm1 0h1v1h-1z"/><path fill="#425284" d="M40 50h1v1h-1z"/><path fill="#FFF" d="M41 50h1v1h-1zm1 0h1v1h-1zm1 0h1v1h-1zm1 0h1v1h-1zm1 0h1v1h-1zm1 0h1v1h-1zm1 0h1v1h-1zm1 0h1v1h-1zm1 0h1v1h-1zm1 0h1v1h-1zm1 0h1v1h-1zm1 0h1v1h-1zm1 0h1v1h-1zm1 0h1v1h-1z"/><path fill="#425284" d="M55 50h1v1h-1z"/><path fill="#FFF" d="M56 50h1v1h-1zm1 0h1v1h-1zm1 0h1v1h-1zm1 0h1v1h-1zm1 0h1v1h-1zm1 0h1v1h-1z"/><path fill="#B4C5D5" d="M62 50h1v1h-1z"/><path fill="#FFF" d="M63 50h1v1h-1zm1 0h1v1h-1zm1 0h1v1h-1z"/><path fill="#B4C5D5" d="M66 50h1v1h-1z"/><path fill="#FFF" d="M67 50h1v1h-1zm1 0h1v1h-1zm1 0h1v1h-1zm1 0h1v1h-1zm1 0h1v1h-1zm1 0h1v1h-1zm1 0h1v1h-1zm1 0h1v1h-1z"/><path fill="#425284" d="M75 50h1v1h-1zm1 0h1v1h-1zm-57 1h1v1h-1zm1 0h1v1h-1zm1 0h1v1h-1z"/><path fill="#FFF" d="M22 51h1v1h-1zm1 0h1v1h-1zm1 0h1v1h-1zm1 0h1v1h-1z"/><path fill="#B4C5D5" d="M26 51h1v1h-1z"/><path fill="#FFF" d="M27 51h1v1h-1z"/><path fill="#B4C5D5" d="M28 51h1v1h-1zm1 0h1v1h-1zm1 0h1v1h-1zm1 0h1v1h-1z"/><path fill="#FFF" d="M32 51h1v1h-1zm1 0h1v1h-1zm1 0h1v1h-1zm1 0h1v1h-1zm1 0h1v1h-1zm1 0h1v1h-1zm1 0h1v1h-1zm1 0h1v1h-1zm1 0h1v1h-1zm1 0h1v1h-1zm1 0h1v1h-1zm1 0h1v1h-1zm1 0h1v1h-1zm1 0h1v1h-1zm1 0h1v1h-1zm1 0h1v1h-1zm1 0h1v1h-1zm1 0h1v1h-1zm1 0h1v1h-1zm1 0h1v1h-1zm1 0h1v1h-1zm1 0h1v1h-1zm1 0h1v1h-1zm1 0h1v1h-1zm1 0h1v1h-1zm1 0h1v1h-1zm1 0h1v1h-1zm1 0h1v1h-1zm1 0h1v1h-1zm1 0h1v1h-1zm1 0h1v1h-1zm1 0h1v1h-1zm1 0h1v1h-1zm1 0h1v1h-1zm1 0h1v1h-1z"/><path fill="#B4C5D5" d="M67 51h1v1h-1z"/><path fill="#FFF" d="M68 51h1v1h-1zm1 0h1v1h-1zm1 0h1v1h-1zm1 0h1v1h-1zm1 0h1v1h-1zm1 0h1v1h-1z"/><path fill="#425284" d="M74 51h1v1h-1zm1 0h1v1h-1zm1 0h1v1h-1zm-57 1h1v1h-1z"/><path fill="#FFF" d="M20 52h1v1h-1zm1 0h1v1h-1z"/><path fill="#425284" d="M22 52h1v1h-1z"/><path fill="#FFF" d="M23 52h1v1h-1zm1 0h1v1h-1zm1 0h1v1h-1zm1 0h1v1h-1zm1 0h1v1h-1zm1 0h1v1h-1zm1 0h1v1h-1zm1 0h1v1h-1zm1 0h1v1h-1zm1 0h1v1h-1zm1 0h1v1h-1zm1 0h1v1h-1zm1 0h1v1h-1zm1 0h1v1h-1zm1 0h1v1h-1zm1 0h1v1h-1zm1 0h1v1h-1zm1 0h1v1h-1zm1 0h1v1h-1zm1 0h1v1h-1zm1 0h1v1h-1zm1 0h1v1h-1zm1 0h1v1h-1zm1 0h1v1h-1zm1 0h1v1h-1zm1 0h1v1h-1zm1 0h1v1h-1zm1 0h1v1h-1zm1 0h1v1h-1zm1 0h1v1h-1zm1 0h1v1h-1zm1 0h1v1h-1zm1 0h1v1h-1zm1 0h1v1h-1zm1 0h1v1h-1zm1 0h1v1h-1zm1 0h1v1h-1zm1 0h1v1h-1zm1 0h1v1h-1zm1 0h1v1h-1zm1 0h1v1h-1zm1 0h1v1h-1zm1 0h1v1h-1zm1 0h1v1h-1zm1 0h1v1h-1zm1 0h1v1h-1zm1 0h1v1h-1zm1 0h1v1h-1zm1 0h1v1h-1zm1 0h1v1h-1z"/><path fill="#425284" d="M73 52h1v1h-1z"/><path fill="#FFF" d="M74 52h1v1h-1zm1 0h1v1h-1z"/><path fill="#425284" d="M76 52h1v1h-1zm-56 1h1v1h-1z"/><path fill="#FFF" d="M21 53h1v1h-1z"/><path fill="#425284" d="M22 53h1v1h-1z"/><path fill="#FFF" d="M23 53h1v1h-1zm1 0h1v1h-1zm1 0h1v1h-1zm1 0h1v1h-1zm1 0h1v1h-1zm1 0h1v1h-1zm1 0h1v1h-1zm1 0h1v1h-1zm1 0h1v1h-1zm1 0h1v1h-1zm1 0h1v1h-1zm1 0h1v1h-1zm1 0h1v1h-1zm1 0h1v1h-1zm1 0h1v1h-1zm1 0h1v1h-1zm1 0h1v1h-1zm1 0h1v1h-1zm1 0h1v1h-1zm1 0h1v1h-1zm1 0h1v1h-1zm1 0h1v1h-1zm1 0h1v1h-1zm1 0h1v1h-1zm1 0h1v1h-1zm1 0h1v1h-1zm1 0h1v1h-1zm1 0h1v1h-1zm1 0h1v1h-1zm1 0h1v1h-1zm1 0h1v1h-1zm1 0h1v1h-1zm1 0h1v1h-1zm1 0h1v1h-1zm1 0h1v1h-1zm1 0h1v1h-1zm1 0h1v1h-1zm1 0h1v1h-1zm1 0h1v1h-1zm1 0h1v1h-1zm1 0h1v1h-1zm1 0h1v1h-1zm1 0h1v1h-1zm1 0h1v1h-1zm1 0h1v1h-1zm1 0h1v1h-1zm1 0h1v1h-1zm1 0h1v1h-1zm1 0h1v1h-1zm1 0h1v1h-1z"/><path fill="#425284" d="M73 53h1v1h-1z"/><path fill="#FFF" d="M74 53h1v1h-1z"/><path fill="#425284" d="M75 53h1v1h-1zm-55 1h1v1h-1z"/><path fill="#FFF" d="M21 54h1v1h-1zm1 0h1v1h-1z"/><path fill="#425284" d="M23 54h1v1h-1z"/><path fill="#FFF" d="M24 54h1v1h-1zm1 0h1v1h-1zm1 0h1v1h-1zm1 0h1v1h-1zm1 0h1v1h-1zm1 0h1v1h-1zm1 0h1v1h-1zm1 0h1v1h-1zm1 0h1v1h-1zm1 0h1v1h-1zm1 0h1v1h-1zm1 0h1v1h-1zm1 0h1v1h-1zm1 0h1v1h-1zm1 0h1v1h-1zm1 0h1v1h-1zm1 0h1v1h-1zm1 0h1v1h-1zm1 0h1v1h-1zm1 0h1v1h-1zm1 0h1v1h-1zm1 0h1v1h-1zm1 0h1v1h-1zm1 0h1v1h-1zm1 0h1v1h-1zm1 0h1v1h-1zm1 0h1v1h-1zm1 0h1v1h-1zm1 0h1v1h-1zm1 0h1v1h-1zm1 0h1v1h-1zm1 0h1v1h-1zm1 0h1v1h-1zm1 0h1v1h-1zm1 0h1v1h-1zm1 0h1v1h-1zm1 0h1v1h-1zm1 0h1v1h-1zm1 0h1v1h-1zm1 0h1v1h-1zm1 0h1v1h-1zm1 0h1v1h-1zm1 0h1v1h-1zm1 0h1v1h-1zm1 0h1v1h-1zm1 0h1v1h-1zm1 0h1v1h-1zm1 0h1v1h-1z"/><path fill="#425284" d="M72 54h1v1h-1z"/><path fill="#FFF" d="M73 54h1v1h-1zm1 0h1v1h-1z"/><path fill="#425284" d="M75 54h1v1h-1zm-55 1h1v1h-1zm1 0h1v1h-1z"/><path fill="#FFF" d="M22 55h1v1h-1z"/><path fill="#425284" d="M23 55h1v1h-1z"/><path fill="#FFF" d="M24 55h1v1h-1zm1 0h1v1h-1zm1 0h1v1h-1zm1 0h1v1h-1zm1 0h1v1h-1zm1 0h1v1h-1zm1 0h1v1h-1zm1 0h1v1h-1zm1 0h1v1h-1zm1 0h1v1h-1zm1 0h1v1h-1zm1 0h1v1h-1zm1 0h1v1h-1zm1 0h1v1h-1zm1 0h1v1h-1zm1 0h1v1h-1zm1 0h1v1h-1zm1 0h1v1h-1zm1 0h1v1h-1zm1 0h1v1h-1zm1 0h1v1h-1zm1 0h1v1h-1zm1 0h1v1h-1zm1 0h1v1h-1zm1 0h1v1h-1zm1 0h1v1h-1zm1 0h1v1h-1zm1 0h1v1h-1zm1 0h1v1h-1zm1 0h1v1h-1zm1 0h1v1h-1zm1 0h1v1h-1zm1 0h1v1h-1zm1 0h1v1h-1zm1 0h1v1h-1zm1 0h1v1h-1zm1 0h1v1h-1zm1 0h1v1h-1zm1 0h1v1h-1zm1 0h1v1h-1zm1 0h1v1h-1zm1 0h1v1h-1zm1 0h1v1h-1zm1 0h1v1h-1zm1 0h1v1h-1zm1 0h1v1h-1zm1 0h1v1h-1zm1 0h1v1h-1z"/><path fill="#425284" d="M72 55h1v1h-1z"/><path fill="#FFF" d="M73 55h1v1h-1z"/><path fill="#425284" d="M74 55h1v1h-1zm1 0h1v1h-1zm-55 1h1v1h-1zm1 0h1v1h-1zm1 0h1v1h-1z"/><path fill="#FFF" d="M23 56h1v1h-1zm1 0h1v1h-1zm1 0h1v1h-1zm1 0h1v1h-1zm1 0h1v1h-1zm1 0h1v1h-1zm1 0h1v1h-1zm1 0h1v1h-1zm1 0h1v1h-1zm1 0h1v1h-1zm1 0h1v1h-1zm1 0h1v1h-1zm1 0h1v1h-1zm1 0h1v1h-1zm1 0h1v1h-1zm1 0h1v1h-1zm1 0h1v1h-1zm1 0h1v1h-1zm1 0h1v1h-1zm1 0h1v1h-1zm1 0h1v1h-1zm1 0h1v1h-1zm1 0h1v1h-1zm1 0h1v1h-1zm1 0h1v1h-1zm1 0h1v1h-1zm1 0h1v1h-1zm1 0h1v1h-1zm1 0h1v1h-1zm1 0h1v1h-1zm1 0h1v1h-1zm1 0h1v1h-1zm1 0h1v1h-1zm1 0h1v1h-1zm1 0h1v1h-1zm1 0h1v1h-1zm1 0h1v1h-1zm1 0h1v1h-1zm1 0h1v1h-1zm1 0h1v1h-1zm1 0h1v1h-1zm1 0h1v1h-1zm1 0h1v1h-1zm1 0h1v1h-1zm1 0h1v1h-1zm1 0h1v1h-1zm1 0h1v1h-1zm1 0h1v1h-1zm1 0h1v1h-1zm1 0h1v1h-1z"/><path fill="#425284" d="M73 56h1v1h-1zm1 0h1v1h-1zm1 0h1v1h-1zm-56 1h1v1h-1z"/><path fill="#FFF" d="M20 57h1v1h-1z"/><path fill="#425284" d="M21 57h1v1h-1zm1 0h1v1h-1z"/><path fill="#FFF" d="M23 57h1v1h-1zm1 0h1v1h-1zm1 0h1v1h-1zm1 0h1v1h-1zm1 0h1v1h-1zm1 0h1v1h-1zm1 0h1v1h-1zm1 0h1v1h-1zm1 0h1v1h-1zm1 0h1v1h-1zm1 0h1v1h-1zm1 0h1v1h-1zm1 0h1v1h-1zm1 0h1v1h-1zm1 0h1v1h-1zm1 0h1v1h-1zm1 0h1v1h-1zm1 0h1v1h-1zm1 0h1v1h-1zm1 0h1v1h-1zm1 0h1v1h-1zm1 0h1v1h-1zm1 0h1v1h-1zm1 0h1v1h-1zm1 0h1v1h-1zm1 0h1v1h-1zm1 0h1v1h-1zm1 0h1v1h-1zm1 0h1v1h-1zm1 0h1v1h-1zm1 0h1v1h-1zm1 0h1v1h-1zm1 0h1v1h-1zm1 0h1v1h-1zm1 0h1v1h-1zm1 0h1v1h-1zm1 0h1v1h-1zm1 0h1v1h-1zm1 0h1v1h-1zm1 0h1v1h-1zm1 0h1v1h-1zm1 0h1v1h-1zm1 0h1v1h-1zm1 0h1v1h-1zm1 0h1v1h-1zm1 0h1v1h-1zm1 0h1v1h-1zm1 0h1v1h-1zm1 0h1v1h-1zm1 0h1v1h-1z"/><path fill="#425284" d="M73 57h1v1h-1zm1 0h1v1h-1z"/><path fill="#FFF" d="M75 57h1v1h-1z"/><path fill="#425284" d="M76 57h1v1h-1zm-57 1h1v1h-1z"/><path fill="#FFF" d="M20 58h1v1h-1z"/><path fill="#425284" d="M21 58h1v1h-1zm1 0h1v1h-1z"/><path fill="#FFF" d="M23 58h1v1h-1zm1 0h1v1h-1zm1 0h1v1h-1zm1 0h1v1h-1zm1 0h1v1h-1zm1 0h1v1h-1zm1 0h1v1h-1zm1 0h1v1h-1zm1 0h1v1h-1zm1 0h1v1h-1zm1 0h1v1h-1zm1 0h1v1h-1zm1 0h1v1h-1zm1 0h1v1h-1zm1 0h1v1h-1zm1 0h1v1h-1zm1 0h1v1h-1zm1 0h1v1h-1zm1 0h1v1h-1zm1 0h1v1h-1zm1 0h1v1h-1zm1 0h1v1h-1zm1 0h1v1h-1zm1 0h1v1h-1zm1 0h1v1h-1zm1 0h1v1h-1zm1 0h1v1h-1zm1 0h1v1h-1zm1 0h1v1h-1zm1 0h1v1h-1zm1 0h1v1h-1zm1 0h1v1h-1zm1 0h1v1h-1zm1 0h1v1h-1zm1 0h1v1h-1zm1 0h1v1h-1zm1 0h1v1h-1zm1 0h1v1h-1zm1 0h1v1h-1zm1 0h1v1h-1zm1 0h1v1h-1zm1 0h1v1h-1zm1 0h1v1h-1zm1 0h1v1h-1zm1 0h1v1h-1zm1 0h1v1h-1zm1 0h1v1h-1zm1 0h1v1h-1zm1 0h1v1h-1zm1 0h1v1h-1z"/><path fill="#425284" d="M73 58h1v1h-1zm1 0h1v1h-1z"/><path fill="#FFF" d="M75 58h1v1h-1z"/><path fill="#425284" d="M76 58h1v1h-1zm-57 1h1v1h-1z"/><path fill="#FFF" d="M20 59h1v1h-1z"/><path fill="#425284" d="M21 59h1v1h-1z"/><path fill="#FFF" d="M22 59h1v1h-1zm1 0h1v1h-1zm1 0h1v1h-1zm1 0h1v1h-1zm1 0h1v1h-1zm1 0h1v1h-1zm1 0h1v1h-1zm1 0h1v1h-1zm1 0h1v1h-1zm1 0h1v1h-1zm1 0h1v1h-1zm1 0h1v1h-1zm1 0h1v1h-1zm1 0h1v1h-1zm1 0h1v1h-1zm1 0h1v1h-1zm1 0h1v1h-1zm1 0h1v1h-1zm1 0h1v1h-1zm1 0h1v1h-1zm1 0h1v1h-1zm1 0h1v1h-1zm1 0h1v1h-1zm1 0h1v1h-1zm1 0h1v1h-1zm1 0h1v1h-1zm1 0h1v1h-1zm1 0h1v1h-1zm1 0h1v1h-1zm1 0h1v1h-1zm1 0h1v1h-1zm1 0h1v1h-1zm1 0h1v1h-1zm1 0h1v1h-1zm1 0h1v1h-1zm1 0h1v1h-1zm1 0h1v1h-1zm1 0h1v1h-1zm1 0h1v1h-1zm1 0h1v1h-1zm1 0h1v1h-1zm1 0h1v1h-1zm1 0h1v1h-1zm1 0h1v1h-1zm1 0h1v1h-1zm1 0h1v1h-1zm1 0h1v1h-1zm1 0h1v1h-1zm1 0h1v1h-1zm1 0h1v1h-1zm1 0h1v1h-1zm1 0h1v1h-1z"/><path fill="#425284" d="M74 59h1v1h-1z"/><path fill="#FFF" d="M75 59h1v1h-1z"/><path fill="#425284" d="M76 59h1v1h-1zm-57 1h1v1h-1z"/><path fill="#FFF" d="M20 60h1v1h-1z"/><path fill="#425284" d="M21 60h1v1h-1z"/><path fill="#FFF" d="M22 60h1v1h-1zm1 0h1v1h-1zm1 0h1v1h-1zm1 0h1v1h-1zm1 0h1v1h-1zm1 0h1v1h-1zm1 0h1v1h-1zm1 0h1v1h-1zm1 0h1v1h-1zm1 0h1v1h-1z"/><path fill="#425284" d="M32 60h1v1h-1zm1 0h1v1h-1zm1 0h1v1h-1zm1 0h1v1h-1zm1 0h1v1h-1z"/><path fill="#FFF" d="M37 60h1v1h-1zm1 0h1v1h-1zm1 0h1v1h-1zm1 0h1v1h-1zm1 0h1v1h-1zm1 0h1v1h-1zm1 0h1v1h-1zm1 0h1v1h-1zm1 0h1v1h-1zm1 0h1v1h-1zm1 0h1v1h-1zm1 0h1v1h-1zm1 0h1v1h-1zm1 0h1v1h-1zm1 0h1v1h-1zm1 0h1v1h-1zm1 0h1v1h-1zm1 0h1v1h-1zm1 0h1v1h-1zm1 0h1v1h-1zm1 0h1v1h-1zm1 0h1v1h-1z"/><path fill="#425284" d="M59 60h1v1h-1zm1 0h1v1h-1zm1 0h1v1h-1zm1 0h1v1h-1zm1 0h1v1h-1z"/><path fill="#FFF" d="M64 60h1v1h-1zm1 0h1v1h-1zm1 0h1v1h-1zm1 0h1v1h-1zm1 0h1v1h-1zm1 0h1v1h-1zm1 0h1v1h-1zm1 0h1v1h-1zm1 0h1v1h-1zm1 0h1v1h-1z"/><path fill="#425284" d="M74 60h1v1h-1z"/><path fill="#FFF" d="M75 60h1v1h-1z"/><path fill="#425284" d="M76 60h1v1h-1zm-58 1h1v1h-1z"/><path fill="#FFF" d="M19 61h1v1h-1z"/><path fill="#425284" d="M20 61h1v1h-1zm1 0h1v1h-1z"/><path fill="#FFF" d="M22 61h1v1h-1zm1 0h1v1h-1zm1 0h1v1h-1zm1 0h1v1h-1zm1 0h1v1h-1zm1 0h1v1h-1zm1 0h1v1h-1zm1 0h1v1h-1zm1 0h1v1h-1z"/><path fill="#425284" d="M31 61h1v1h-1z"/><path fill="#FFF" d="M32 61h1v1h-1z"/><path fill="#9CE6FF" d="M33 61h1v1h-1zm1 0h1v1h-1zm1 0h1v1h-1zm1 0h1v1h-1z"/><path fill="#425284" d="M37 61h1v1h-1zm1 0h1v1h-1z"/><path fill="#FFF" d="M39 61h1v1h-1zm1 0h1v1h-1zm1 0h1v1h-1zm1 0h1v1h-1zm1 0h1v1h-1zm1 0h1v1h-1zm1 0h1v1h-1zm1 0h1v1h-1zm1 0h1v1h-1zm1 0h1v1h-1zm1 0h1v1h-1zm1 0h1v1h-1zm1 0h1v1h-1zm1 0h1v1h-1zm1 0h1v1h-1zm1 0h1v1h-1zm1 0h1v1h-1zm1 0h1v1h-1z"/><path fill="#425284" d="M57 61h1v1h-1zm1 0h1v1h-1z"/><path fill="#9CE6FF" d="M59 61h1v1h-1zm1 0h1v1h-1zm1 0h1v1h-1zm1 0h1v1h-1z"/><path fill="#FFF" d="M63 61h1v1h-1z"/><path fill="#425284" d="M64 61h1v1h-1z"/><path fill="#FFF" d="M65 61h1v1h-1zm1 0h1v1h-1zm1 0h1v1h-1zm1 0h1v1h-1zm1 0h1v1h-1zm1 0h1v1h-1zm1 0h1v1h-1zm1 0h1v1h-1zm1 0h1v1h-1z"/><path fill="#425284" d="M74 61h1v1h-1zm1 0h1v1h-1z"/><path fill="#FFF" d="M76 61h1v1h-1z"/><path fill="#425284" d="M77 61h1v1h-1zm-59 1h1v1h-1z"/><path fill="#FFF" d="M19 62h1v1h-1z"/><path fill="#425284" d="M20 62h1v1h-1z"/><path fill="#FFF" d="M21 62h1v1h-1zm1 0h1v1h-1zm1 0h1v1h-1zm1 0h1v1h-1zm1 0h1v1h-1zm1 0h1v1h-1zm1 0h1v1h-1zm1 0h1v1h-1zm1 0h1v1h-1z"/><path fill="#425284" d="M30 62h1v1h-1z"/><path fill="#FFF" d="M31 62h1v1h-1z"/><path fill="#9CE6FF" d="M32 62h1v1h-1zm1 0h1v1h-1zm1 0h1v1h-1zm1 0h1v1h-1zm1 0h1v1h-1zm1 0h1v1h-1zm1 0h1v1h-1z"/><path fill="#425284" d="M39 62h1v1h-1z"/><path fill="#FFF" d="M40 62h1v1h-1zm1 0h1v1h-1zm1 0h1v1h-1zm1 0h1v1h-1zm1 0h1v1h-1zm1 0h1v1h-1zm1 0h1v1h-1zm1 0h1v1h-1zm1 0h1v1h-1zm1 0h1v1h-1zm1 0h1v1h-1zm1 0h1v1h-1zm1 0h1v1h-1zm1 0h1v1h-1zm1 0h1v1h-1zm1 0h1v1h-1z"/><path fill="#425284" d="M56 62h1v1h-1z"/><path fill="#9CE6FF" d="M57 62h1v1h-1zm1 0h1v1h-1zm1 0h1v1h-1zm1 0h1v1h-1zm1 0h1v1h-1zm1 0h1v1h-1zm1 0h1v1h-1z"/><path fill="#FFF" d="M64 62h1v1h-1z"/><path fill="#425284" d="M65 62h1v1h-1z"/><path fill="#FFF" d="M66 62h1v1h-1zm1 0h1v1h-1zm1 0h1v1h-1zm1 0h1v1h-1zm1 0h1v1h-1zm1 0h1v1h-1zm1 0h1v1h-1zm1 0h1v1h-1zm1 0h1v1h-1z"/><path fill="#425284" d="M75 62h1v1h-1z"/><path fill="#FFF" d="M76 62h1v1h-1z"/><path fill="#425284" d="M77 62h1v1h-1zm-59 1h1v1h-1z"/><path fill="#FFF" d="M19 63h1v1h-1z"/><path fill="#425284" d="M20 63h1v1h-1z"/><path fill="#FFF" d="M21 63h1v1h-1zm1 0h1v1h-1zm1 0h1v1h-1zm1 0h1v1h-1zm1 0h1v1h-1zm1 0h1v1h-1zm1 0h1v1h-1zm1 0h1v1h-1z"/><path fill="#425284" d="M29 63h1v1h-1z"/><path fill="#FFF" d="M30 63h1v1h-1z"/><path fill="#9CE6FF" d="M31 63h1v1h-1zm1 0h1v1h-1z"/><path fill="#393941" d="M33 63h1v1h-1zm1 0h1v1h-1z"/><path fill="#F6E182" d="M35 63h1v1h-1z"/><path fill="#393941" d="M36 63h1v1h-1z"/><path fill="#9CE6FF" d="M37 63h1v1h-1zm1 0h1v1h-1zm1 0h1v1h-1z"/><path fill="#425284" d="M40 63h1v1h-1z"/><path fill="#FFF" d="M41 63h1v1h-1zm1 0h1v1h-1zm1 0h1v1h-1zm1 0h1v1h-1zm1 0h1v1h-1zm1 0h1v1h-1zm1 0h1v1h-1zm1 0h1v1h-1zm1 0h1v1h-1zm1 0h1v1h-1zm1 0h1v1h-1zm1 0h1v1h-1zm1 0h1v1h-1zm1 0h1v1h-1z"/><path fill="#425284" d="M55 63h1v1h-1z"/><path fill="#393941" d="M56 63h1v1h-1z"/><path fill="#F6E182" d="M57 63h1v1h-1z"/><path fill="#393941" d="M58 63h1v1h-1zm1 0h1v1h-1z"/><path fill="#9CE6FF" d="M60 63h1v1h-1zm1 0h1v1h-1zm1 0h1v1h-1zm1 0h1v1h-1zm1 0h1v1h-1z"/><path fill="#FFF" d="M65 63h1v1h-1z"/><path fill="#425284" d="M66 63h1v1h-1z"/><path fill="#FFF" d="M67 63h1v1h-1zm1 0h1v1h-1zm1 0h1v1h-1zm1 0h1v1h-1zm1 0h1v1h-1zm1 0h1v1h-1zm1 0h1v1h-1zm1 0h1v1h-1z"/><path fill="#425284" d="M75 63h1v1h-1z"/><path fill="#FFF" d="M76 63h1v1h-1z"/><path fill="#425284" d="M77 63h1v1h-1zm-59 1h1v1h-1z"/><path fill="#FFF" d="M19 64h1v1h-1z"/><path fill="#425284" d="M20 64h1v1h-1z"/><path fill="#FFF" d="M21 64h1v1h-1zm1 0h1v1h-1zm1 0h1v1h-1zm1 0h1v1h-1zm1 0h1v1h-1zm1 0h1v1h-1zm1 0h1v1h-1zm1 0h1v1h-1z"/><path fill="#425284" d="M29 64h1v1h-1z"/><path fill="#FFF" d="M30 64h1v1h-1z"/><path fill="#9CE6FF" d="M31 64h1v1h-1z"/><path fill="#393941" d="M32 64h1v1h-1zm1 0h1v1h-1zm1 0h1v1h-1z"/><path fill="#F6E182" d="M35 64h1v1h-1z"/><path fill="#393941" d="M36 64h1v1h-1zm1 0h1v1h-1z"/><path fill="#9CE6FF" d="M38 64h1v1h-1zm1 0h1v1h-1zm1 0h1v1h-1z"/><path fill="#425284" d="M41 64h1v1h-1z"/><path fill="#FFF" d="M42 64h1v1h-1zm1 0h1v1h-1zm1 0h1v1h-1zm1 0h1v1h-1zm1 0h1v1h-1zm1 0h1v1h-1zm1 0h1v1h-1zm1 0h1v1h-1zm1 0h1v1h-1zm1 0h1v1h-1zm1 0h1v1h-1zm1 0h1v1h-1z"/><path fill="#425284" d="M54 64h1v1h-1z"/><path fill="#393941" d="M55 64h1v1h-1zm1 0h1v1h-1z"/><path fill="#F6E182" d="M57 64h1v1h-1z"/><path fill="#393941" d="M58 64h1v1h-1zm1 0h1v1h-1zm1 0h1v1h-1z"/><path fill="#9CE6FF" d="M61 64h1v1h-1zm1 0h1v1h-1zm1 0h1v1h-1zm1 0h1v1h-1z"/><path fill="#FFF" d="M65 64h1v1h-1z"/><path fill="#425284" d="M66 64h1v1h-1z"/><path fill="#FFF" d="M67 64h1v1h-1zm1 0h1v1h-1zm1 0h1v1h-1zm1 0h1v1h-1zm1 0h1v1h-1zm1 0h1v1h-1zm1 0h1v1h-1zm1 0h1v1h-1z"/><path fill="#425284" d="M75 64h1v1h-1z"/><path fill="#FFF" d="M76 64h1v1h-1z"/><path fill="#425284" d="M77 64h1v1h-1zm-59 1h1v1h-1z"/><path fill="#FFF" d="M19 65h1v1h-1z"/><path fill="#425284" d="M20 65h1v1h-1z"/><path fill="#FFF" d="M21 65h1v1h-1zm1 0h1v1h-1zm1 0h1v1h-1zm1 0h1v1h-1zm1 0h1v1h-1zm1 0h1v1h-1zm1 0h1v1h-1zm1 0h1v1h-1z"/><path fill="#425284" d="M29 65h1v1h-1z"/><path fill="#9CE6FF" d="M30 65h1v1h-1z"/><path fill="#393941" d="M31 65h1v1h-1zm1 0h1v1h-1zm1 0h1v1h-1zm1 0h1v1h-1z"/><path fill="#F6E182" d="M35 65h1v1h-1z"/><path fill="#393941" d="M36 65h1v1h-1zm1 0h1v1h-1zm1 0h1v1h-1z"/><path fill="#9CE6FF" d="M39 65h1v1h-1zm1 0h1v1h-1z"/><path fill="#425284" d="M41 65h1v1h-1z"/><path fill="#FFF" d="M42 65h1v1h-1zm1 0h1v1h-1zm1 0h1v1h-1zm1 0h1v1h-1zm1 0h1v1h-1zm1 0h1v1h-1zm1 0h1v1h-1zm1 0h1v1h-1zm1 0h1v1h-1zm1 0h1v1h-1zm1 0h1v1h-1zm1 0h1v1h-1z"/><path fill="#425284" d="M54 65h1v1h-1z"/><path fill="#393941" d="M55 65h1v1h-1zm1 0h1v1h-1z"/><path fill="#F6E182" d="M57 65h1v1h-1z"/><path fill="#393941" d="M58 65h1v1h-1zm1 0h1v1h-1zm1 0h1v1h-1zm1 0h1v1h-1z"/><path fill="#9CE6FF" d="M62 65h1v1h-1zm1 0h1v1h-1zm1 0h1v1h-1zm1 0h1v1h-1z"/><path fill="#425284" d="M66 65h1v1h-1z"/><path fill="#FFF" d="M67 65h1v1h-1zm1 0h1v1h-1zm1 0h1v1h-1zm1 0h1v1h-1zm1 0h1v1h-1zm1 0h1v1h-1zm1 0h1v1h-1zm1 0h1v1h-1z"/><path fill="#425284" d="M75 65h1v1h-1z"/><path fill="#FFF" d="M76 65h1v1h-1z"/><path fill="#425284" d="M77 65h1v1h-1zm-59 1h1v1h-1z"/><path fill="#FFF" d="M19 66h1v1h-1z"/><path fill="#425284" d="M20 66h1v1h-1z"/><path fill="#FFF" d="M21 66h1v1h-1zm1 0h1v1h-1zm1 0h1v1h-1zm1 0h1v1h-1zm1 0h1v1h-1zm1 0h1v1h-1zm1 0h1v1h-1zm1 0h1v1h-1z"/><path fill="#425284" d="M29 66h1v1h-1z"/><path fill="#9CE6FF" d="M30 66h1v1h-1z"/><path fill="#393941" d="M31 66h1v1h-1zm1 0h1v1h-1zm1 0h1v1h-1z"/><path fill="#F6E182" d="M34 66h1v1h-1zm1 0h1v1h-1zm1 0h1v1h-1z"/><path fill="#393941" d="M37 66h1v1h-1zm1 0h1v1h-1z"/><path fill="#9CE6FF" d="M39 66h1v1h-1zm1 0h1v1h-1zm1 0h1v1h-1z"/><path fill="#425284" d="M42 66h1v1h-1z"/><path fill="#FFF" d="M43 66h1v1h-1zm1 0h1v1h-1zm1 0h1v1h-1zm1 0h1v1h-1zm1 0h1v1h-1zm1 0h1v1h-1zm1 0h1v1h-1zm1 0h1v1h-1zm1 0h1v1h-1zm1 0h1v1h-1z"/><path fill="#425284" d="M53 66h1v1h-1z"/><path fill="#393941" d="M54 66h1v1h-1zm1 0h1v1h-1z"/><path fill="#F6E182" d="M56 66h1v1h-1zm1 0h1v1h-1zm1 0h1v1h-1z"/><path fill="#393941" d="M59 66h1v1h-1zm1 0h1v1h-1zm1 0h1v1h-1z"/><path fill="#9CE6FF" d="M62 66h1v1h-1zm1 0h1v1h-1zm1 0h1v1h-1zm1 0h1v1h-1z"/><path fill="#425284" d="M66 66h1v1h-1z"/><path fill="#FFF" d="M67 66h1v1h-1zm1 0h1v1h-1zm1 0h1v1h-1zm1 0h1v1h-1zm1 0h1v1h-1zm1 0h1v1h-1zm1 0h1v1h-1zm1 0h1v1h-1z"/><path fill="#425284" d="M75 66h1v1h-1z"/><path fill="#FFF" d="M76 66h1v1h-1z"/><path fill="#425284" d="M77 66h1v1h-1zm-59 1h1v1h-1zm1 0h1v1h-1z"/><path fill="#B4C5D5" d="M20 67h1v1h-1z"/><path fill="#FFF" d="M21 67h1v1h-1zm1 0h1v1h-1zm1 0h1v1h-1zm1 0h1v1h-1zm1 0h1v1h-1zm1 0h1v1h-1zm1 0h1v1h-1zm1 0h1v1h-1z"/><path fill="#425284" d="M29 67h1v1h-1z"/><path fill="#393941" d="M30 67h1v1h-1zm1 0h1v1h-1zm1 0h1v1h-1zm1 0h1v1h-1z"/><path fill="#F6E182" d="M34 67h1v1h-1zm1 0h1v1h-1zm1 0h1v1h-1z"/><path fill="#393941" d="M37 67h1v1h-1zm1 0h1v1h-1zm1 0h1v1h-1z"/><path fill="#9CE6FF" d="M40 67h1v1h-1zm1 0h1v1h-1z"/><path fill="#425284" d="M42 67h1v1h-1z"/><path fill="#FFF" d="M43 67h1v1h-1zm1 0h1v1h-1zm1 0h1v1h-1zm1 0h1v1h-1zm1 0h1v1h-1zm1 0h1v1h-1zm1 0h1v1h-1zm1 0h1v1h-1zm1 0h1v1h-1zm1 0h1v1h-1z"/><path fill="#425284" d="M53 67h1v1h-1z"/><path fill="#393941" d="M54 67h1v1h-1zm1 0h1v1h-1z"/><path fill="#F6E182" d="M56 67h1v1h-1zm1 0h1v1h-1zm1 0h1v1h-1z"/><path fill="#393941" d="M59 67h1v1h-1zm1 0h1v1h-1zm1 0h1v1h-1zm1 0h1v1h-1z"/><path fill="#9CE6FF" d="M63 67h1v1h-1zm1 0h1v1h-1zm1 0h1v1h-1z"/><path fill="#425284" d="M66 67h1v1h-1z"/><path fill="#FFF" d="M67 67h1v1h-1zm1 0h1v1h-1zm1 0h1v1h-1zm1 0h1v1h-1zm1 0h1v1h-1zm1 0h1v1h-1zm1 0h1v1h-1zm1 0h1v1h-1z"/><path fill="#B4C5D5" d="M75 67h1v1h-1z"/><path fill="#425284" d="M76 67h1v1h-1zm1 0h1v1h-1zm-58 1h1v1h-1z"/><path fill="#B4C5D5" d="M20 68h1v1h-1z"/><path fill="#FFF" d="M21 68h1v1h-1zm1 0h1v1h-1zm1 0h1v1h-1zm1 0h1v1h-1zm1 0h1v1h-1zm1 0h1v1h-1zm1 0h1v1h-1zm1 0h1v1h-1z"/><path fill="#425284" d="M29 68h1v1h-1z"/><path fill="#393941" d="M30 68h1v1h-1zm1 0h1v1h-1zm1 0h1v1h-1zm1 0h1v1h-1z"/><path fill="#F6E182" d="M34 68h1v1h-1zm1 0h1v1h-1zm1 0h1v1h-1z"/><path fill="#393941" d="M37 68h1v1h-1zm1 0h1v1h-1zm1 0h1v1h-1z"/><path fill="#9CE6FF" d="M40 68h1v1h-1zm1 0h1v1h-1z"/><path fill="#425284" d="M42 68h1v1h-1z"/><path fill="#FFF" d="M43 68h1v1h-1zm1 0h1v1h-1zm1 0h1v1h-1zm1 0h1v1h-1zm1 0h1v1h-1zm1 0h1v1h-1zm1 0h1v1h-1zm1 0h1v1h-1zm1 0h1v1h-1zm1 0h1v1h-1z"/><path fill="#425284" d="M53 68h1v1h-1z"/><path fill="#393941" d="M54 68h1v1h-1zm1 0h1v1h-1z"/><path fill="#F6E182" d="M56 68h1v1h-1zm1 0h1v1h-1zm1 0h1v1h-1z"/><path fill="#393941" d="M59 68h1v1h-1zm1 0h1v1h-1zm1 0h1v1h-1zm1 0h1v1h-1z"/><path fill="#9CE6FF" d="M63 68h1v1h-1zm1 0h1v1h-1zm1 0h1v1h-1z"/><path fill="#425284" d="M66 68h1v1h-1z"/><path fill="#FFF" d="M67 68h1v1h-1zm1 0h1v1h-1zm1 0h1v1h-1zm1 0h1v1h-1zm1 0h1v1h-1zm1 0h1v1h-1zm1 0h1v1h-1zm1 0h1v1h-1z"/><path fill="#B4C5D5" d="M75 68h1v1h-1z"/><path fill="#425284" d="M76 68h1v1h-1zm-57 1h1v1h-1z"/><path fill="#B4C5D5" d="M20 69h1v1h-1zm1 0h1v1h-1z"/><path fill="#FFF" d="M22 69h1v1h-1zm1 0h1v1h-1zm1 0h1v1h-1zm1 0h1v1h-1zm1 0h1v1h-1zm1 0h1v1h-1zm1 0h1v1h-1z"/><path fill="#425284" d="M29 69h1v1h-1z"/><path fill="#393941" d="M30 69h1v1h-1zm1 0h1v1h-1z"/><path fill="#F6E182" d="M32 69h1v1h-1zm1 0h1v1h-1zm1 0h1v1h-1zm1 0h1v1h-1zm1 0h1v1h-1zm1 0h1v1h-1z"/><path fill="#393941" d="M38 69h1v1h-1zm1 0h1v1h-1z"/><path fill="#9CE6FF" d="M40 69h1v1h-1zm1 0h1v1h-1z"/><path fill="#425284" d="M42 69h1v1h-1z"/><path fill="#FFF" d="M43 69h1v1h-1zm1 0h1v1h-1zm1 0h1v1h-1zm1 0h1v1h-1zm1 0h1v1h-1zm1 0h1v1h-1zm1 0h1v1h-1zm1 0h1v1h-1zm1 0h1v1h-1zm1 0h1v1h-1z"/><path fill="#425284" d="M53 69h1v1h-1z"/><path fill="#393941" d="M54 69h1v1h-1z"/><path fill="#F6E182" d="M55 69h1v1h-1zm1 0h1v1h-1zm1 0h1v1h-1zm1 0h1v1h-1zm1 0h1v1h-1zm1 0h1v1h-1z"/><path fill="#393941" d="M61 69h1v1h-1zm1 0h1v1h-1z"/><path fill="#9CE6FF" d="M63 69h1v1h-1zm1 0h1v1h-1zm1 0h1v1h-1z"/><path fill="#425284" d="M66 69h1v1h-1z"/><path fill="#FFF" d="M67 69h1v1h-1zm1 0h1v1h-1zm1 0h1v1h-1zm1 0h1v1h-1zm1 0h1v1h-1zm1 0h1v1h-1zm1 0h1v1h-1z"/><path fill="#B4C5D5" d="M74 69h1v1h-1zm1 0h1v1h-1z"/><path fill="#425284" d="M76 69h1v1h-1zm-58 1h1v1h-1zm1 0h1v1h-1z"/><path fill="#B4C5D5" d="M20 70h1v1h-1zm1 0h1v1h-1z"/><path fill="#FFF" d="M22 70h1v1h-1zm1 0h1v1h-1zm1 0h1v1h-1zm1 0h1v1h-1zm1 0h1v1h-1zm1 0h1v1h-1zm1 0h1v1h-1z"/><path fill="#425284" d="M29 70h1v1h-1z"/><path fill="#F6E182" d="M30 70h1v1h-1zm1 0h1v1h-1zm1 0h1v1h-1zm1 0h1v1h-1zm1 0h1v1h-1zm1 0h1v1h-1zm1 0h1v1h-1zm1 0h1v1h-1zm1 0h1v1h-1z"/><path fill="#393941" d="M39 70h1v1h-1z"/><path fill="#9CE6FF" d="M40 70h1v1h-1zm1 0h1v1h-1z"/><path fill="#425284" d="M42 70h1v1h-1z"/><path fill="#FFF" d="M43 70h1v1h-1zm1 0h1v1h-1zm1 0h1v1h-1zm1 0h1v1h-1zm1 0h1v1h-1zm1 0h1v1h-1zm1 0h1v1h-1zm1 0h1v1h-1zm1 0h1v1h-1zm1 0h1v1h-1z"/><path fill="#425284" d="M53 70h1v1h-1z"/><path fill="#F6E182" d="M54 70h1v1h-1zm1 0h1v1h-1zm1 0h1v1h-1zm1 0h1v1h-1zm1 0h1v1h-1zm1 0h1v1h-1zm1 0h1v1h-1zm1 0h1v1h-1zm1 0h1v1h-1z"/><path fill="#9CE6FF" d="M63 70h1v1h-1zm1 0h1v1h-1zm1 0h1v1h-1z"/><path fill="#425284" d="M66 70h1v1h-1z"/><path fill="#FFF" d="M67 70h1v1h-1zm1 0h1v1h-1zm1 0h1v1h-1zm1 0h1v1h-1zm1 0h1v1h-1zm1 0h1v1h-1zm1 0h1v1h-1z"/><path fill="#B4C5D5" d="M74 70h1v1h-1zm1 0h1v1h-1z"/><path fill="#425284" d="M76 70h1v1h-1zm1 0h1v1h-1zm-59 1h1v1h-1zm1 0h1v1h-1z"/><path fill="#B4C5D5" d="M20 71h1v1h-1zm1 0h1v1h-1zm1 0h1v1h-1z"/><path fill="#FFF" d="M23 71h1v1h-1zm1 0h1v1h-1zm1 0h1v1h-1zm1 0h1v1h-1zm1 0h1v1h-1zm1 0h1v1h-1z"/><path fill="#425284" d="M29 71h1v1h-1z"/><path fill="#393941" d="M30 71h1v1h-1zm1 0h1v1h-1z"/><path fill="#F6E182" d="M32 71h1v1h-1zm1 0h1v1h-1zm1 0h1v1h-1zm1 0h1v1h-1zm1 0h1v1h-1zm1 0h1v1h-1z"/><path fill="#393941" d="M38 71h1v1h-1zm1 0h1v1h-1z"/><path fill="#9CE6FF" d="M40 71h1v1h-1zm1 0h1v1h-1z"/><path fill="#425284" d="M42 71h1v1h-1z"/><path fill="#FFF" d="M43 71h1v1h-1zm1 0h1v1h-1zm1 0h1v1h-1zm1 0h1v1h-1zm1 0h1v1h-1zm1 0h1v1h-1zm1 0h1v1h-1zm1 0h1v1h-1zm1 0h1v1h-1zm1 0h1v1h-1z"/><path fill="#425284" d="M53 71h1v1h-1z"/><path fill="#393941" d="M54 71h1v1h-1z"/><path fill="#F6E182" d="M55 71h1v1h-1zm1 0h1v1h-1zm1 0h1v1h-1zm1 0h1v1h-1zm1 0h1v1h-1zm1 0h1v1h-1z"/><path fill="#393941" d="M61 71h1v1h-1zm1 0h1v1h-1z"/><path fill="#9CE6FF" d="M63 71h1v1h-1zm1 0h1v1h-1zm1 0h1v1h-1z"/><path fill="#425284" d="M66 71h1v1h-1z"/><path fill="#FFF" d="M67 71h1v1h-1zm1 0h1v1h-1zm1 0h1v1h-1zm1 0h1v1h-1zm1 0h1v1h-1zm1 0h1v1h-1z"/><path fill="#B4C5D5" d="M73 71h1v1h-1zm1 0h1v1h-1zm1 0h1v1h-1z"/><path fill="#425284" d="M76 71h1v1h-1zm1 0h1v1h-1zm-60 1h1v1h-1z"/><path fill="#FFF" d="M18 72h1v1h-1zm1 0h1v1h-1z"/><path fill="#425284" d="M20 72h1v1h-1z"/><path fill="#B4C5D5" d="M21 72h1v1h-1zm1 0h1v1h-1z"/><path fill="#FFF" d="M23 72h1v1h-1zm1 0h1v1h-1zm1 0h1v1h-1zm1 0h1v1h-1zm1 0h1v1h-1zm1 0h1v1h-1zm1 0h1v1h-1z"/><path fill="#425284" d="M30 72h1v1h-1z"/><path fill="#393941" d="M31 72h1v1h-1zm1 0h1v1h-1zm1 0h1v1h-1z"/><path fill="#F6E182" d="M34 72h1v1h-1zm1 0h1v1h-1zm1 0h1v1h-1z"/><path fill="#393941" d="M37 72h1v1h-1zm1 0h1v1h-1zm1 0h1v1h-1z"/><path fill="#9CE6FF" d="M40 72h1v1h-1zm1 0h1v1h-1z"/><path fill="#425284" d="M42 72h1v1h-1z"/><path fill="#FFF" d="M43 72h1v1h-1zm1 0h1v1h-1zm1 0h1v1h-1zm1 0h1v1h-1zm1 0h1v1h-1zm1 0h1v1h-1zm1 0h1v1h-1zm1 0h1v1h-1zm1 0h1v1h-1zm1 0h1v1h-1z"/><path fill="#425284" d="M53 72h1v1h-1z"/><path fill="#393941" d="M54 72h1v1h-1zm1 0h1v1h-1z"/><path fill="#F6E182" d="M56 72h1v1h-1zm1 0h1v1h-1zm1 0h1v1h-1z"/><path fill="#393941" d="M59 72h1v1h-1zm1 0h1v1h-1zm1 0h1v1h-1zm1 0h1v1h-1z"/><path fill="#9CE6FF" d="M63 72h1v1h-1zm1 0h1v1h-1z"/><path fill="#425284" d="M65 72h1v1h-1z"/><path fill="#FFF" d="M66 72h1v1h-1zm1 0h1v1h-1zm1 0h1v1h-1zm1 0h1v1h-1zm1 0h1v1h-1zm1 0h1v1h-1zm1 0h1v1h-1z"/><path fill="#B4C5D5" d="M73 72h1v1h-1zm1 0h1v1h-1z"/><path fill="#425284" d="M75 72h1v1h-1z"/><path fill="#FFF" d="M76 72h1v1h-1zm1 0h1v1h-1z"/><path fill="#425284" d="M78 72h1v1h-1zm-61 1h1v1h-1z"/><path fill="#FFF" d="M18 73h1v1h-1zm1 0h1v1h-1z"/><path fill="#425284" d="M20 73h1v1h-1z"/><path fill="#B4C5D5" d="M21 73h1v1h-1zm1 0h1v1h-1zm1 0h1v1h-1z"/><path fill="#FFF" d="M24 73h1v1h-1zm1 0h1v1h-1zm1 0h1v1h-1zm1 0h1v1h-1zm1 0h1v1h-1zm1 0h1v1h-1z"/><path fill="#425284" d="M30 73h1v1h-1z"/><path fill="#393941" d="M31 73h1v1h-1zm1 0h1v1h-1zm1 0h1v1h-1z"/><path fill="#F6E182" d="M34 73h1v1h-1zm1 0h1v1h-1zm1 0h1v1h-1z"/><path fill="#393941" d="M37 73h1v1h-1zm1 0h1v1h-1z"/><path fill="#9CE6FF" d="M39 73h1v1h-1zm1 0h1v1h-1zm1 0h1v1h-1z"/><path fill="#425284" d="M42 73h1v1h-1z"/><path fill="#FFF" d="M43 73h1v1h-1zm1 0h1v1h-1zm1 0h1v1h-1zm1 0h1v1h-1zm1 0h1v1h-1zm1 0h1v1h-1zm1 0h1v1h-1zm1 0h1v1h-1zm1 0h1v1h-1zm1 0h1v1h-1z"/><path fill="#425284" d="M53 73h1v1h-1z"/><path fill="#393941" d="M54 73h1v1h-1zm1 0h1v1h-1z"/><path fill="#F6E182" d="M56 73h1v1h-1zm1 0h1v1h-1zm1 0h1v1h-1z"/><path fill="#393941" d="M59 73h1v1h-1zm1 0h1v1h-1zm1 0h1v1h-1z"/><path fill="#9CE6FF" d="M62 73h1v1h-1zm1 0h1v1h-1zm1 0h1v1h-1z"/><path fill="#425284" d="M65 73h1v1h-1z"/><path fill="#FFF" d="M66 73h1v1h-1zm1 0h1v1h-1zm1 0h1v1h-1zm1 0h1v1h-1zm1 0h1v1h-1zm1 0h1v1h-1z"/><path fill="#B4C5D5" d="M72 73h1v1h-1zm1 0h1v1h-1zm1 0h1v1h-1z"/><path fill="#425284" d="M75 73h1v1h-1z"/><path fill="#FFF" d="M76 73h1v1h-1zm1 0h1v1h-1z"/><path fill="#425284" d="M78 73h1v1h-1zm-62 1h1v1h-1z"/><path fill="#FFF" d="M17 74h1v1h-1zm1 0h1v1h-1zm1 0h1v1h-1z"/><path fill="#425284" d="M20 74h1v1h-1z"/><path fill="#B4C5D5" d="M21 74h1v1h-1zm1 0h1v1h-1zm1 0h1v1h-1z"/><path fill="#FFF" d="M24 74h1v1h-1zm1 0h1v1h-1zm1 0h1v1h-1zm1 0h1v1h-1zm1 0h1v1h-1zm1 0h1v1h-1zm1 0h1v1h-1z"/><path fill="#425284" d="M31 74h1v1h-1z"/><path fill="#393941" d="M32 74h1v1h-1zm1 0h1v1h-1zm1 0h1v1h-1z"/><path fill="#F6E182" d="M35 74h1v1h-1z"/><path fill="#393941" d="M36 74h1v1h-1zm1 0h1v1h-1zm1 0h1v1h-1z"/><path fill="#9CE6FF" d="M39 74h1v1h-1zm1 0h1v1h-1zm1 0h1v1h-1z"/><path fill="#425284" d="M42 74h1v1h-1z"/><path fill="#FFF" d="M43 74h1v1h-1zm1 0h1v1h-1zm1 0h1v1h-1zm1 0h1v1h-1zm1 0h1v1h-1zm1 0h1v1h-1zm1 0h1v1h-1zm1 0h1v1h-1zm1 0h1v1h-1zm1 0h1v1h-1z"/><path fill="#425284" d="M53 74h1v1h-1z"/><path fill="#393941" d="M54 74h1v1h-1zm1 0h1v1h-1zm1 0h1v1h-1z"/><path fill="#F6E182" d="M57 74h1v1h-1z"/><path fill="#393941" d="M58 74h1v1h-1zm1 0h1v1h-1zm1 0h1v1h-1zm1 0h1v1h-1z"/><path fill="#9CE6FF" d="M62 74h1v1h-1zm1 0h1v1h-1z"/><path fill="#425284" d="M64 74h1v1h-1z"/><path fill="#FFF" d="M65 74h1v1h-1zm1 0h1v1h-1zm1 0h1v1h-1zm1 0h1v1h-1zm1 0h1v1h-1zm1 0h1v1h-1zm1 0h1v1h-1z"/><path fill="#B4C5D5" d="M72 74h1v1h-1zm1 0h1v1h-1zm1 0h1v1h-1z"/><path fill="#425284" d="M75 74h1v1h-1z"/><path fill="#FFF" d="M76 74h1v1h-1zm1 0h1v1h-1zm1 0h1v1h-1z"/><path fill="#425284" d="M79 74h1v1h-1zm-63 1h1v1h-1z"/><path fill="#FFF" d="M17 75h1v1h-1zm1 0h1v1h-1zm1 0h1v1h-1zm1 0h1v1h-1z"/><path fill="#425284" d="M21 75h1v1h-1z"/><path fill="#B4C5D5" d="M22 75h1v1h-1zm1 0h1v1h-1zm1 0h1v1h-1z"/><path fill="#FFF" d="M25 75h1v1h-1zm1 0h1v1h-1zm1 0h1v1h-1zm1 0h1v1h-1zm1 0h1v1h-1zm1 0h1v1h-1zm1 0h1v1h-1z"/><path fill="#425284" d="M32 75h1v1h-1z"/><path fill="#393941" d="M33 75h1v1h-1zm1 0h1v1h-1z"/><path fill="#F6E182" d="M35 75h1v1h-1z"/><path fill="#393941" d="M36 75h1v1h-1zm1 0h1v1h-1z"/><path fill="#9CE6FF" d="M38 75h1v1h-1zm1 0h1v1h-1z"/><path fill="#425284" d="M40 75h1v1h-1zm1 0h1v1h-1z"/><path fill="#FFF" d="M42 75h1v1h-1zm1 0h1v1h-1zm1 0h1v1h-1zm1 0h1v1h-1zm1 0h1v1h-1zm1 0h1v1h-1zm1 0h1v1h-1zm1 0h1v1h-1zm1 0h1v1h-1zm1 0h1v1h-1zm1 0h1v1h-1zm1 0h1v1h-1z"/><path fill="#425284" d="M54 75h1v1h-1zm1 0h1v1h-1z"/><path fill="#393941" d="M56 75h1v1h-1z"/><path fill="#F6E182" d="M57 75h1v1h-1z"/><path fill="#393941" d="M58 75h1v1h-1zm1 0h1v1h-1zm1 0h1v1h-1z"/><path fill="#9CE6FF" d="M61 75h1v1h-1zm1 0h1v1h-1z"/><path fill="#425284" d="M63 75h1v1h-1z"/><path fill="#FFF" d="M64 75h1v1h-1zm1 0h1v1h-1zm1 0h1v1h-1zm1 0h1v1h-1zm1 0h1v1h-1zm1 0h1v1h-1zm1 0h1v1h-1z"/><path fill="#B4C5D5" d="M71 75h1v1h-1zm1 0h1v1h-1zm1 0h1v1h-1z"/><path fill="#425284" d="M74 75h1v1h-1z"/><path fill="#FFF" d="M75 75h1v1h-1zm1 0h1v1h-1zm1 0h1v1h-1zm1 0h1v1h-1z"/><path fill="#425284" d="M79 75h1v1h-1zm-63 1h1v1h-1z"/><path fill="#FFF" d="M17 76h1v1h-1zm1 0h1v1h-1zm1 0h1v1h-1zm1 0h1v1h-1z"/><path fill="#425284" d="M21 76h1v1h-1z"/><path fill="#B4C5D5" d="M22 76h1v1h-1zm1 0h1v1h-1zm1 0h1v1h-1zm1 0h1v1h-1z"/><path fill="#FFF" d="M26 76h1v1h-1zm1 0h1v1h-1zm1 0h1v1h-1zm1 0h1v1h-1zm1 0h1v1h-1zm1 0h1v1h-1zm1 0h1v1h-1z"/><path fill="#425284" d="M33 76h1v1h-1zm1 0h1v1h-1zm1 0h1v1h-1zm1 0h1v1h-1zm1 0h1v1h-1zm1 0h1v1h-1zm1 0h1v1h-1z"/><path fill="#FFF" d="M40 76h1v1h-1zm1 0h1v1h-1zm1 0h1v1h-1zm1 0h1v1h-1zm1 0h1v1h-1zm1 0h1v1h-1zm1 0h1v1h-1zm1 0h1v1h-1zm1 0h1v1h-1zm1 0h1v1h-1zm1 0h1v1h-1zm1 0h1v1h-1zm1 0h1v1h-1zm1 0h1v1h-1zm1 0h1v1h-1zm1 0h1v1h-1z"/><path fill="#425284" d="M56 76h1v1h-1zm1 0h1v1h-1zm1 0h1v1h-1zm1 0h1v1h-1zm1 0h1v1h-1zm1 0h1v1h-1zm1 0h1v1h-1z"/><path fill="#FFF" d="M63 76h1v1h-1zm1 0h1v1h-1zm1 0h1v1h-1zm1 0h1v1h-1zm1 0h1v1h-1zm1 0h1v1h-1zm1 0h1v1h-1z"/><path fill="#B4C5D5" d="M70 76h1v1h-1zm1 0h1v1h-1zm1 0h1v1h-1zm1 0h1v1h-1z"/><path fill="#425284" d="M74 76h1v1h-1z"/><path fill="#FFF" d="M75 76h1v1h-1zm1 0h1v1h-1zm1 0h1v1h-1zm1 0h1v1h-1z"/><path fill="#425284" d="M79 76h1v1h-1zm-64 1h1v1h-1z"/><path fill="#FFF" d="M16 77h1v1h-1zm1 0h1v1h-1zm1 0h1v1h-1zm1 0h1v1h-1zm1 0h1v1h-1z"/><path fill="#425284" d="M21 77h1v1h-1z"/><path fill="#B4C5D5" d="M22 77h1v1h-1zm1 0h1v1h-1zm1 0h1v1h-1zm1 0h1v1h-1zm1 0h1v1h-1z"/><path fill="#FFF" d="M27 77h1v1h-1zm1 0h1v1h-1zm1 0h1v1h-1zm1 0h1v1h-1zm1 0h1v1h-1zm1 0h1v1h-1zm1 0h1v1h-1zm1 0h1v1h-1zm1 0h1v1h-1zm1 0h1v1h-1zm1 0h1v1h-1zm1 0h1v1h-1zm1 0h1v1h-1zm1 0h1v1h-1zm1 0h1v1h-1zm1 0h1v1h-1zm1 0h1v1h-1zm1 0h1v1h-1zm1 0h1v1h-1z"/><path fill="#425284" d="M46 77h1v1h-1zm1 0h1v1h-1zm1 0h1v1h-1zm1 0h1v1h-1z"/><path fill="#FFF" d="M50 77h1v1h-1zm1 0h1v1h-1zm1 0h1v1h-1zm1 0h1v1h-1zm1 0h1v1h-1zm1 0h1v1h-1zm1 0h1v1h-1zm1 0h1v1h-1zm1 0h1v1h-1zm1 0h1v1h-1zm1 0h1v1h-1zm1 0h1v1h-1zm1 0h1v1h-1zm1 0h1v1h-1zm1 0h1v1h-1zm1 0h1v1h-1zm1 0h1v1h-1zm1 0h1v1h-1zm1 0h1v1h-1z"/><path fill="#B4C5D5" d="M69 77h1v1h-1zm1 0h1v1h-1zm1 0h1v1h-1zm1 0h1v1h-1zm1 0h1v1h-1z"/><path fill="#425284" d="M74 77h1v1h-1z"/><path fill="#FFF" d="M75 77h1v1h-1zm1 0h1v1h-1zm1 0h1v1h-1zm1 0h1v1h-1zm1 0h1v1h-1z"/><path fill="#425284" d="M80 77h1v1h-1zm-65 1h1v1h-1z"/><path fill="#FFF" d="M16 78h1v1h-1zm1 0h1v1h-1zm1 0h1v1h-1zm1 0h1v1h-1zm1 0h1v1h-1zm1 0h1v1h-1z"/><path fill="#425284" d="M22 78h1v1h-1z"/><path fill="#B4C5D5" d="M23 78h1v1h-1zm1 0h1v1h-1zm1 0h1v1h-1zm1 0h1v1h-1zm1 0h1v1h-1z"/><path fill="#FFF" d="M28 78h1v1h-1zm1 0h1v1h-1zm1 0h1v1h-1zm1 0h1v1h-1zm1 0h1v1h-1zm1 0h1v1h-1zm1 0h1v1h-1zm1 0h1v1h-1zm1 0h1v1h-1zm1 0h1v1h-1zm1 0h1v1h-1zm1 0h1v1h-1zm1 0h1v1h-1zm1 0h1v1h-1zm1 0h1v1h-1zm1 0h1v1h-1zm1 0h1v1h-1zm1 0h1v1h-1z"/><path fill="#425284" d="M46 78h1v1h-1zm1 0h1v1h-1zm1 0h1v1h-1zm1 0h1v1h-1z"/><path fill="#FFF" d="M50 78h1v1h-1zm1 0h1v1h-1zm1 0h1v1h-1zm1 0h1v1h-1zm1 0h1v1h-1zm1 0h1v1h-1zm1 0h1v1h-1zm1 0h1v1h-1zm1 0h1v1h-1zm1 0h1v1h-1zm1 0h1v1h-1zm1 0h1v1h-1zm1 0h1v1h-1zm1 0h1v1h-1zm1 0h1v1h-1zm1 0h1v1h-1zm1 0h1v1h-1zm1 0h1v1h-1z"/><path fill="#B4C5D5" d="M68 78h1v1h-1zm1 0h1v1h-1zm1 0h1v1h-1zm1 0h1v1h-1zm1 0h1v1h-1z"/><path fill="#425284" d="M73 78h1v1h-1z"/><path fill="#FFF" d="M74 78h1v1h-1zm1 0h1v1h-1zm1 0h1v1h-1zm1 0h1v1h-1zm1 0h1v1h-1zm1 0h1v1h-1z"/><path fill="#425284" d="M80 78h1v1h-1zm-65 1h1v1h-1z"/><path fill="#FFF" d="M16 79h1v1h-1zm1 0h1v1h-1zm1 0h1v1h-1zm1 0h1v1h-1zm1 0h1v1h-1zm1 0h1v1h-1zm1 0h1v1h-1z"/><path fill="#425284" d="M23 79h1v1h-1z"/><path fill="#B4C5D5" d="M24 79h1v1h-1zm1 0h1v1h-1zm1 0h1v1h-1zm1 0h1v1h-1zm1 0h1v1h-1z"/><path fill="#FFF" d="M29 79h1v1h-1zm1 0h1v1h-1zm1 0h1v1h-1zm1 0h1v1h-1zm1 0h1v1h-1zm1 0h1v1h-1z"/><path fill="#425284" d="M35 79h1v1h-1zm1 0h1v1h-1zm1 0h1v1h-1zm1 0h1v1h-1zm1 0h1v1h-1z"/><path fill="#FFF" d="M40 79h1v1h-1zm1 0h1v1h-1zm1 0h1v1h-1zm1 0h1v1h-1zm1 0h1v1h-1zm1 0h1v1h-1zm1 0h1v1h-1z"/><path fill="#425284" d="M47 79h1v1h-1zm1 0h1v1h-1z"/><path fill="#FFF" d="M49 79h1v1h-1zm1 0h1v1h-1zm1 0h1v1h-1zm1 0h1v1h-1zm1 0h1v1h-1zm1 0h1v1h-1zm1 0h1v1h-1z"/><path fill="#425284" d="M56 79h1v1h-1zm1 0h1v1h-1zm1 0h1v1h-1zm1 0h1v1h-1zm1 0h1v1h-1z"/><path fill="#FFF" d="M61 79h1v1h-1zm1 0h1v1h-1zm1 0h1v1h-1zm1 0h1v1h-1zm1 0h1v1h-1zm1 0h1v1h-1z"/><path fill="#B4C5D5" d="M67 79h1v1h-1zm1 0h1v1h-1zm1 0h1v1h-1zm1 0h1v1h-1zm1 0h1v1h-1z"/><path fill="#425284" d="M72 79h1v1h-1z"/><path fill="#FFF" d="M73 79h1v1h-1zm1 0h1v1h-1zm1 0h1v1h-1zm1 0h1v1h-1zm1 0h1v1h-1zm1 0h1v1h-1zm1 0h1v1h-1z"/><path fill="#425284" d="M80 79h1v1h-1zm-66 1h1v1h-1z"/><path fill="#FFF" d="M15 80h1v1h-1zm1 0h1v1h-1zm1 0h1v1h-1zm1 0h1v1h-1zm1 0h1v1h-1zm1 0h1v1h-1zm1 0h1v1h-1zm1 0h1v1h-1zm1 0h1v1h-1z"/><path fill="#425284" d="M24 80h1v1h-1z"/><path fill="#B4C5D5" d="M25 80h1v1h-1zm1 0h1v1h-1zm1 0h1v1h-1zm1 0h1v1h-1zm1 0h1v1h-1z"/><path fill="#FFF" d="M30 80h1v1h-1zm1 0h1v1h-1z"/><path fill="#425284" d="M32 80h1v1h-1zm1 0h1v1h-1zm1 0h1v1h-1z"/><path fill="#FFF" d="M35 80h1v1h-1zm1 0h1v1h-1zm1 0h1v1h-1zm1 0h1v1h-1zm1 0h1v1h-1zm1 0h1v1h-1zm1 0h1v1h-1zm1 0h1v1h-1zm1 0h1v1h-1zm1 0h1v1h-1zm1 0h1v1h-1zm1 0h1v1h-1z"/><path fill="#425284" d="M47 80h1v1h-1zm1 0h1v1h-1z"/><path fill="#FFF" d="M49 80h1v1h-1zm1 0h1v1h-1zm1 0h1v1h-1zm1 0h1v1h-1zm1 0h1v1h-1zm1 0h1v1h-1zm1 0h1v1h-1zm1 0h1v1h-1zm1 0h1v1h-1zm1 0h1v1h-1zm1 0h1v1h-1zm1 0h1v1h-1z"/><path fill="#425284" d="M61 80h1v1h-1zm1 0h1v1h-1zm1 0h1v1h-1z"/><path fill="#FFF" d="M64 80h1v1h-1zm1 0h1v1h-1z"/><path fill="#B4C5D5" d="M66 80h1v1h-1zm1 0h1v1h-1zm1 0h1v1h-1zm1 0h1v1h-1zm1 0h1v1h-1z"/><path fill="#425284" d="M71 80h1v1h-1z"/><path fill="#FFF" d="M72 80h1v1h-1zm1 0h1v1h-1zm1 0h1v1h-1zm1 0h1v1h-1zm1 0h1v1h-1zm1 0h1v1h-1zm1 0h1v1h-1zm1 0h1v1h-1zm1 0h1v1h-1z"/><path fill="#425284" d="M81 80h1v1h-1zm-67 1h1v1h-1z"/><path fill="#FFF" d="M15 81h1v1h-1zm1 0h1v1h-1zm1 0h1v1h-1zm1 0h1v1h-1zm1 0h1v1h-1zm1 0h1v1h-1z"/><path fill="#425284" d="M21 81h1v1h-1zm1 0h1v1h-1zm1 0h1v1h-1zm1 0h1v1h-1zm1 0h1v1h-1zm1 0h1v1h-1zm1 0h1v1h-1zm1 0h1v1h-1z"/><path fill="#B4C5D5" d="M29 81h1v1h-1z"/><path fill="#425284" d="M30 81h1v1h-1zm1 0h1v1h-1z"/><path fill="#FFF" d="M32 81h1v1h-1zm1 0h1v1h-1zm1 0h1v1h-1zm1 0h1v1h-1zm1 0h1v1h-1zm1 0h1v1h-1zm1 0h1v1h-1z"/><path fill="#425284" d="M39 81h1v1h-1zm1 0h1v1h-1zm1 0h1v1h-1z"/><path fill="#FFF" d="M42 81h1v1h-1zm1 0h1v1h-1zm1 0h1v1h-1zm1 0h1v1h-1z"/><path fill="#425284" d="M46 81h1v1h-1z"/><path fill="#EA8377" d="M47 81h1v1h-1zm1 0h1v1h-1z"/><path fill="#425284" d="M49 81h1v1h-1z"/><path fill="#FFF" d="M50 81h1v1h-1zm1 0h1v1h-1zm1 0h1v1h-1zm1 0h1v1h-1z"/><path fill="#425284" d="M54 81h1v1h-1zm1 0h1v1h-1zm1 0h1v1h-1z"/><path fill="#FFF" d="M57 81h1v1h-1zm1 0h1v1h-1zm1 0h1v1h-1zm1 0h1v1h-1zm1 0h1v1h-1zm1 0h1v1h-1zm1 0h1v1h-1z"/><path fill="#425284" d="M64 81h1v1h-1zm1 0h1v1h-1z"/><path fill="#B4C5D5" d="M66 81h1v1h-1z"/><path fill="#425284" d="M67 81h1v1h-1zm1 0h1v1h-1zm1 0h1v1h-1zm1 0h1v1h-1zm1 0h1v1h-1zm1 0h1v1h-1zm1 0h1v1h-1zm1 0h1v1h-1z"/><path fill="#FFF" d="M75 81h1v1h-1zm1 0h1v1h-1zm1 0h1v1h-1zm1 0h1v1h-1zm1 0h1v1h-1zm1 0h1v1h-1z"/><path fill="#425284" d="M81 81h1v1h-1zm-67 1h1v1h-1z"/><path fill="#FFF" d="M15 82h1v1h-1zm1 0h1v1h-1zm1 0h1v1h-1z"/><path fill="#425284" d="M18 82h1v1h-1zm1 0h1v1h-1zm1 0h1v1h-1z"/><path fill="#FFF" d="M21 82h1v1h-1zm1 0h1v1h-1zm1 0h1v1h-1zm1 0h1v1h-1zm1 0h1v1h-1zm1 0h1v1h-1zm1 0h1v1h-1zm1 0h1v1h-1z"/><path fill="#425284" d="M29 82h1v1h-1zm1 0h1v1h-1zm1 0h1v1h-1z"/><path fill="#B4C5D5" d="M32 82h1v1h-1z"/><path fill="#FFF" d="M33 82h1v1h-1zm1 0h1v1h-1zm1 0h1v1h-1zm1 0h1v1h-1z"/><path fill="#425284" d="M37 82h1v1h-1zm1 0h1v1h-1z"/><path fill="#FFF" d="M39 82h1v1h-1zm1 0h1v1h-1zm1 0h1v1h-1zm1 0h1v1h-1zm1 0h1v1h-1zm1 0h1v1h-1z"/><path fill="#425284" d="M45 82h1v1h-1z"/><path fill="#EA8377" d="M46 82h1v1h-1zm1 0h1v1h-1zm1 0h1v1h-1zm1 0h1v1h-1z"/><path fill="#425284" d="M50 82h1v1h-1z"/><path fill="#FFF" d="M51 82h1v1h-1zm1 0h1v1h-1zm1 0h1v1h-1zm1 0h1v1h-1zm1 0h1v1h-1zm1 0h1v1h-1z"/><path fill="#425284" d="M57 82h1v1h-1zm1 0h1v1h-1z"/><path fill="#FFF" d="M59 82h1v1h-1zm1 0h1v1h-1zm1 0h1v1h-1zm1 0h1v1h-1z"/><path fill="#B4C5D5" d="M63 82h1v1h-1z"/><path fill="#425284" d="M64 82h1v1h-1zm1 0h1v1h-1zm1 0h1v1h-1z"/><path fill="#FFF" d="M67 82h1v1h-1zm1 0h1v1h-1zm1 0h1v1h-1zm1 0h1v1h-1zm1 0h1v1h-1zm1 0h1v1h-1zm1 0h1v1h-1zm1 0h1v1h-1z"/><path fill="#425284" d="M75 82h1v1h-1zm1 0h1v1h-1zm1 0h1v1h-1z"/><path fill="#FFF" d="M78 82h1v1h-1zm1 0h1v1h-1zm1 0h1v1h-1z"/><path fill="#425284" d="M81 82h1v1h-1zm-67 1h1v1h-1z"/><path fill="#FFF" d="M15 83h1v1h-1zm1 0h1v1h-1z"/><path fill="#425284" d="M17 83h1v1h-1z"/><path fill="#FFF" d="M18 83h1v1h-1zm1 0h1v1h-1zm1 0h1v1h-1zm1 0h1v1h-1zm1 0h1v1h-1zm1 0h1v1h-1zm1 0h1v1h-1zm1 0h1v1h-1zm1 0h1v1h-1zm1 0h1v1h-1z"/><path fill="#425284" d="M28 83h1v1h-1z"/><path fill="#FFF" d="M29 83h1v1h-1zm1 0h1v1h-1zm1 0h1v1h-1z"/><path fill="#425284" d="M32 83h1v1h-1zm1 0h1v1h-1z"/><path fill="#B4C5D5" d="M34 83h1v1h-1z"/><path fill="#425284" d="M35 83h1v1h-1zm1 0h1v1h-1z"/><path fill="#FFF" d="M37 83h1v1h-1zm1 0h1v1h-1zm1 0h1v1h-1zm1 0h1v1h-1zm1 0h1v1h-1zm1 0h1v1h-1zm1 0h1v1h-1z"/><path fill="#425284" d="M44 83h1v1h-1z"/><path fill="#EA8377" d="M45 83h1v1h-1zm1 0h1v1h-1zm1 0h1v1h-1zm1 0h1v1h-1zm1 0h1v1h-1zm1 0h1v1h-1z"/><path fill="#425284" d="M51 83h1v1h-1z"/><path fill="#FFF" d="M52 83h1v1h-1zm1 0h1v1h-1zm1 0h1v1h-1zm1 0h1v1h-1zm1 0h1v1h-1zm1 0h1v1h-1zm1 0h1v1h-1z"/><path fill="#425284" d="M59 83h1v1h-1zm1 0h1v1h-1z"/><path fill="#B4C5D5" d="M61 83h1v1h-1z"/><path fill="#425284" d="M62 83h1v1h-1zm1 0h1v1h-1z"/><path fill="#FFF" d="M64 83h1v1h-1zm1 0h1v1h-1zm1 0h1v1h-1z"/><path fill="#425284" d="M67 83h1v1h-1z"/><path fill="#FFF" d="M68 83h1v1h-1zm1 0h1v1h-1zm1 0h1v1h-1zm1 0h1v1h-1zm1 0h1v1h-1zm1 0h1v1h-1zm1 0h1v1h-1zm1 0h1v1h-1zm1 0h1v1h-1zm1 0h1v1h-1z"/><path fill="#425284" d="M78 83h1v1h-1z"/><path fill="#FFF" d="M79 83h1v1h-1zm1 0h1v1h-1z"/><path fill="#425284" d="M81 83h1v1h-1zm-67 1h1v1h-1z"/><path fill="#FFF" d="M15 84h1v1h-1z"/><path fill="#425284" d="M16 84h1v1h-1z"/><path fill="#FFF" d="M17 84h1v1h-1zm1 0h1v1h-1zm1 0h1v1h-1zm1 0h1v1h-1zm1 0h1v1h-1zm1 0h1v1h-1zm1 0h1v1h-1zm1 0h1v1h-1zm1 0h1v1h-1zm1 0h1v1h-1zm1 0h1v1h-1zm1 0h1v1h-1zm1 0h1v1h-1zm1 0h1v1h-1zm1 0h1v1h-1zm1 0h1v1h-1zm1 0h1v1h-1z"/><path fill="#425284" d="M34 84h1v1h-1z"/><path fill="#B4C5D5" d="M35 84h1v1h-1zm1 0h1v1h-1zm1 0h1v1h-1z"/><path fill="#FFF" d="M38 84h1v1h-1zm1 0h1v1h-1zm1 0h1v1h-1zm1 0h1v1h-1zm1 0h1v1h-1z"/><path fill="#425284" d="M43 84h1v1h-1z"/><path fill="#FFF" d="M44 84h1v1h-1z"/><path fill="#425284" d="M45 84h1v1h-1z"/><path fill="#EA8377" d="M46 84h1v1h-1zm1 0h1v1h-1zm1 0h1v1h-1zm1 0h1v1h-1z"/><path fill="#425284" d="M50 84h1v1h-1z"/><path fill="#FFF" d="M51 84h1v1h-1z"/><path fill="#425284" d="M52 84h1v1h-1z"/><path fill="#FFF" d="M53 84h1v1h-1zm1 0h1v1h-1zm1 0h1v1h-1zm1 0h1v1h-1zm1 0h1v1h-1z"/><path fill="#B4C5D5" d="M58 84h1v1h-1zm1 0h1v1h-1zm1 0h1v1h-1z"/><path fill="#425284" d="M61 84h1v1h-1z"/><path fill="#FFF" d="M62 84h1v1h-1zm1 0h1v1h-1zm1 0h1v1h-1zm1 0h1v1h-1zm1 0h1v1h-1zm1 0h1v1h-1zm1 0h1v1h-1zm1 0h1v1h-1zm1 0h1v1h-1zm1 0h1v1h-1zm1 0h1v1h-1zm1 0h1v1h-1zm1 0h1v1h-1zm1 0h1v1h-1zm1 0h1v1h-1zm1 0h1v1h-1zm1 0h1v1h-1z"/><path fill="#425284" d="M79 84h1v1h-1z"/><path fill="#FFF" d="M80 84h1v1h-1z"/><path fill="#425284" d="M81 84h1v1h-1zm-66 1h1v1h-1zm1 0h1v1h-1z"/><path fill="#FFF" d="M17 85h1v1h-1zm1 0h1v1h-1zm1 0h1v1h-1zm1 0h1v1h-1zm1 0h1v1h-1zm1 0h1v1h-1zm1 0h1v1h-1zm1 0h1v1h-1zm1 0h1v1h-1zm1 0h1v1h-1zm1 0h1v1h-1zm1 0h1v1h-1zm1 0h1v1h-1zm1 0h1v1h-1zm1 0h1v1h-1zm1 0h1v1h-1z"/><path fill="#425284" d="M33 85h1v1h-1z"/><path fill="#FFF" d="M34 85h1v1h-1z"/><path fill="#425284" d="M35 85h1v1h-1z"/><path fill="#B4C5D5" d="M36 85h1v1h-1zm1 0h1v1h-1zm1 0h1v1h-1zm1 0h1v1h-1zm1 0h1v1h-1z"/><path fill="#FFF" d="M41 85h1v1h-1zm1 0h1v1h-1zm1 0h1v1h-1zm1 0h1v1h-1zm1 0h1v1h-1z"/><path fill="#425284" d="M46 85h1v1h-1zm1 0h1v1h-1zm1 0h1v1h-1zm1 0h1v1h-1z"/><path fill="#FFF" d="M50 85h1v1h-1zm1 0h1v1h-1zm1 0h1v1h-1zm1 0h1v1h-1zm1 0h1v1h-1z"/><path fill="#B4C5D5" d="M55 85h1v1h-1zm1 0h1v1h-1zm1 0h1v1h-1zm1 0h1v1h-1zm1 0h1v1h-1z"/><path fill="#425284" d="M60 85h1v1h-1z"/><path fill="#FFF" d="M61 85h1v1h-1z"/><path fill="#425284" d="M62 85h1v1h-1z"/><path fill="#FFF" d="M63 85h1v1h-1zm1 0h1v1h-1zm1 0h1v1h-1zm1 0h1v1h-1zm1 0h1v1h-1zm1 0h1v1h-1zm1 0h1v1h-1zm1 0h1v1h-1zm1 0h1v1h-1zm1 0h1v1h-1zm1 0h1v1h-1zm1 0h1v1h-1zm1 0h1v1h-1zm1 0h1v1h-1zm1 0h1v1h-1zm1 0h1v1h-1z"/><path fill="#425284" d="M79 85h1v1h-1zm1 0h1v1h-1zm-66 1h1v1h-1zm1 0h1v1h-1z"/><path fill="#FFF" d="M16 86h1v1h-1zm1 0h1v1h-1zm1 0h1v1h-1zm1 0h1v1h-1z"/><path fill="#425284" d="M20 86h1v1h-1z"/><path fill="#FFF" d="M21 86h1v1h-1zm1 0h1v1h-1zm1 0h1v1h-1zm1 0h1v1h-1zm1 0h1v1h-1zm1 0h1v1h-1zm1 0h1v1h-1zm1 0h1v1h-1zm1 0h1v1h-1zm1 0h1v1h-1z"/><path fill="#425284" d="M31 86h1v1h-1z"/><path fill="#FFF" d="M32 86h1v1h-1zm1 0h1v1h-1zm1 0h1v1h-1zm1 0h1v1h-1z"/><path fill="#425284" d="M36 86h1v1h-1z"/><path fill="#B4C5D5" d="M37 86h1v1h-1zm1 0h1v1h-1zm1 0h1v1h-1zm1 0h1v1h-1zm1 0h1v1h-1zm1 0h1v1h-1zm1 0h1v1h-1zm1 0h1v1h-1zm1 0h1v1h-1zm1 0h1v1h-1zm1 0h1v1h-1zm1 0h1v1h-1zm1 0h1v1h-1zm1 0h1v1h-1zm1 0h1v1h-1zm1 0h1v1h-1zm1 0h1v1h-1zm1 0h1v1h-1zm1 0h1v1h-1zm1 0h1v1h-1zm1 0h1v1h-1zm1 0h1v1h-1z"/><path fill="#425284" d="M59 86h1v1h-1z"/><path fill="#FFF" d="M60 86h1v1h-1zm1 0h1v1h-1zm1 0h1v1h-1zm1 0h1v1h-1z"/><path fill="#425284" d="M64 86h1v1h-1z"/><path fill="#FFF" d="M65 86h1v1h-1zm1 0h1v1h-1zm1 0h1v1h-1zm1 0h1v1h-1zm1 0h1v1h-1zm1 0h1v1h-1zm1 0h1v1h-1zm1 0h1v1h-1zm1 0h1v1h-1zm1 0h1v1h-1z"/><path fill="#425284" d="M75 86h1v1h-1z"/><path fill="#FFF" d="M76 86h1v1h-1zm1 0h1v1h-1zm1 0h1v1h-1zm1 0h1v1h-1z"/><path fill="#425284" d="M80 86h1v1h-1zm1 0h1v1h-1zm-67 1h1v1h-1z"/><path fill="#FFF" d="M15 87h1v1h-1zm1 0h1v1h-1zm1 0h1v1h-1zm1 0h1v1h-1z"/><path fill="#425284" d="M19 87h1v1h-1z"/><path fill="#FFF" d="M20 87h1v1h-1zm1 0h1v1h-1zm1 0h1v1h-1zm1 0h1v1h-1zm1 0h1v1h-1zm1 0h1v1h-1zm1 0h1v1h-1zm1 0h1v1h-1zm1 0h1v1h-1zm1 0h1v1h-1zm1 0h1v1h-1zm1 0h1v1h-1z"/><path fill="#425284" d="M32 87h1v1h-1z"/><path fill="#FFF" d="M33 87h1v1h-1zm1 0h1v1h-1zm1 0h1v1h-1zm1 0h1v1h-1z"/><path fill="#425284" d="M37 87h1v1h-1zm1 0h1v1h-1zm1 0h1v1h-1zm1 0h1v1h-1zm1 0h1v1h-1zm1 0h1v1h-1z"/><path fill="#B4C5D5" d="M43 87h1v1h-1zm1 0h1v1h-1zm1 0h1v1h-1zm1 0h1v1h-1zm1 0h1v1h-1zm1 0h1v1h-1zm1 0h1v1h-1zm1 0h1v1h-1zm1 0h1v1h-1zm1 0h1v1h-1z"/><path fill="#425284" d="M53 87h1v1h-1zm1 0h1v1h-1zm1 0h1v1h-1zm1 0h1v1h-1zm1 0h1v1h-1zm1 0h1v1h-1z"/><path fill="#FFF" d="M59 87h1v1h-1zm1 0h1v1h-1zm1 0h1v1h-1zm1 0h1v1h-1z"/><path fill="#425284" d="M63 87h1v1h-1z"/><path fill="#FFF" d="M64 87h1v1h-1zm1 0h1v1h-1zm1 0h1v1h-1zm1 0h1v1h-1zm1 0h1v1h-1zm1 0h1v1h-1zm1 0h1v1h-1zm1 0h1v1h-1zm1 0h1v1h-1zm1 0h1v1h-1zm1 0h1v1h-1zm1 0h1v1h-1z"/><path fill="#425284" d="M76 87h1v1h-1z"/><path fill="#FFF" d="M77 87h1v1h-1zm1 0h1v1h-1zm1 0h1v1h-1zm1 0h1v1h-1z"/><path fill="#425284" d="M81 87h1v1h-1zm-67 1h1v1h-1z"/><path fill="#FFF" d="M15 88h1v1h-1zm1 0h1v1h-1zm1 0h1v1h-1zm1 0h1v1h-1z"/><path fill="#425284" d="M19 88h1v1h-1z"/><path fill="#FFF" d="M20 88h1v1h-1zm1 0h1v1h-1zm1 0h1v1h-1zm1 0h1v1h-1zm1 0h1v1h-1zm1 0h1v1h-1zm1 0h1v1h-1zm1 0h1v1h-1zm1 0h1v1h-1zm1 0h1v1h-1zm1 0h1v1h-1zm1 0h1v1h-1z"/><path fill="#425284" d="M32 88h1v1h-1z"/><path fill="#FFF" d="M33 88h1v1h-1zm1 0h1v1h-1zm1 0h1v1h-1zm1 0h1v1h-1z"/><path fill="#425284" d="M37 88h1v1h-1zm5 0h1v1h-1zm1 0h1v1h-1zm1 0h1v1h-1zm1 0h1v1h-1zm1 0h1v1h-1zm1 0h1v1h-1zm1 0h1v1h-1zm1 0h1v1h-1zm1 0h1v1h-1zm1 0h1v1h-1zm1 0h1v1h-1zm1 0h1v1h-1zm5 0h1v1h-1z"/><path fill="#FFF" d="M59 88h1v1h-1zm1 0h1v1h-1zm1 0h1v1h-1zm1 0h1v1h-1z"/><path fill="#425284" d="M63 88h1v1h-1z"/><path fill="#FFF" d="M64 88h1v1h-1zm1 0h1v1h-1zm1 0h1v1h-1zm1 0h1v1h-1zm1 0h1v1h-1zm1 0h1v1h-1zm1 0h1v1h-1zm1 0h1v1h-1zm1 0h1v1h-1zm1 0h1v1h-1zm1 0h1v1h-1zm1 0h1v1h-1z"/><path fill="#425284" d="M76 88h1v1h-1z"/><path fill="#FFF" d="M77 88h1v1h-1zm1 0h1v1h-1zm1 0h1v1h-1zm1 0h1v1h-1z"/><path fill="#425284" d="M81 88h1v1h-1zm-67 1h1v1h-1z"/><path fill="#FFF" d="M15 89h1v1h-1zm1 0h1v1h-1zm1 0h1v1h-1z"/><path fill="#425284" d="M18 89h1v1h-1z"/><path fill="#FFF" d="M19 89h1v1h-1zm1 0h1v1h-1zm1 0h1v1h-1zm1 0h1v1h-1zm1 0h1v1h-1zm1 0h1v1h-1zm1 0h1v1h-1zm1 0h1v1h-1zm1 0h1v1h-1zm1 0h1v1h-1zm1 0h1v1h-1zm1 0h1v1h-1zm1 0h1v1h-1zm1 0h1v1h-1z"/><path fill="#425284" d="M33 89h1v1h-1z"/><path fill="#FFF" d="M34 89h1v1h-1zm1 0h1v1h-1zm1 0h1v1h-1z"/><path fill="#425284" d="M37 89h1v1h-1zm21 0h1v1h-1z"/><path fill="#FFF" d="M59 89h1v1h-1zm1 0h1v1h-1zm1 0h1v1h-1z"/><path fill="#425284" d="M62 89h1v1h-1z"/><path fill="#FFF" d="M63 89h1v1h-1zm1 0h1v1h-1zm1 0h1v1h-1zm1 0h1v1h-1zm1 0h1v1h-1zm1 0h1v1h-1zm1 0h1v1h-1zm1 0h1v1h-1zm1 0h1v1h-1zm1 0h1v1h-1zm1 0h1v1h-1zm1 0h1v1h-1zm1 0h1v1h-1zm1 0h1v1h-1z"/><path fill="#425284" d="M77 89h1v1h-1z"/><path fill="#FFF" d="M78 89h1v1h-1zm1 0h1v1h-1zm1 0h1v1h-1z"/><path fill="#425284" d="M81 89h1v1h-1zm-67 1h1v1h-1z"/><path fill="#FFF" d="M15 90h1v1h-1zm1 0h1v1h-1zm1 0h1v1h-1z"/><path fill="#425284" d="M18 90h1v1h-1z"/><path fill="#B4C5D5" d="M19 90h1v1h-1z"/><path fill="#FFF" d="M20 90h1v1h-1zm1 0h1v1h-1zm1 0h1v1h-1zm1 0h1v1h-1zm1 0h1v1h-1zm1 0h1v1h-1zm1 0h1v1h-1zm1 0h1v1h-1zm1 0h1v1h-1zm1 0h1v1h-1zm1 0h1v1h-1zm1 0h1v1h-1zm1 0h1v1h-1z"/><path fill="#425284" d="M33 90h1v1h-1z"/><path fill="#FFF" d="M34 90h1v1h-1zm1 0h1v1h-1zm1 0h1v1h-1z"/><path fill="#425284" d="M37 90h1v1h-1zm21 0h1v1h-1z"/><path fill="#FFF" d="M59 90h1v1h-1zm1 0h1v1h-1zm1 0h1v1h-1z"/><path fill="#425284" d="M62 90h1v1h-1z"/><path fill="#FFF" d="M63 90h1v1h-1zm1 0h1v1h-1zm1 0h1v1h-1zm1 0h1v1h-1zm1 0h1v1h-1zm1 0h1v1h-1zm1 0h1v1h-1zm1 0h1v1h-1zm1 0h1v1h-1zm1 0h1v1h-1zm1 0h1v1h-1zm1 0h1v1h-1zm1 0h1v1h-1z"/><path fill="#B4C5D5" d="M76 90h1v1h-1z"/><path fill="#425284" d="M77 90h1v1h-1z"/><path fill="#FFF" d="M78 90h1v1h-1zm1 0h1v1h-1zm1 0h1v1h-1z"/><path fill="#425284" d="M81 90h1v1h-1zm-67 1h1v1h-1z"/><path fill="#FFF" d="M15 91h1v1h-1z"/><path fill="#B4C5D5" d="M16 91h1v1h-1zm1 0h1v1h-1z"/><path fill="#425284" d="M18 91h1v1h-1z"/><path fill="#B4C5D5" d="M19 91h1v1h-1zm1 0h1v1h-1zm1 0h1v1h-1z"/><path fill="#FFF" d="M22 91h1v1h-1zm1 0h1v1h-1zm1 0h1v1h-1zm1 0h1v1h-1zm1 0h1v1h-1zm1 0h1v1h-1zm1 0h1v1h-1zm1 0h1v1h-1zm1 0h1v1h-1zm1 0h1v1h-1z"/><path fill="#B4C5D5" d="M32 91h1v1h-1z"/><path fill="#425284" d="M33 91h1v1h-1z"/><path fill="#FFF" d="M34 91h1v1h-1zm1 0h1v1h-1zm1 0h1v1h-1z"/><path fill="#425284" d="M37 91h1v1h-1zm21 0h1v1h-1z"/><path fill="#FFF" d="M59 91h1v1h-1zm1 0h1v1h-1zm1 0h1v1h-1z"/><path fill="#425284" d="M62 91h1v1h-1z"/><path fill="#B4C5D5" d="M63 91h1v1h-1z"/><path fill="#FFF" d="M64 91h1v1h-1zm1 0h1v1h-1zm1 0h1v1h-1zm1 0h1v1h-1zm1 0h1v1h-1zm1 0h1v1h-1zm1 0h1v1h-1zm1 0h1v1h-1zm1 0h1v1h-1zm1 0h1v1h-1z"/><path fill="#B4C5D5" d="M74 91h1v1h-1zm1 0h1v1h-1zm1 0h1v1h-1z"/><path fill="#425284" d="M77 91h1v1h-1z"/><path fill="#B4C5D5" d="M78 91h1v1h-1zm1 0h1v1h-1z"/><path fill="#FFF" d="M80 91h1v1h-1z"/><path fill="#425284" d="M81 91h1v1h-1zm-66 1h1v1h-1z"/><path fill="#B4C5D5" d="M16 92h1v1h-1zm1 0h1v1h-1zm1 0h1v1h-1z"/><path fill="#425284" d="M19 92h1v1h-1z"/><path fill="#B4C5D5" d="M20 92h1v1h-1zm1 0h1v1h-1zm1 0h1v1h-1zm1 0h1v1h-1z"/><path fill="#FFF" d="M24 92h1v1h-1zm1 0h1v1h-1zm1 0h1v1h-1zm1 0h1v1h-1zm1 0h1v1h-1zm1 0h1v1h-1z"/><path fill="#B4C5D5" d="M30 92h1v1h-1zm1 0h1v1h-1z"/><path fill="#425284" d="M32 92h1v1h-1z"/><path fill="#B4C5D5" d="M33 92h1v1h-1zm1 0h1v1h-1z"/><path fill="#FFF" d="M35 92h1v1h-1z"/><path fill="#425284" d="M36 92h1v1h-1zm23 0h1v1h-1z"/><path fill="#FFF" d="M60 92h1v1h-1z"/><path fill="#B4C5D5" d="M61 92h1v1h-1zm1 0h1v1h-1z"/><path fill="#425284" d="M63 92h1v1h-1z"/><path fill="#B4C5D5" d="M64 92h1v1h-1zm1 0h1v1h-1z"/><path fill="#FFF" d="M66 92h1v1h-1zm1 0h1v1h-1zm1 0h1v1h-1zm1 0h1v1h-1zm1 0h1v1h-1zm1 0h1v1h-1z"/><path fill="#B4C5D5" d="M72 92h1v1h-1zm1 0h1v1h-1zm1 0h1v1h-1zm1 0h1v1h-1z"/><path fill="#425284" d="M76 92h1v1h-1z"/><path fill="#B4C5D5" d="M77 92h1v1h-1zm1 0h1v1h-1zm1 0h1v1h-1z"/><path fill="#425284" d="M80 92h1v1h-1zm-64 1h1v1h-1z"/><path fill="#B4C5D5" d="M17 93h1v1h-1zm1 0h1v1h-1z"/><path fill="#425284" d="M19 93h1v1h-1z"/><path fill="#B4C5D5" d="M20 93h1v1h-1zm1 0h1v1h-1zm1 0h1v1h-1zm1 0h1v1h-1zm1 0h1v1h-1zm1 0h1v1h-1zm1 0h1v1h-1zm1 0h1v1h-1zm1 0h1v1h-1zm1 0h1v1h-1zm1 0h1v1h-1zm1 0h1v1h-1z"/><path fill="#425284" d="M32 93h1v1h-1zm1 0h1v1h-1zm1 0h1v1h-1zm1 0h1v1h-1zm25 0h1v1h-1zm1 0h1v1h-1zm1 0h1v1h-1zm1 0h1v1h-1z"/><path fill="#B4C5D5" d="M64 93h1v1h-1zm1 0h1v1h-1zm1 0h1v1h-1zm1 0h1v1h-1zm1 0h1v1h-1zm1 0h1v1h-1zm1 0h1v1h-1zm1 0h1v1h-1zm1 0h1v1h-1zm1 0h1v1h-1zm1 0h1v1h-1zm1 0h1v1h-1z"/><path fill="#425284" d="M76 93h1v1h-1z"/><path fill="#B4C5D5" d="M77 93h1v1h-1zm1 0h1v1h-1z"/><path fill="#425284" d="M79 93h1v1h-1zm-62 1h1v1h-1zm1 0h1v1h-1zm1 0h1v1h-1zm1 0h1v1h-1zm1 0h1v1h-1z"/><path fill="#B4C5D5" d="M22 94h1v1h-1zm1 0h1v1h-1zm1 0h1v1h-1zm1 0h1v1h-1zm1 0h1v1h-1zm1 0h1v1h-1zm1 0h1v1h-1z"/><path fill="#425284" d="M29 94h1v1h-1zm1 0h1v1h-1zm1 0h1v1h-1zm33 0h1v1h-1zm1 0h1v1h-1zm1 0h1v1h-1z"/><path fill="#B4C5D5" d="M67 94h1v1h-1zm1 0h1v1h-1zm1 0h1v1h-1zm1 0h1v1h-1zm1 0h1v1h-1zm1 0h1v1h-1zm1 0h1v1h-1z"/><path fill="#425284" d="M74 94h1v1h-1zm1 0h1v1h-1zm1 0h1v1h-1zm1 0h1v1h-1zm1 0h1v1h-1zm-56 1h1v1h-1zm1 0h1v1h-1zm1 0h1v1h-1zm1 0h1v1h-1zm1 0h1v1h-1zm1 0h1v1h-1zm1 0h1v1h-1zm39 0h1v1h-1zm1 0h1v1h-1zm1 0h1v1h-1zm1 0h1v1h-1zm1 0h1v1h-1zm1 0h1v1h-1zm1 0h1v1h-1z"/></svg>