<svg width="258" height="272" fill="none" xmlns="http://www.w3.org/2000/svg"><g clip-path="url(#a)"><path fill="#fff" d="M-35-1h300v300H-35z"/><g clip-path="url(#b)"><path d="M273.811.37H-138V903h411.811V.37Z" fill="#B8B2EA"/><path d="M-138 13.467h417m-417 15.198h417m-417 15.262h417m-417 15.198h417m-417 15.261h417m-417 15.199h417m-417 15.265h417m-417 15.198h417m-417 15.261h417m-417 15.198h417m-417 15.262h417m-417 15.198h417m-417 15.265h417m-417 15.198h417m-417 15.262h417m-417 15.198h417m-417 15.265h417m-417 15.198h417M.073 0v902.629M15.27 0v902.629M30.468 0v902.629M45.666 0v902.629M60.863 0v902.629M76.06 0v902.629M91.257 0v902.629M106.455 0v902.629M121.652 0v902.629M136.849 0v902.629M152.047 0v902.629M167.244 0v902.629M182.441 0v902.629M197.639 0v902.629M212.836 0v902.629M228.033 0v902.629M243.23 0v902.629M258.428 0v902.629" stroke="#E3DCF9" stroke-miterlimit="10"/></g></g><defs><clipPath id="a"><path fill="#fff" transform="translate(-35 -1)" d="M0 0h300v300H0z"/></clipPath><clipPath id="b"><path fill="#fff" transform="translate(-138)" d="M0 0h417v903H0z"/></clipPath></defs></svg>