<svg id="svg" version="1.1" xmlns="http://www.w3.org/2000/svg" xmlns:xlink="http://www.w3.org/1999/xlink" width="400" height="392.33926128590974" viewBox="0, 0, 400,392.33926128590974"><g id="svgg"><path id="path0" d="M0.000 196.170 L 0.000 392.339 200.000 392.339 L 400.000 392.339 400.000 196.170 L 400.000 0.000 200.000 0.000 L 0.000 0.000 0.000 196.170 M210.944 208.741 C 210.944 209.816,210.947 209.820,211.745 209.542 C 213.390 208.968,214.227 210.093,214.227 212.877 C 214.227 214.427,214.196 214.501,213.543 214.501 C 212.880 214.501,212.859 214.444,212.859 212.615 C 212.859 210.598,212.651 210.292,211.560 210.697 C 211.007 210.903,210.944 211.110,210.944 212.713 C 210.944 214.318,210.888 214.501,210.397 214.501 C 209.879 214.501,209.850 214.318,209.850 211.081 C 209.850 207.843,209.879 207.661,210.397 207.661 C 210.852 207.661,210.944 207.843,210.944 208.741 M227.367 209.644 L 227.375 211.628 228.328 210.602 C 229.179 209.687,229.427 209.576,230.615 209.576 L 231.947 209.576 232.584 211.143 L 233.220 212.711 233.889 211.143 C 234.426 209.884,234.681 209.576,235.187 209.576 L 235.817 209.576 234.974 211.560 C 233.005 216.190,232.881 216.416,232.300 216.416 C 231.626 216.416,231.631 216.463,232.168 215.179 C 232.560 214.239,231.727 211.172,230.724 209.867 C 230.674 209.802,230.142 210.228,229.542 210.814 L 228.451 211.879 229.742 213.190 L 231.033 214.501 230.205 214.501 C 229.643 214.501,229.125 214.238,228.591 213.680 C 228.158 213.228,227.705 212.859,227.582 212.859 C 227.460 212.859,227.360 213.228,227.360 213.680 C 227.360 214.318,227.238 214.501,226.813 214.501 C 226.295 214.501,226.265 214.318,226.265 211.081 C 226.265 207.843,226.295 207.661,226.813 207.661 C 227.309 207.661,227.360 207.846,227.367 209.644 M169.357 208.482 C 169.357 208.968,169.175 209.029,167.715 209.029 C 166.147 209.029,166.074 209.059,166.074 209.713 C 166.074 210.351,166.165 210.397,167.442 210.397 C 168.627 210.397,168.810 210.470,168.810 210.944 C 168.810 211.418,168.627 211.491,167.442 211.491 L 166.074 211.491 166.074 212.996 C 166.074 214.419,166.037 214.501,165.390 214.501 L 164.706 214.501 164.706 211.400 C 164.706 207.712,164.545 207.934,167.214 207.934 C 169.175 207.934,169.357 207.981,169.357 208.482 M176.436 209.605 C 178.547 210.341,178.352 214.164,176.179 214.642 C 173.253 215.284,171.872 210.696,174.653 209.574 C 175.436 209.258,175.440 209.258,176.436 209.605 M182.900 209.677 C 183.201 209.672,183.763 209.578,184.149 209.468 C 185.486 209.088,186.096 209.961,186.143 212.323 C 186.181 214.245,186.148 214.369,185.568 214.451 C 184.980 214.535,184.952 214.453,184.952 212.634 C 184.952 210.597,184.746 210.291,183.653 210.697 C 183.100 210.903,183.037 211.110,183.037 212.713 C 183.037 214.318,182.981 214.501,182.490 214.501 C 181.995 214.501,181.943 214.318,181.943 212.615 C 181.943 210.598,181.735 210.292,180.643 210.697 C 180.091 210.903,180.027 211.110,180.027 212.713 C 180.027 214.318,179.972 214.501,179.480 214.501 C 178.974 214.501,178.933 214.318,178.933 212.047 L 178.933 209.593 179.892 209.629 C 180.419 209.648,180.933 209.582,181.035 209.480 C 181.136 209.379,181.474 209.384,181.786 209.491 C 182.098 209.598,182.599 209.682,182.900 209.677 M198.495 209.677 C 198.796 209.672,199.358 209.578,199.744 209.468 C 201.081 209.088,201.691 209.961,201.738 212.323 C 201.776 214.245,201.743 214.369,201.163 214.451 C 200.575 214.535,200.547 214.453,200.547 212.634 C 200.547 210.597,200.341 210.291,199.248 210.697 C 198.695 210.903,198.632 211.110,198.632 212.713 C 198.632 214.318,198.576 214.501,198.085 214.501 C 197.591 214.501,197.538 214.318,197.538 212.615 C 197.538 210.598,197.330 210.292,196.238 210.697 C 195.686 210.903,195.622 211.110,195.622 212.713 C 195.622 214.318,195.567 214.501,195.075 214.501 C 194.569 214.501,194.528 214.318,194.528 212.047 L 194.528 209.593 195.487 209.629 C 196.014 209.648,196.529 209.582,196.630 209.480 C 196.731 209.379,197.069 209.384,197.381 209.491 C 197.693 209.598,198.194 209.682,198.495 209.677 M218.947 210.145 C 219.835 211.232,219.629 214.513,218.673 214.497 C 218.259 214.490,217.516 214.564,217.021 214.662 C 215.838 214.895,215.048 214.214,215.048 212.961 C 215.048 211.912,216.037 211.218,217.530 211.218 C 218.291 211.218,218.354 211.164,218.038 210.784 C 217.764 210.453,217.400 210.392,216.500 210.527 C 215.446 210.685,215.321 210.646,215.321 210.159 C 215.321 209.138,218.115 209.127,218.947 210.145 M224.555 210.054 C 225.177 210.868,225.010 214.501,224.350 214.501 C 223.860 214.501,223.803 214.318,223.803 212.756 C 223.803 210.696,223.445 210.198,222.329 210.706 C 221.668 211.007,221.614 211.162,221.614 212.766 C 221.614 214.318,221.557 214.501,221.067 214.501 C 220.561 214.501,220.520 214.318,220.520 212.047 L 220.520 209.593 221.479 209.629 C 222.006 209.648,222.526 209.577,222.633 209.469 C 222.931 209.171,224.169 209.548,224.555 210.054 M173.187 210.139 C 173.187 210.539,172.998 210.670,172.421 210.670 C 171.298 210.670,170.999 211.142,170.999 212.914 C 170.999 214.318,170.936 214.501,170.451 214.501 C 169.945 214.501,169.904 214.318,169.904 212.077 L 169.904 209.653 171.546 209.630 C 172.997 209.610,173.187 209.668,173.187 210.139 M189.330 210.260 C 189.330 210.807,189.193 210.944,188.646 210.944 C 188.098 210.944,187.962 210.807,187.962 210.260 C 187.962 209.713,188.098 209.576,188.646 209.576 C 189.193 209.576,189.330 209.713,189.330 210.260 M206.293 210.139 C 206.293 210.539,206.103 210.670,205.527 210.670 C 204.403 210.670,204.104 211.142,204.104 212.914 C 204.104 214.318,204.041 214.501,203.557 214.501 C 203.051 214.501,203.010 214.318,203.010 212.077 L 203.010 209.653 204.651 209.630 C 206.102 209.610,206.293 209.668,206.293 210.139 M174.817 210.822 C 174.623 211.055,174.464 211.603,174.464 212.038 C 174.464 213.510,175.854 214.284,176.461 213.151 C 177.324 211.539,175.898 209.519,174.817 210.822 M217.325 212.229 C 216.480 212.393,215.965 213.065,216.371 213.471 C 216.858 213.958,218.175 213.391,218.282 212.648 C 218.330 212.313,218.268 212.055,218.145 212.076 C 218.022 212.096,217.653 212.165,217.325 212.229 M189.330 213.817 C 189.330 214.364,189.193 214.501,188.646 214.501 C 188.098 214.501,187.962 214.364,187.962 213.817 C 187.962 213.269,188.098 213.133,188.646 213.133 C 189.193 213.133,189.330 213.269,189.330 213.817 M104.514 247.052 C 104.514 248.107,104.536 248.132,105.217 247.872 C 107.022 247.186,107.798 248.088,107.798 250.871 C 107.798 252.622,107.746 252.804,107.250 252.804 C 106.760 252.804,106.703 252.622,106.703 251.059 C 106.703 249.000,106.345 248.501,105.229 249.010 C 104.568 249.311,104.514 249.465,104.514 251.070 C 104.514 252.622,104.457 252.804,103.967 252.804 C 103.449 252.804,103.420 252.622,103.420 249.384 C 103.420 246.147,103.449 245.964,103.967 245.964 C 104.423 245.964,104.514 246.147,104.514 247.052 M136.533 247.948 L 136.540 249.932 137.494 248.906 C 138.145 248.205,138.684 247.880,139.193 247.880 L 139.937 247.880 138.781 249.036 L 137.625 250.192 138.912 251.498 L 140.198 252.804 139.371 252.804 C 138.808 252.804,138.291 252.541,137.756 251.984 C 137.324 251.532,136.870 251.163,136.748 251.163 C 136.625 251.163,136.525 251.532,136.525 251.984 C 136.525 252.622,136.404 252.804,135.978 252.804 C 135.460 252.804,135.431 252.622,135.431 249.384 C 135.431 246.147,135.460 245.964,135.978 245.964 C 136.474 245.964,136.526 246.149,136.533 247.948 M144.733 247.052 C 144.733 248.106,144.755 248.132,145.435 247.873 C 146.932 247.304,148.016 248.285,148.016 250.211 C 148.016 252.446,147.063 253.256,144.826 252.920 L 143.639 252.742 143.639 249.353 C 143.639 246.147,143.668 245.964,144.186 245.964 C 144.641 245.964,144.733 246.147,144.733 247.052 M176.744 246.512 C 176.744 246.937,176.562 247.059,175.923 247.059 C 175.376 247.059,175.103 247.196,175.103 247.469 C 175.103 247.725,175.361 247.880,175.787 247.880 C 176.212 247.880,176.471 248.035,176.471 248.290 C 176.471 248.545,176.212 248.700,175.787 248.700 C 175.118 248.700,175.103 248.746,175.103 250.752 C 175.103 252.622,175.054 252.804,174.555 252.804 C 174.057 252.804,174.008 252.622,174.008 250.752 C 174.008 249.567,173.893 248.700,173.735 248.700 C 173.584 248.700,173.461 248.516,173.461 248.290 C 173.461 248.064,173.584 247.880,173.735 247.880 C 173.885 247.880,174.008 247.642,174.008 247.352 C 174.008 246.548,174.764 245.964,175.806 245.964 C 176.562 245.964,176.744 246.071,176.744 246.512 M222.435 249.404 C 222.435 252.807,222.428 252.843,221.819 252.782 C 221.481 252.748,220.856 252.816,220.430 252.934 C 218.657 253.424,217.417 251.500,218.123 249.353 C 218.518 248.153,219.471 247.525,220.588 247.729 C 221.291 247.857,221.341 247.803,221.341 246.915 C 221.341 246.147,221.446 245.964,221.888 245.964 C 222.406 245.964,222.435 246.147,222.435 249.404 M253.625 247.052 C 253.625 248.107,253.646 248.132,254.328 247.872 C 256.132 247.186,256.908 248.088,256.908 250.871 C 256.908 252.622,256.857 252.804,256.361 252.804 C 255.875 252.804,255.814 252.622,255.814 251.182 C 255.814 247.971,253.824 247.789,253.681 250.988 C 253.610 252.580,253.534 252.804,253.065 252.804 C 252.563 252.804,252.531 252.595,252.531 249.384 C 252.531 246.147,252.560 245.964,253.078 245.964 C 253.533 245.964,253.625 246.147,253.625 247.052 M267.579 249.384 C 267.579 252.622,267.549 252.804,267.031 252.804 C 266.513 252.804,266.484 252.622,266.484 249.384 C 266.484 246.147,266.513 245.964,267.031 245.964 C 267.549 245.964,267.579 246.147,267.579 249.384 M291.108 249.404 C 291.108 252.807,291.102 252.843,290.492 252.782 C 290.154 252.748,289.529 252.816,289.103 252.934 C 287.330 253.424,286.090 251.500,286.796 249.353 C 287.191 248.153,288.144 247.525,289.261 247.729 C 289.964 247.857,290.014 247.803,290.014 246.915 C 290.014 246.147,290.119 245.964,290.561 245.964 C 291.079 245.964,291.108 246.147,291.108 249.404 M103.146 246.785 C 103.146 247.241,102.964 247.332,102.052 247.332 L 100.958 247.332 100.958 250.068 L 100.958 252.804 100.274 252.804 L 99.590 252.804 99.590 250.068 L 99.590 247.332 98.495 247.332 C 97.583 247.332,97.401 247.241,97.401 246.785 C 97.401 246.273,97.583 246.238,100.274 246.238 C 102.964 246.238,103.146 246.273,103.146 246.785 M129.412 246.785 C 129.412 247.150,129.229 247.332,128.865 247.332 C 128.500 247.332,128.317 247.150,128.317 246.785 C 128.317 246.420,128.500 246.238,128.865 246.238 C 129.229 246.238,129.412 246.420,129.412 246.785 M192.339 246.785 C 192.339 247.187,192.157 247.332,191.655 247.332 C 191.154 247.332,190.971 247.187,190.971 246.785 C 190.971 246.384,191.154 246.238,191.655 246.238 C 192.157 246.238,192.339 246.384,192.339 246.785 M250.342 247.196 C 250.342 247.773,250.470 247.880,251.163 247.880 C 251.710 247.880,251.984 248.016,251.984 248.290 C 251.984 248.565,251.708 248.700,251.149 248.700 L 250.315 248.700 250.397 250.274 C 250.476 251.802,250.500 251.845,251.231 251.795 C 252.079 251.737,252.330 252.613,251.551 252.912 C 249.971 253.518,249.248 252.748,249.248 250.459 C 249.248 249.469,249.128 248.700,248.974 248.700 C 248.824 248.700,248.700 248.516,248.700 248.290 C 248.700 248.064,248.824 247.880,248.974 247.880 C 249.124 247.880,249.248 247.572,249.248 247.196 C 249.248 246.694,249.394 246.512,249.795 246.512 C 250.196 246.512,250.342 246.694,250.342 247.196 M112.791 248.354 C 113.065 248.601,113.269 249.176,113.269 249.700 L 113.269 250.616 111.628 250.616 C 110.369 250.616,109.986 250.709,109.986 251.016 C 109.986 251.894,111.304 252.132,112.858 251.536 C 113.219 251.397,113.298 251.495,113.225 251.992 C 112.986 253.625,109.710 253.246,108.981 251.501 C 107.880 248.867,110.740 246.505,112.791 248.354 M120.862 247.876 C 121.467 247.880,121.477 247.936,121.477 251.300 C 121.477 254.537,121.448 254.720,120.930 254.720 C 120.491 254.720,120.383 254.537,120.383 253.797 C 120.383 252.895,120.359 252.875,119.261 252.904 C 117.820 252.942,117.100 252.144,117.100 250.509 C 117.100 248.737,118.320 247.441,119.699 247.750 C 120.000 247.817,120.523 247.874,120.862 247.876 M134.405 248.070 C 134.838 248.313,134.623 249.311,134.174 249.139 C 132.871 248.639,132.476 248.666,132.042 249.287 C 130.820 251.031,132.099 252.434,134.131 251.579 C 134.515 251.418,134.610 251.517,134.610 252.079 C 134.610 253.341,131.846 253.314,130.879 252.041 C 129.221 249.859,132.005 246.724,134.405 248.070 M155.642 247.908 C 157.754 248.644,157.558 252.468,155.385 252.945 C 152.459 253.588,151.078 249.000,153.860 247.877 C 154.643 247.561,154.647 247.561,155.642 247.908 M169.289 248.357 C 169.910 249.171,169.743 252.804,169.083 252.804 C 168.598 252.804,168.536 252.622,168.536 251.182 C 168.536 247.971,166.546 247.789,166.403 250.988 C 166.332 252.580,166.256 252.804,165.788 252.804 C 165.297 252.804,165.253 252.603,165.253 250.350 L 165.253 247.896 166.212 247.932 C 166.739 247.952,167.259 247.880,167.366 247.773 C 167.664 247.475,168.903 247.852,169.289 248.357 M180.711 248.452 C 181.621 249.345,181.480 251.567,180.458 252.446 C 178.367 254.244,175.837 251.657,176.922 248.829 C 177.379 247.638,179.653 247.412,180.711 248.452 M202.318 247.977 C 202.744 248.289,202.939 248.289,203.533 247.979 C 205.391 247.009,206.293 247.916,206.293 250.752 C 206.293 252.622,206.244 252.804,205.746 252.804 C 205.256 252.804,205.198 252.622,205.198 251.059 C 205.198 249.068,204.802 248.454,203.848 248.965 C 203.367 249.222,203.283 249.529,203.283 251.036 C 203.283 253.706,202.333 253.670,202.118 250.991 C 201.869 247.885,200.000 247.954,200.000 251.070 C 200.000 252.622,199.942 252.804,199.453 252.804 C 198.946 252.804,198.906 252.622,198.906 250.350 L 198.906 247.896 199.864 247.932 C 200.392 247.952,200.905 247.887,201.004 247.787 C 201.288 247.504,201.765 247.573,202.318 247.977 M211.560 248.469 C 212.863 250.010,211.702 252.875,209.756 252.919 C 208.811 252.940,208.757 252.991,208.756 253.849 C 208.755 254.635,208.672 254.746,208.140 254.670 C 207.540 254.585,207.524 254.496,207.524 251.300 L 207.524 248.016 208.618 247.845 C 210.113 247.611,210.992 247.798,211.560 248.469 M216.758 248.458 C 217.866 249.792,217.422 250.616,215.595 250.616 C 214.336 250.616,213.953 250.709,213.953 251.016 C 213.953 251.887,215.272 252.132,216.801 251.545 C 217.116 251.424,217.237 251.540,217.237 251.961 C 217.237 254.173,212.963 253.011,212.691 250.724 C 212.387 248.174,215.214 246.599,216.758 248.458 M230.270 248.184 C 231.332 249.066,231.179 251.851,230.024 252.660 C 227.937 254.121,225.593 251.660,226.654 249.121 C 227.249 247.697,229.104 247.217,230.270 248.184 M240.834 248.354 C 241.109 248.601,241.313 249.176,241.313 249.700 L 241.313 250.616 239.672 250.616 C 238.412 250.616,238.030 250.709,238.030 251.016 C 238.030 251.894,239.348 252.132,240.902 251.536 C 241.263 251.397,241.342 251.495,241.269 251.992 C 241.030 253.625,237.754 253.246,237.025 251.501 C 235.924 248.867,238.783 246.505,240.834 248.354 M261.902 248.458 C 263.010 249.792,262.566 250.616,260.739 250.616 C 259.479 250.616,259.097 250.709,259.097 251.016 C 259.097 251.887,260.415 252.132,261.944 251.545 C 262.259 251.424,262.380 251.540,262.380 251.961 C 262.380 254.173,258.107 253.011,257.835 250.724 C 257.531 248.174,260.358 246.599,261.902 248.458 M271.769 247.921 C 273.026 248.582,273.364 252.802,272.161 252.807 C 271.823 252.809,271.098 252.884,270.551 252.975 C 269.762 253.105,269.436 253.020,268.977 252.562 C 267.736 251.320,268.812 249.521,270.795 249.521 C 271.629 249.521,271.705 249.467,271.396 249.095 C 271.133 248.778,270.772 248.714,269.994 248.845 C 269.068 249.002,268.947 248.958,268.947 248.471 C 268.947 247.663,270.649 247.331,271.769 247.921 M295.934 248.184 C 296.995 249.066,296.842 251.851,295.688 252.660 C 293.601 254.121,291.257 251.660,292.317 249.121 C 292.912 247.697,294.767 247.217,295.934 248.184 M301.402 247.880 C 302.129 247.880,301.920 253.472,301.166 254.174 C 300.288 254.992,298.124 254.861,297.999 253.982 C 297.922 253.435,298.003 253.395,298.886 253.538 C 299.483 253.635,300.018 253.564,300.271 253.353 C 300.930 252.806,300.759 252.646,299.629 252.754 C 298.743 252.838,298.480 252.735,297.988 252.108 C 296.477 250.188,297.933 247.369,300.239 247.750 C 300.672 247.821,301.195 247.880,301.402 247.880 M123.940 249.803 C 123.940 251.884,124.225 252.290,125.286 251.721 C 125.773 251.461,125.855 251.160,125.855 249.629 C 125.855 247.932,125.886 247.846,126.471 247.929 C 127.054 248.012,127.086 248.139,127.086 250.340 L 127.086 252.664 125.485 252.888 C 123.182 253.209,122.845 252.844,122.845 250.026 C 122.845 248.062,122.892 247.880,123.393 247.880 C 123.888 247.880,123.940 248.062,123.940 249.803 M129.412 250.342 C 129.412 252.622,129.371 252.804,128.865 252.804 C 128.358 252.804,128.317 252.622,128.317 250.342 C 128.317 248.062,128.358 247.880,128.865 247.880 C 129.371 247.880,129.412 248.062,129.412 250.342 M152.394 248.442 C 152.394 248.842,152.204 248.974,151.628 248.974 C 150.504 248.974,150.205 249.445,150.205 251.218 C 150.205 252.622,150.142 252.804,149.658 252.804 C 149.152 252.804,149.111 252.622,149.111 250.381 L 149.111 247.957 150.752 247.934 C 152.204 247.913,152.394 247.972,152.394 248.442 M158.962 248.222 C 158.963 248.410,159.103 249.056,159.274 249.658 L 159.584 250.752 160.047 249.384 C 160.586 247.789,161.503 247.347,161.802 248.537 C 162.336 250.664,162.582 250.852,162.917 249.384 C 163.170 248.271,163.347 247.999,163.868 247.924 C 164.423 247.844,164.484 247.917,164.327 248.471 C 164.228 248.823,163.941 249.942,163.689 250.958 C 163.067 253.471,162.313 253.568,161.569 251.231 L 161.068 249.658 160.533 251.247 C 159.725 253.648,159.075 253.392,158.239 250.342 C 157.888 249.063,157.599 247.986,157.597 247.948 C 157.594 247.910,157.900 247.880,158.276 247.880 C 158.653 247.880,158.961 248.034,158.962 248.222 M183.563 248.632 L 184.134 249.384 184.758 248.632 C 185.102 248.218,185.655 247.880,185.988 247.880 C 186.775 247.880,186.756 247.983,185.739 249.249 L 184.884 250.313 185.752 251.490 C 186.841 252.966,185.939 253.508,184.732 252.104 L 184.084 251.350 183.483 252.104 C 182.342 253.535,181.428 252.958,182.511 251.490 L 183.379 250.313 182.524 249.249 C 181.496 247.970,181.483 247.880,182.330 247.880 C 182.731 247.880,183.217 248.176,183.563 248.632 M192.339 250.324 C 192.339 253.868,191.934 254.707,190.219 254.715 C 189.034 254.721,188.913 253.709,190.082 253.575 C 190.995 253.470,191.474 248.700,190.572 248.700 C 190.340 248.700,190.150 248.516,190.150 248.290 C 190.150 247.994,190.454 247.880,191.245 247.880 L 192.339 247.880 192.339 250.324 M194.528 249.625 C 194.528 251.653,194.876 252.150,196.000 251.723 C 196.672 251.467,196.717 251.339,196.717 249.665 C 196.717 248.062,196.773 247.880,197.264 247.880 C 197.771 247.880,197.811 248.062,197.811 250.346 L 197.811 252.813 197.059 252.801 C 196.645 252.794,195.918 252.865,195.444 252.960 C 193.983 253.252,193.434 252.424,193.434 249.932 C 193.434 248.062,193.482 247.880,193.981 247.880 C 194.471 247.880,194.528 248.062,194.528 249.625 M233.232 249.453 C 233.536 250.243,233.849 250.889,233.926 250.889 C 234.003 250.889,234.316 250.243,234.620 249.453 C 235.040 248.366,235.328 247.994,235.807 247.926 C 236.538 247.821,236.527 247.886,235.318 250.836 C 234.098 253.812,233.105 253.167,231.598 248.420 C 231.147 246.998,232.652 247.950,233.232 249.453 M245.691 248.433 C 245.691 248.823,245.506 248.974,245.029 248.974 C 243.660 248.974,243.502 249.191,243.502 251.074 C 243.502 252.751,243.470 252.838,242.886 252.755 C 242.281 252.669,241.808 249.398,242.238 248.277 C 242.482 247.642,245.691 247.787,245.691 248.433 M277.702 248.295 C 277.702 248.524,277.147 249.416,276.469 250.279 L 275.236 251.847 276.469 251.930 C 278.736 252.084,278.061 252.804,275.650 252.804 C 273.165 252.804,273.105 252.638,274.829 250.522 C 275.506 249.691,276.060 248.941,276.060 248.856 C 276.060 248.770,275.506 248.700,274.829 248.700 C 273.917 248.700,273.598 248.594,273.598 248.290 C 273.598 247.962,274.008 247.880,275.650 247.880 C 277.303 247.880,277.702 247.960,277.702 248.295 M279.928 249.447 L 280.597 251.015 281.233 249.447 C 281.752 248.168,281.987 247.880,282.509 247.880 L 283.149 247.880 282.306 249.863 C 280.338 254.494,280.213 254.720,279.632 254.720 C 278.959 254.720,278.964 254.767,279.499 253.486 C 279.904 252.517,279.894 252.383,279.322 251.059 C 277.835 247.618,277.893 247.880,278.613 247.880 C 279.139 247.880,279.383 248.172,279.928 249.447 M110.260 249.111 C 109.966 249.465,110.079 249.521,111.081 249.521 C 112.082 249.521,112.195 249.465,111.902 249.111 C 111.714 248.885,111.345 248.700,111.081 248.700 C 110.817 248.700,110.447 248.885,110.260 249.111 M118.631 249.293 C 118.076 250.086,118.073 251.002,118.624 251.554 C 119.557 252.486,120.450 251.705,120.333 250.058 C 120.229 248.600,119.383 248.220,118.631 249.293 M145.349 249.001 C 144.678 249.250,144.423 251.486,145.022 251.856 C 145.585 252.204,146.637 251.713,146.811 251.022 C 147.191 249.507,146.512 248.569,145.349 249.001 M154.023 249.125 C 153.829 249.359,153.671 249.907,153.671 250.342 C 153.671 251.813,155.061 252.588,155.668 251.454 C 156.530 249.842,155.105 247.823,154.023 249.125 M178.131 249.213 C 177.734 249.954,177.763 250.955,178.199 251.551 C 179.091 252.770,180.661 251.033,179.971 249.590 C 179.526 248.658,178.536 248.456,178.131 249.213 M209.199 249.052 C 208.456 249.595,208.674 251.816,209.481 251.931 C 210.645 252.097,211.409 250.025,210.514 249.130 C 209.993 248.609,209.820 248.599,209.199 249.052 M214.227 249.111 C 213.933 249.465,214.047 249.521,215.048 249.521 C 216.049 249.521,216.162 249.465,215.869 249.111 C 215.681 248.885,215.312 248.700,215.048 248.700 C 214.784 248.700,214.414 248.885,214.227 249.111 M219.582 249.130 C 219.032 249.680,219.025 251.264,219.570 251.717 C 220.407 252.411,221.341 251.632,221.341 250.240 C 221.341 248.727,220.510 248.202,219.582 249.130 M227.923 249.092 C 227.030 250.168,228.126 252.495,229.207 251.818 C 230.242 251.169,229.863 248.700,228.728 248.700 C 228.464 248.700,228.101 248.876,227.923 249.092 M238.304 249.111 C 238.010 249.465,238.123 249.521,239.124 249.521 C 240.126 249.521,240.239 249.465,239.945 249.111 C 239.758 248.885,239.389 248.700,239.124 248.700 C 238.860 248.700,238.491 248.885,238.304 249.111 M259.371 249.111 C 259.077 249.465,259.190 249.521,260.192 249.521 C 261.193 249.521,261.306 249.465,261.012 249.111 C 260.825 248.885,260.456 248.700,260.192 248.700 C 259.927 248.700,259.558 248.885,259.371 249.111 M288.255 249.130 C 287.705 249.680,287.698 251.264,288.243 251.717 C 289.080 252.411,290.014 251.632,290.014 250.240 C 290.014 248.727,289.183 248.202,288.255 249.130 M293.586 249.092 C 292.693 250.168,293.789 252.495,294.870 251.818 C 295.905 251.169,295.526 248.700,294.391 248.700 C 294.127 248.700,293.765 248.876,293.586 249.092 M298.959 249.189 C 297.986 250.264,298.684 251.928,299.972 251.605 C 300.663 251.431,300.708 251.332,300.630 250.128 C 300.536 248.662,299.806 248.252,298.959 249.189 M270.677 250.532 C 269.773 250.708,269.396 251.288,269.909 251.714 C 270.491 252.197,271.683 251.647,271.683 250.895 C 271.683 250.591,271.590 250.359,271.477 250.379 C 271.365 250.400,271.004 250.469,270.677 250.532 M216.963 287.708 C 216.963 291.111,216.956 291.147,216.347 291.085 C 216.009 291.052,215.384 291.120,214.958 291.238 C 213.185 291.728,211.945 289.804,212.651 287.657 C 213.046 286.457,213.999 285.829,215.116 286.033 C 215.819 286.161,215.869 286.107,215.869 285.219 C 215.869 284.451,215.974 284.268,216.416 284.268 C 216.934 284.268,216.963 284.451,216.963 287.708 M182.976 284.968 C 183.715 285.485,183.811 287.121,183.145 287.857 C 182.681 288.369,183.126 289.340,184.255 290.277 C 184.870 290.787,184.775 291.108,184.008 291.108 C 183.548 291.108,183.014 290.721,182.309 289.877 C 181.743 289.200,181.059 288.646,180.790 288.646 C 180.393 288.646,180.301 288.877,180.301 289.877 C 180.301 290.926,180.220 291.108,179.754 291.108 C 179.237 291.108,179.207 290.926,179.207 287.825 L 179.207 284.542 180.787 284.542 C 181.775 284.542,182.596 284.701,182.976 284.968 M201.094 285.089 C 201.094 285.454,200.912 285.636,200.547 285.636 C 200.182 285.636,200.000 285.454,200.000 285.089 C 200.000 284.724,200.182 284.542,200.547 284.542 C 200.912 284.542,201.094 284.724,201.094 285.089 M180.301 286.611 C 180.301 287.540,180.341 287.582,181.163 287.500 C 182.882 287.329,182.815 285.636,181.088 285.636 C 180.368 285.636,180.301 285.719,180.301 286.611 M188.720 286.550 C 188.915 286.746,189.148 287.358,189.238 287.912 L 189.401 288.919 187.587 288.919 C 185.666 288.919,185.444 289.084,186.311 289.868 C 186.833 290.341,187.182 290.340,188.738 289.861 C 189.745 289.551,189.439 290.847,188.426 291.183 C 185.780 292.060,183.555 289.277,185.118 287.045 C 185.912 285.912,187.819 285.650,188.720 286.550 M193.279 286.177 C 193.729 286.348,193.981 286.652,193.981 287.027 C 193.981 287.479,193.873 287.563,193.502 287.402 C 191.845 286.683,190.557 287.854,191.306 289.398 C 191.681 290.169,192.457 290.343,193.502 289.889 C 193.888 289.722,193.981 289.818,193.981 290.382 C 193.981 291.775,191.217 291.607,190.266 290.157 C 189.382 288.807,190.189 286.378,191.615 286.099 C 191.938 286.036,192.287 285.967,192.390 285.947 C 192.493 285.926,192.893 286.030,193.279 286.177 M197.764 286.208 C 198.536 286.477,199.169 287.600,199.178 288.714 C 199.179 288.827,198.379 288.919,197.401 288.919 C 195.560 288.919,195.302 289.107,196.077 289.882 C 196.524 290.329,197.389 290.330,198.427 289.886 C 198.810 289.723,198.906 289.818,198.906 290.364 C 198.906 291.650,195.495 291.583,194.800 290.283 C 194.046 288.876,194.639 286.720,195.921 286.208 C 196.786 285.862,196.772 285.862,197.764 286.208 M211.286 286.762 C 212.394 288.096,211.950 288.919,210.123 288.919 C 208.864 288.919,208.482 289.013,208.482 289.320 C 208.482 290.191,209.800 290.436,211.329 289.849 C 211.644 289.728,211.765 289.844,211.765 290.265 C 211.765 292.477,207.491 291.314,207.219 289.028 C 206.915 286.477,209.742 284.902,211.286 286.762 M201.094 288.646 C 201.094 290.926,201.054 291.108,200.547 291.108 C 200.041 291.108,200.000 290.926,200.000 288.646 C 200.000 286.366,200.041 286.183,200.547 286.183 C 201.054 286.183,201.094 286.366,201.094 288.646 M203.683 287.756 C 203.988 288.547,204.300 289.193,204.378 289.193 C 204.455 289.193,204.767 288.547,205.072 287.756 C 205.491 286.669,205.780 286.298,206.258 286.229 C 206.989 286.124,206.978 286.189,205.769 289.140 C 204.550 292.116,203.556 291.470,202.050 286.723 C 201.598 285.301,203.104 286.254,203.683 287.756 M220.246 286.867 C 220.246 287.415,220.109 287.551,219.562 287.551 C 219.015 287.551,218.878 287.415,218.878 286.867 C 218.878 286.320,219.015 286.183,219.562 286.183 C 220.109 286.183,220.246 286.320,220.246 286.867 M186.389 287.180 C 185.710 287.464,186.067 287.825,187.027 287.825 C 187.689 287.825,187.971 287.714,187.895 287.483 C 187.773 287.114,186.944 286.948,186.389 287.180 M195.908 287.401 C 195.599 287.772,195.698 287.825,196.706 287.825 C 197.504 287.825,197.822 287.720,197.745 287.483 C 197.577 286.972,196.311 286.915,195.908 287.401 M208.755 287.415 C 208.461 287.768,208.575 287.825,209.576 287.825 C 210.577 287.825,210.690 287.768,210.397 287.415 C 210.209 287.189,209.840 287.004,209.576 287.004 C 209.312 287.004,208.942 287.189,208.755 287.415 M214.110 287.434 C 213.560 287.984,213.553 289.568,214.098 290.020 C 214.935 290.715,215.869 289.936,215.869 288.544 C 215.869 287.030,215.038 286.506,214.110 287.434 M220.246 290.424 C 220.246 290.971,220.109 291.108,219.562 291.108 C 219.015 291.108,218.878 290.971,218.878 290.424 C 218.878 289.877,219.015 289.740,219.562 289.740 C 220.109 289.740,220.246 289.877,220.246 290.424 M210.895 304.445 C 211.513 305.265,211.080 306.681,209.818 307.966 L 208.674 309.132 210.012 309.217 C 212.672 309.386,211.980 310.260,209.186 310.260 C 206.272 310.260,206.166 309.949,208.345 307.798 C 209.916 306.246,210.248 305.288,209.371 304.832 C 209.107 304.695,208.646 304.682,208.345 304.803 C 207.371 305.194,206.840 305.094,206.840 304.520 C 206.840 304.151,207.081 303.925,207.592 303.812 C 208.006 303.720,208.468 303.614,208.618 303.575 C 209.146 303.438,210.537 303.970,210.895 304.445 M215.701 303.800 C 216.766 304.245,217.051 305.013,216.526 306.025 C 216.203 306.649,216.207 306.807,216.557 307.157 C 217.540 308.140,216.728 310.034,215.154 310.429 C 214.003 310.718,212.449 310.228,212.449 309.576 C 212.449 309.016,212.543 309.004,214.262 309.348 C 214.796 309.454,215.089 309.336,215.404 308.887 C 215.957 308.097,215.716 307.534,214.740 307.339 C 213.656 307.122,213.679 306.279,214.774 306.060 C 215.241 305.967,215.595 305.722,215.595 305.492 C 215.595 304.860,214.785 304.550,213.841 304.820 C 212.639 305.165,212.537 305.133,212.635 304.446 C 212.701 303.983,212.959 303.789,213.680 303.661 C 214.207 303.568,214.672 303.476,214.715 303.456 C 214.757 303.436,215.201 303.591,215.701 303.800 M187.962 304.241 C 187.962 304.697,187.779 304.788,186.867 304.788 L 185.773 304.788 185.773 307.524 C 185.773 310.078,185.736 310.260,185.226 310.260 C 184.715 310.260,184.679 310.078,184.679 307.524 L 184.679 304.788 181.806 304.788 L 178.933 304.788 178.933 305.472 C 178.933 306.126,179.006 306.156,180.575 306.156 C 182.034 306.156,182.216 306.217,182.216 306.703 C 182.216 307.190,182.034 307.250,180.575 307.250 L 178.933 307.250 178.933 308.194 L 178.933 309.138 180.503 309.220 C 183.377 309.370,182.869 310.260,179.911 310.260 L 177.565 310.260 177.565 306.977 L 177.565 303.694 182.763 303.694 C 187.779 303.694,187.962 303.713,187.962 304.241 M189.877 304.925 L 189.877 306.156 191.245 306.156 L 192.613 306.156 192.613 304.925 C 192.613 303.876,192.694 303.694,193.160 303.694 C 193.677 303.694,193.707 303.876,193.707 306.977 C 193.707 310.078,193.677 310.260,193.160 310.260 C 192.679 310.260,192.613 310.078,192.613 308.755 L 192.613 307.250 191.245 307.250 L 189.877 307.250 189.877 308.755 C 189.877 310.178,189.840 310.260,189.193 310.260 L 188.509 310.260 188.509 306.977 L 188.509 303.694 189.193 303.694 C 189.821 303.694,189.877 303.794,189.877 304.925 M201.094 306.566 L 201.094 309.439 201.778 309.439 C 202.204 309.439,202.462 309.594,202.462 309.850 C 202.462 310.175,202.067 310.260,200.547 310.260 C 199.027 310.260,198.632 310.175,198.632 309.850 C 198.632 309.594,198.890 309.439,199.316 309.439 C 199.985 309.439,200.000 309.394,200.000 307.387 C 200.000 305.381,199.985 305.335,199.316 305.335 C 198.890 305.335,198.632 305.180,198.632 304.925 C 198.632 304.695,198.876 304.514,199.188 304.514 C 199.493 304.514,199.814 304.330,199.901 304.104 C 199.988 303.878,200.292 303.694,200.576 303.694 C 201.052 303.694,201.094 303.930,201.094 306.566 M221.888 305.609 C 221.888 307.129,221.973 307.524,222.298 307.524 C 222.526 307.524,222.709 307.767,222.709 308.071 C 222.709 308.375,222.526 308.618,222.298 308.618 C 222.025 308.618,221.888 308.892,221.888 309.439 C 221.888 310.132,221.781 310.260,221.204 310.260 C 220.626 310.260,220.520 310.132,220.520 309.439 C 220.520 308.627,220.505 308.618,219.015 308.618 C 216.997 308.618,217.010 308.062,219.083 305.584 C 221.275 302.965,221.888 302.970,221.888 305.609 M219.619 306.566 L 218.855 307.524 219.687 307.524 C 220.456 307.524,220.520 307.451,220.520 306.566 C 220.520 305.396,220.553 305.396,219.619 306.566 M205.472 309.576 C 205.472 310.123,205.335 310.260,204.788 310.260 C 204.241 310.260,204.104 310.123,204.104 309.576 C 204.104 309.029,204.241 308.892,204.788 308.892 C 205.335 308.892,205.472 309.029,205.472 309.576 M215.154 322.952 C 216.219 323.397,216.504 324.165,215.979 325.177 C 215.656 325.800,215.660 325.959,216.009 326.308 C 216.993 327.292,216.181 329.186,214.607 329.581 C 213.456 329.870,211.902 329.380,211.902 328.728 C 211.902 328.168,211.996 328.156,213.714 328.500 C 214.248 328.606,214.542 328.488,214.857 328.038 C 215.410 327.248,215.169 326.686,214.193 326.491 C 213.109 326.274,213.132 325.431,214.227 325.212 C 214.694 325.119,215.048 324.874,215.048 324.644 C 215.048 324.012,214.238 323.701,213.294 323.972 C 212.092 324.317,211.990 324.285,212.088 323.598 C 212.153 323.135,212.412 322.940,213.133 322.813 C 213.659 322.720,214.125 322.628,214.167 322.608 C 214.210 322.588,214.654 322.743,215.154 322.952 M187.812 323.268 C 191.228 324.889,189.535 329.412,185.513 329.412 L 183.858 329.412 183.858 326.129 L 183.858 322.845 185.390 322.845 C 186.232 322.845,187.322 323.036,187.812 323.268 M193.551 323.088 C 193.634 323.222,194.192 324.699,194.791 326.371 L 195.880 329.412 195.231 329.412 C 194.755 329.412,194.505 329.192,194.295 328.591 C 194.035 327.845,193.899 327.770,192.791 327.770 C 191.683 327.770,191.546 327.845,191.286 328.591 C 191.020 329.353,189.877 329.824,189.877 329.171 C 189.877 328.969,191.300 324.925,191.934 323.324 C 192.131 322.828,193.287 322.660,193.551 323.088 M199.179 323.264 C 199.179 323.495,198.995 323.754,198.769 323.841 C 198.449 323.964,198.358 324.506,198.358 326.295 C 198.358 328.153,198.437 328.591,198.769 328.591 C 198.995 328.591,199.179 328.776,199.179 329.001 C 199.179 329.316,198.830 329.412,197.674 329.412 C 196.519 329.412,196.170 329.316,196.170 329.001 C 196.170 328.776,196.354 328.591,196.580 328.591 C 196.912 328.591,196.990 328.153,196.990 326.295 C 196.990 324.506,196.900 323.964,196.580 323.841 C 195.524 323.436,196.173 322.845,197.674 322.845 C 198.843 322.845,199.179 322.939,199.179 323.264 M207.661 323.393 C 207.661 323.873,207.478 323.940,206.156 323.940 C 204.733 323.940,204.651 323.977,204.651 324.624 C 204.651 325.223,204.770 325.308,205.609 325.308 C 208.196 325.308,208.433 328.933,205.888 329.572 C 204.585 329.899,203.283 329.471,203.283 328.715 C 203.283 327.944,203.272 327.949,204.281 328.333 C 205.272 328.709,206.211 328.458,206.434 327.756 C 206.708 326.894,206.098 326.402,204.754 326.402 L 203.557 326.402 203.557 324.624 L 203.557 322.845 205.609 322.845 C 207.478 322.845,207.661 322.894,207.661 323.393 M184.952 326.248 L 184.952 328.557 185.978 328.401 C 189.012 327.940,188.962 323.940,185.922 323.940 L 184.952 323.940 184.952 326.248 M192.356 325.395 C 191.960 326.594,192.036 326.751,192.957 326.628 L 193.624 326.539 193.163 325.445 L 192.701 324.350 192.356 325.395 M210.397 328.728 C 210.397 329.275,210.260 329.412,209.713 329.412 C 209.166 329.412,209.029 329.275,209.029 328.728 C 209.029 328.181,209.166 328.044,209.713 328.044 C 210.260 328.044,210.397 328.181,210.397 328.728 " stroke="none" fill="#eb3c6b" fill-rule="evenodd"></path><path id="path1" d="M209.850 211.061 C 209.850 214.318,209.879 214.501,210.397 214.501 C 210.892 214.501,210.944 214.318,210.944 212.591 C 210.944 210.779,210.979 210.672,211.631 210.508 C 212.756 210.226,213.133 210.790,213.133 212.756 C 213.133 214.124,213.221 214.501,213.543 214.501 C 213.871 214.501,213.953 214.092,213.953 212.468 C 213.953 209.988,213.577 209.444,212.004 209.655 C 210.987 209.792,210.973 209.780,210.890 208.798 C 210.833 208.108,210.660 207.774,210.328 207.711 C 209.893 207.629,209.850 207.932,209.850 211.061 M226.265 211.081 C 226.265 213.938,226.333 214.501,226.676 214.501 C 226.948 214.501,227.086 214.229,227.086 213.696 C 227.086 212.452,227.617 212.385,228.639 213.500 C 230.122 215.118,230.982 214.848,229.578 213.205 L 228.470 211.909 229.420 210.936 C 231.157 209.157,230.060 208.960,228.259 210.727 L 227.086 211.879 227.086 209.770 C 227.086 208.077,227.005 207.661,226.676 207.661 C 226.333 207.661,226.265 208.223,226.265 211.081 M164.979 211.218 C 164.979 213.953,165.048 214.501,165.390 214.501 C 165.704 214.501,165.800 214.153,165.800 213.010 L 165.800 211.520 167.215 211.437 C 169.161 211.323,169.289 210.726,167.391 210.617 C 165.038 210.482,165.140 208.934,167.510 208.810 C 170.081 208.676,169.675 207.934,167.031 207.934 L 164.979 207.934 164.979 211.218 M169.904 212.038 C 169.904 214.299,169.948 214.501,170.439 214.501 C 170.909 214.501,170.983 214.276,171.055 212.654 L 171.135 210.807 172.025 210.721 C 172.692 210.657,172.914 210.504,172.914 210.106 C 172.914 209.524,172.350 209.419,171.544 209.850 C 171.202 210.034,170.976 210.034,170.862 209.850 C 170.252 208.863,169.904 209.658,169.904 212.038 M174.189 209.974 C 173.152 210.761,173.153 213.399,174.192 214.158 C 175.059 214.793,176.638 214.584,177.298 213.748 C 179.019 211.568,176.354 208.334,174.189 209.974 M178.933 212.095 C 178.933 214.318,178.974 214.501,179.480 214.501 C 179.975 214.501,180.027 214.318,180.027 212.591 C 180.027 210.793,180.067 210.671,180.696 210.513 C 181.749 210.249,181.943 210.572,181.943 212.602 C 181.943 215.422,182.968 215.494,183.093 212.682 C 183.154 211.308,183.291 210.791,183.653 210.563 C 184.584 209.978,185.080 210.671,185.170 212.682 C 185.293 215.450,186.047 215.266,186.047 212.468 C 186.047 209.781,185.099 208.892,183.275 209.869 C 182.910 210.064,182.619 210.071,182.399 209.888 C 182.218 209.738,181.364 209.631,180.502 209.652 L 178.933 209.688 178.933 212.095 M188.235 210.260 C 188.235 210.762,188.381 210.944,188.782 210.944 C 189.184 210.944,189.330 210.762,189.330 210.260 C 189.330 209.758,189.184 209.576,188.782 209.576 C 188.381 209.576,188.235 209.758,188.235 210.260 M194.528 212.095 C 194.528 214.318,194.570 214.501,195.075 214.501 C 195.570 214.501,195.622 214.318,195.622 212.591 C 195.622 210.793,195.662 210.671,196.291 210.513 C 197.344 210.249,197.538 210.572,197.538 212.602 C 197.538 215.422,198.563 215.494,198.688 212.682 C 198.777 210.671,199.273 209.978,200.205 210.563 C 200.567 210.791,200.704 211.308,200.765 212.682 C 200.888 215.450,201.642 215.266,201.642 212.468 C 201.642 209.781,200.694 208.892,198.870 209.869 C 198.505 210.064,198.214 210.071,197.994 209.888 C 197.813 209.738,196.959 209.631,196.097 209.652 L 194.528 209.688 194.528 212.095 M203.010 212.038 C 203.010 214.299,203.053 214.501,203.544 214.501 C 204.014 214.501,204.089 214.276,204.160 212.654 L 204.241 210.807 205.130 210.721 C 205.798 210.657,206.019 210.504,206.019 210.106 C 206.019 209.524,205.455 209.419,204.650 209.850 C 204.307 210.034,204.081 210.034,203.968 209.850 C 203.357 208.863,203.010 209.658,203.010 212.038 M215.595 210.072 C 215.595 210.482,215.815 210.565,216.868 210.551 C 218.554 210.528,218.733 211.095,217.116 211.338 C 214.014 211.803,214.432 214.528,217.592 214.445 L 219.152 214.404 219.152 212.273 C 219.152 209.815,218.947 209.576,216.844 209.576 C 215.820 209.576,215.595 209.665,215.595 210.072 M220.793 212.038 C 220.793 214.045,220.869 214.501,221.204 214.501 C 221.527 214.501,221.614 214.120,221.614 212.716 C 221.614 211.091,221.674 210.905,222.281 210.628 C 223.504 210.071,223.803 210.454,223.803 212.577 C 223.803 214.318,223.855 214.501,224.350 214.501 C 225.009 214.501,225.147 211.593,224.545 210.397 C 224.156 209.623,222.673 209.312,222.007 209.864 C 221.728 210.096,221.614 210.101,221.614 209.883 C 221.614 209.714,221.430 209.576,221.204 209.576 C 220.869 209.576,220.793 210.032,220.793 212.038 M230.917 209.732 C 230.917 209.817,231.303 210.815,231.775 211.949 C 232.534 213.774,232.598 214.123,232.331 214.994 C 232.165 215.535,232.081 216.030,232.145 216.094 C 232.625 216.574,233.702 214.591,235.486 209.941 C 235.988 208.633,234.609 209.827,233.973 211.252 L 233.225 212.928 232.502 211.252 C 231.906 209.873,230.917 208.923,230.917 209.732 M176.416 210.725 C 176.596 210.906,176.744 211.497,176.744 212.038 C 176.744 213.602,175.222 214.379,174.565 213.151 C 173.669 211.477,175.184 209.493,176.416 210.725 M218.331 212.693 C 218.331 213.682,216.572 214.131,216.226 213.230 C 216.015 212.681,216.809 212.038,217.699 212.038 C 218.183 212.038,218.331 212.192,218.331 212.693 M188.235 213.817 C 188.235 214.318,188.381 214.501,188.782 214.501 C 189.184 214.501,189.330 214.318,189.330 213.817 C 189.330 213.315,189.184 213.133,188.782 213.133 C 188.381 213.133,188.235 213.315,188.235 213.817 M103.694 249.384 C 103.694 252.242,103.761 252.804,104.104 252.804 C 104.427 252.804,104.514 252.424,104.514 251.020 C 104.514 249.395,104.574 249.209,105.181 248.932 C 106.404 248.375,106.703 248.758,106.703 250.881 C 106.703 252.622,106.755 252.804,107.250 252.804 C 107.909 252.804,108.047 249.897,107.445 248.700 C 107.056 247.926,105.573 247.615,104.907 248.168 C 104.576 248.443,104.514 248.297,104.514 247.229 C 104.514 246.287,104.410 245.964,104.104 245.964 C 103.761 245.964,103.694 246.527,103.694 249.384 M135.431 249.384 C 135.431 252.242,135.498 252.804,135.841 252.804 C 136.113 252.804,136.252 252.533,136.252 252.000 C 136.252 250.756,136.783 250.689,137.804 251.803 C 139.287 253.422,140.148 253.151,138.743 251.508 L 137.635 250.212 138.585 249.240 C 140.322 247.460,139.226 247.263,137.425 249.031 L 136.252 250.182 136.252 248.073 C 136.252 246.381,136.171 245.964,135.841 245.964 C 135.498 245.964,135.431 246.527,135.431 249.384 M143.639 249.364 L 143.639 252.804 145.238 252.804 C 147.158 252.804,147.742 252.319,147.939 250.558 C 148.131 248.836,147.248 247.764,145.799 247.958 C 144.776 248.095,144.762 248.085,144.680 247.101 C 144.622 246.412,144.449 246.078,144.118 246.015 C 143.682 245.933,143.639 246.236,143.639 249.364 M174.572 246.495 C 174.262 246.805,174.008 247.244,174.008 247.469 C 174.008 247.695,173.885 247.880,173.735 247.880 C 173.584 247.880,173.461 248.064,173.461 248.290 C 173.461 248.516,173.584 248.700,173.735 248.700 C 173.893 248.700,174.008 249.567,174.008 250.752 C 174.008 252.394,174.090 252.804,174.419 252.804 C 174.747 252.804,174.829 252.394,174.829 250.752 L 174.829 248.700 175.650 248.700 C 176.197 248.700,176.471 248.564,176.471 248.290 C 176.471 248.015,176.196 247.880,175.640 247.880 C 174.895 247.880,174.840 247.824,175.103 247.332 C 175.278 247.005,175.675 246.785,176.093 246.785 C 177.012 246.785,176.806 246.130,175.850 246.016 C 175.406 245.963,174.923 246.144,174.572 246.495 M221.341 246.922 C 221.341 247.854,221.312 247.880,220.266 247.880 C 218.869 247.880,218.057 248.826,218.057 250.455 C 218.057 252.300,218.607 252.813,220.536 252.770 L 222.161 252.733 222.161 249.349 C 222.161 246.523,222.094 245.964,221.751 245.964 C 221.464 245.964,221.341 246.253,221.341 246.922 M252.713 246.147 C 252.189 246.671,252.525 252.804,253.078 252.804 C 253.568 252.804,253.625 252.622,253.625 251.059 C 253.625 247.769,255.625 247.545,255.758 250.821 C 255.879 253.811,256.635 253.663,256.635 250.649 C 256.635 248.105,256.370 247.733,254.717 247.955 L 253.625 248.101 253.625 247.033 C 253.625 246.026,253.224 245.636,252.713 246.147 M266.484 249.384 C 266.484 252.242,266.552 252.804,266.895 252.804 C 267.238 252.804,267.305 252.242,267.305 249.384 C 267.305 246.527,267.238 245.964,266.895 245.964 C 266.552 245.964,266.484 246.527,266.484 249.384 M290.014 246.922 C 290.014 247.854,289.985 247.880,288.939 247.880 C 287.542 247.880,286.731 248.826,286.731 250.455 C 286.731 252.300,287.281 252.813,289.209 252.770 L 290.834 252.733 290.834 249.349 C 290.834 246.523,290.767 245.964,290.424 245.964 C 290.137 245.964,290.014 246.253,290.014 246.922 M97.583 246.420 C 97.174 246.830,97.461 247.032,98.564 247.111 L 99.726 247.196 99.804 250.000 C 99.866 252.213,99.965 252.804,100.274 252.804 C 100.582 252.804,100.681 252.213,100.743 250.000 L 100.821 247.196 101.847 247.111 C 102.518 247.055,102.873 246.890,102.873 246.632 C 102.873 246.218,97.982 246.022,97.583 246.420 M128.369 246.714 C 128.506 247.427,129.412 247.506,129.412 246.805 C 129.412 246.414,129.236 246.238,128.845 246.238 C 128.453 246.238,128.306 246.385,128.369 246.714 M191.245 246.785 C 191.245 247.089,191.427 247.332,191.655 247.332 C 191.883 247.332,192.066 247.089,192.066 246.785 C 192.066 246.481,191.883 246.238,191.655 246.238 C 191.427 246.238,191.245 246.481,191.245 246.785 M249.248 247.196 C 249.248 247.572,249.124 247.880,248.974 247.880 C 248.824 247.880,248.700 248.064,248.700 248.290 C 248.700 248.516,248.824 248.700,248.974 248.700 C 249.124 248.700,249.248 249.386,249.248 250.223 C 249.248 252.256,249.569 252.804,250.762 252.804 C 251.422 252.804,251.710 252.680,251.710 252.394 C 251.710 252.144,251.455 251.984,251.055 251.984 C 250.280 251.984,250.068 251.539,250.068 249.909 C 250.068 248.748,250.101 248.700,250.889 248.700 C 251.436 248.700,251.710 248.564,251.710 248.290 C 251.710 248.016,251.436 247.880,250.889 247.880 C 250.196 247.880,250.068 247.773,250.068 247.196 C 250.068 246.770,249.913 246.512,249.658 246.512 C 249.403 246.512,249.248 246.770,249.248 247.196 M109.563 248.551 C 107.500 250.615,109.994 253.729,112.837 252.638 C 113.856 252.247,113.288 251.718,112.033 251.890 C 111.063 252.023,110.681 251.954,110.255 251.569 C 109.386 250.782,109.602 250.616,111.491 250.616 C 113.106 250.616,113.269 250.564,113.269 250.050 C 113.269 248.023,111.007 247.108,109.563 248.551 M118.119 248.224 C 116.202 249.680,117.273 253.037,119.556 252.730 C 120.654 252.583,120.657 252.585,120.657 253.514 C 120.657 254.160,120.783 254.446,121.067 254.446 C 121.409 254.446,121.477 253.903,121.477 251.199 L 121.477 247.952 120.022 247.918 C 119.221 247.900,118.365 248.037,118.119 248.224 M122.845 249.912 C 122.845 252.509,123.110 252.812,125.323 252.751 L 126.949 252.706 126.949 250.293 C 126.949 248.330,126.873 247.880,126.539 247.880 C 126.218 247.880,126.129 248.254,126.129 249.603 C 126.129 251.454,125.845 251.984,124.852 251.984 C 124.015 251.984,123.666 251.224,123.666 249.402 C 123.666 248.231,123.571 247.880,123.256 247.880 C 122.928 247.880,122.845 248.288,122.845 249.912 M128.500 248.062 C 127.986 248.575,128.312 252.804,128.865 252.804 C 129.371 252.804,129.412 252.622,129.412 250.342 C 129.412 247.968,129.178 247.384,128.500 248.062 M131.531 248.261 C 129.159 250.062,131.369 253.716,134.177 252.638 C 135.142 252.268,134.646 251.698,133.517 251.878 C 132.126 252.101,131.601 251.686,131.601 250.363 C 131.601 248.823,132.669 248.228,134.081 248.984 C 134.519 249.218,134.610 249.176,134.610 248.739 C 134.610 247.853,132.500 247.526,131.531 248.261 M149.111 250.342 C 149.111 252.603,149.155 252.804,149.646 252.804 C 150.115 252.804,150.190 252.580,150.261 250.958 L 150.342 249.111 151.231 249.025 C 151.899 248.961,152.120 248.807,152.120 248.409 C 152.120 247.828,151.556 247.723,150.751 248.154 C 150.408 248.337,150.182 248.337,150.069 248.154 C 149.459 247.167,149.111 247.961,149.111 250.342 M153.396 248.278 C 152.358 249.064,152.360 251.703,153.398 252.462 C 154.266 253.096,155.845 252.888,156.505 252.052 C 158.225 249.872,155.561 246.638,153.396 248.278 M157.866 248.189 C 157.866 248.359,158.131 249.467,158.456 250.651 C 159.178 253.286,159.815 253.577,160.312 251.502 C 160.831 249.342,161.040 249.263,161.593 251.017 C 162.037 252.428,162.574 253.112,162.946 252.740 C 163.133 252.554,164.159 248.791,164.159 248.293 C 164.159 247.119,163.353 248.026,163.007 249.590 L 162.629 251.300 162.071 249.658 C 161.319 247.441,160.830 247.412,160.184 249.547 C 159.632 251.369,159.538 251.331,158.960 249.042 C 158.695 247.995,157.866 247.348,157.866 248.189 M165.387 248.110 C 164.908 248.589,165.279 252.804,165.800 252.804 C 166.290 252.804,166.347 252.622,166.347 251.059 C 166.347 247.769,168.347 247.545,168.480 250.821 C 168.541 252.338,168.654 252.804,168.959 252.804 C 169.502 252.804,169.536 248.642,168.996 248.194 C 168.648 247.906,165.661 247.836,165.387 248.110 M177.311 248.601 C 175.988 250.282,176.973 252.804,178.953 252.804 C 180.473 252.804,181.122 252.082,181.122 250.390 C 181.122 248.040,178.661 246.885,177.311 248.601 M181.950 248.085 C 181.954 248.198,182.319 248.767,182.761 249.351 L 183.564 250.412 182.583 251.608 C 181.696 252.691,181.657 252.804,182.175 252.804 C 182.493 252.804,183.016 252.440,183.354 251.984 C 183.688 251.532,184.034 251.163,184.124 251.163 C 184.214 251.163,184.505 251.532,184.772 251.984 C 185.110 252.556,185.469 252.804,185.958 252.804 L 186.660 252.804 185.650 251.572 L 184.640 250.340 185.480 249.321 C 185.942 248.761,186.320 248.207,186.320 248.091 C 186.320 247.575,185.479 247.956,184.854 248.754 L 184.170 249.629 183.612 248.960 C 183.306 248.591,183.051 248.198,183.046 248.085 C 183.041 247.972,182.791 247.880,182.490 247.880 C 182.189 247.880,181.946 247.972,181.950 248.085 M190.150 248.290 C 190.150 248.518,190.394 248.700,190.698 248.700 C 191.199 248.700,191.245 248.883,191.245 250.870 C 191.245 253.158,190.849 254.045,189.978 253.710 C 189.663 253.589,189.576 253.684,189.655 254.064 C 189.734 254.450,189.968 254.567,190.570 254.522 C 191.837 254.427,192.066 253.843,192.066 250.700 L 192.066 247.880 191.108 247.880 C 190.439 247.880,190.150 248.003,190.150 248.290 M193.438 249.590 C 193.444 252.233,193.773 252.661,195.836 252.700 L 197.538 252.732 197.538 250.306 C 197.538 248.332,197.461 247.880,197.127 247.880 C 196.805 247.880,196.717 248.256,196.717 249.625 C 196.717 252.915,194.717 253.139,194.584 249.863 C 194.470 247.050,193.431 246.803,193.438 249.590 M199.179 250.342 C 199.179 252.348,199.255 252.804,199.590 252.804 C 199.911 252.804,200.000 252.430,200.000 251.081 C 200.000 249.240,200.285 248.700,201.257 248.700 C 202.015 248.700,202.189 249.164,202.189 251.185 C 202.189 252.442,202.281 252.804,202.599 252.804 C 202.922 252.804,203.010 252.424,203.010 251.020 C 203.010 249.395,203.069 249.209,203.676 248.932 C 204.899 248.375,205.198 248.758,205.198 250.881 C 205.198 252.662,205.242 252.804,205.782 252.804 C 206.461 252.804,206.438 249.124,205.754 248.300 C 205.357 247.822,204.046 247.745,203.282 248.154 C 202.939 248.337,202.713 248.337,202.600 248.154 C 202.363 247.771,200.726 247.810,200.328 248.208 C 200.073 248.463,200.000 248.463,200.000 248.208 C 200.000 248.027,199.815 247.880,199.590 247.880 C 199.255 247.880,199.179 248.336,199.179 250.342 M207.661 251.212 C 207.661 253.904,207.729 254.446,208.071 254.446 C 208.345 254.446,208.482 254.172,208.482 253.625 C 208.482 252.867,208.556 252.804,209.457 252.804 C 210.836 252.804,211.425 252.402,211.745 251.245 C 212.363 249.005,211.514 247.871,209.264 247.933 L 207.661 247.978 207.661 251.212 M213.437 248.531 C 212.574 249.449,212.572 251.233,213.433 252.149 C 214.214 252.980,216.752 253.032,216.906 252.221 C 216.977 251.847,216.796 251.796,215.795 251.909 C 214.907 252.009,214.482 251.925,214.140 251.584 C 213.380 250.824,213.598 250.646,215.390 250.560 C 217.087 250.479,217.099 250.473,217.044 249.693 C 216.916 247.902,214.699 247.188,213.437 248.531 M227.106 248.601 C 226.301 249.623,226.334 251.422,227.172 252.209 C 228.691 253.636,230.917 252.526,230.917 250.342 C 230.917 248.842,230.061 247.880,228.728 247.880 C 227.914 247.880,227.543 248.044,227.106 248.601 M231.987 249.179 C 232.270 249.894,232.713 251.002,232.970 251.642 C 233.697 253.446,234.233 253.201,235.251 250.598 C 236.226 248.108,236.267 247.880,235.738 247.880 C 235.528 247.880,235.089 248.606,234.747 249.521 C 234.409 250.424,234.041 251.163,233.929 251.163 C 233.817 251.163,233.457 250.424,233.127 249.521 C 232.678 248.288,232.397 247.880,232.000 247.880 C 231.480 247.880,231.480 247.900,231.987 249.179 M237.607 248.551 C 235.543 250.615,238.037 253.729,240.880 252.638 C 241.900 252.247,241.331 251.718,240.077 251.890 C 239.107 252.023,238.724 251.954,238.299 251.569 C 237.430 250.782,237.646 250.616,239.535 250.616 C 241.150 250.616,241.313 250.564,241.313 250.050 C 241.313 248.023,239.051 247.108,237.607 248.551 M242.408 250.342 C 242.408 252.348,242.484 252.804,242.818 252.804 C 243.136 252.804,243.228 252.446,243.228 251.218 C 243.228 249.445,243.527 248.974,244.651 248.974 C 245.235 248.974,245.417 248.844,245.417 248.427 C 245.417 247.810,244.859 247.720,243.976 248.192 C 243.537 248.427,243.365 248.427,243.287 248.192 C 242.867 246.931,242.408 248.053,242.408 250.342 M258.581 248.531 C 257.718 249.449,257.716 251.233,258.577 252.149 C 259.357 252.980,261.895 253.032,262.050 252.221 C 262.121 251.847,261.939 251.796,260.939 251.909 C 260.051 252.009,259.625 251.925,259.283 251.584 C 258.524 250.824,258.742 250.646,260.534 250.560 C 262.230 250.479,262.243 250.473,262.187 249.693 C 262.060 247.902,259.843 247.188,258.581 248.531 M268.947 248.376 C 268.947 248.786,269.167 248.869,270.219 248.854 C 271.787 248.833,272.106 249.384,270.660 249.615 C 267.467 250.125,267.806 252.819,271.057 252.770 L 272.834 252.744 272.730 250.695 C 272.608 248.270,272.266 247.880,270.262 247.880 C 269.174 247.880,268.947 247.965,268.947 248.376 M273.871 248.275 C 273.871 248.549,274.250 248.696,275.102 248.754 L 276.332 248.837 275.112 250.342 C 273.348 252.518,273.426 252.804,275.787 252.804 C 277.307 252.804,277.702 252.720,277.702 252.394 C 277.702 252.083,277.365 251.984,276.310 251.984 L 274.919 251.984 276.310 250.235 C 278.120 247.960,278.103 247.880,275.787 247.880 C 274.299 247.880,273.871 247.968,273.871 248.275 M278.249 248.035 C 278.249 248.121,278.635 249.119,279.107 250.252 C 279.867 252.077,279.930 252.426,279.663 253.297 C 279.497 253.839,279.413 254.334,279.477 254.397 C 279.957 254.878,281.034 252.894,282.818 248.245 C 283.321 246.936,281.942 248.131,281.306 249.556 L 280.557 251.232 279.834 249.556 C 279.239 248.176,278.249 247.227,278.249 248.035 M292.770 248.601 C 291.965 249.623,291.998 251.422,292.836 252.209 C 294.354 253.636,296.580 252.526,296.580 250.342 C 296.580 248.842,295.725 247.880,294.391 247.880 C 293.578 247.880,293.207 248.044,292.770 248.601 M298.447 248.165 C 296.313 249.403,297.877 253.360,300.183 252.556 C 301.038 252.258,301.149 252.438,300.585 253.209 C 300.315 253.579,299.905 253.706,299.081 253.673 C 297.730 253.621,297.481 254.284,298.755 254.539 C 301.026 254.993,301.778 253.996,301.778 250.533 L 301.778 247.952 300.342 247.926 C 299.552 247.911,298.699 248.019,298.447 248.165 M112.175 249.248 C 112.450 249.761,112.383 249.795,111.081 249.795 C 109.778 249.795,109.711 249.761,109.986 249.248 C 110.177 248.892,110.559 248.700,111.081 248.700 C 111.602 248.700,111.985 248.892,112.175 249.248 M120.520 250.199 C 120.520 251.729,119.558 252.501,118.621 251.724 C 117.504 250.796,118.294 248.619,119.698 248.756 C 120.491 248.834,120.520 248.886,120.520 250.199 M146.594 249.029 C 147.544 249.979,146.802 251.984,145.499 251.984 C 144.652 251.984,144.272 249.206,145.075 248.882 C 145.682 248.637,146.257 248.692,146.594 249.029 M155.622 249.029 C 155.803 249.209,155.951 249.800,155.951 250.342 C 155.951 251.906,154.429 252.683,153.772 251.454 C 152.876 249.781,154.390 247.796,155.622 249.029 M180.144 249.590 C 180.562 250.786,180.065 251.829,179.028 251.930 C 177.732 252.057,177.226 250.284,178.200 249.029 C 178.677 248.414,179.851 248.753,180.144 249.590 M210.616 249.029 C 211.574 249.987,210.716 252.085,209.426 251.939 C 208.682 251.854,208.612 251.751,208.531 250.626 C 208.416 249.001,209.645 248.059,210.616 249.029 M216.092 249.316 C 216.167 249.715,215.975 249.795,214.931 249.795 C 214.243 249.795,213.680 249.696,213.680 249.576 C 213.680 248.657,215.921 248.416,216.092 249.316 M221.341 250.176 C 221.341 251.703,221.126 251.984,219.960 251.984 C 218.956 251.984,218.561 250.370,219.304 249.308 C 220.220 248.001,221.341 248.478,221.341 250.176 M229.458 248.913 C 229.957 249.230,230.155 250.424,229.844 251.242 C 229.493 252.166,228.096 252.301,227.643 251.454 C 226.767 249.818,228.053 248.018,229.458 248.913 M240.219 249.248 C 240.494 249.761,240.427 249.795,239.124 249.795 C 237.822 249.795,237.755 249.761,238.030 249.248 C 238.221 248.892,238.603 248.700,239.124 248.700 C 239.646 248.700,240.028 248.892,240.219 249.248 M261.235 249.316 C 261.311 249.715,261.119 249.795,260.075 249.795 C 259.387 249.795,258.824 249.696,258.824 249.576 C 258.824 248.657,261.065 248.416,261.235 249.316 M290.014 250.176 C 290.014 251.703,289.799 251.984,288.633 251.984 C 287.629 251.984,287.234 250.370,287.977 249.308 C 288.893 248.001,290.014 248.478,290.014 250.176 M295.122 248.913 C 295.621 249.230,295.819 250.424,295.508 251.242 C 295.156 252.166,293.760 252.301,293.306 251.454 C 292.431 249.818,293.716 248.018,295.122 248.913 M300.903 250.105 C 300.979 251.287,300.931 251.392,300.198 251.648 C 299.054 252.047,298.495 251.632,298.495 250.383 C 298.495 248.182,300.761 247.921,300.903 250.105 M271.683 250.997 C 271.683 251.986,269.923 252.434,269.578 251.534 C 269.367 250.984,270.161 250.342,271.051 250.342 C 271.535 250.342,271.683 250.495,271.683 250.997 M215.869 285.226 C 215.869 286.158,215.840 286.183,214.794 286.183 C 213.397 286.183,212.585 287.129,212.585 288.759 C 212.585 290.603,213.135 291.117,215.064 291.073 L 216.689 291.037 216.689 287.652 C 216.689 284.827,216.622 284.268,216.279 284.268 C 215.992 284.268,215.869 284.557,215.869 285.226 M179.412 284.698 C 178.873 285.246,179.186 291.108,179.754 291.108 C 180.220 291.108,180.301 290.926,180.301 289.877 C 180.301 288.173,181.149 288.177,182.488 289.887 C 183.149 290.730,183.649 291.108,184.104 291.108 C 184.837 291.108,184.832 291.098,183.062 289.124 L 182.387 288.372 182.986 287.814 C 183.738 287.113,183.761 285.881,183.033 285.222 C 182.458 284.701,179.788 284.315,179.412 284.698 M200.051 285.017 C 200.189 285.731,201.094 285.810,201.094 285.109 C 201.094 284.717,200.919 284.542,200.527 284.542 C 200.136 284.542,199.988 284.689,200.051 285.017 M181.788 285.629 C 183.166 286.153,182.464 287.825,180.866 287.825 C 180.379 287.825,180.301 287.656,180.301 286.594 C 180.301 285.267,180.498 285.139,181.788 285.629 M185.575 286.718 C 184.338 287.871,184.691 290.621,186.123 290.981 C 187.572 291.344,188.912 291.023,189.011 290.287 C 189.085 289.734,189.035 289.669,188.751 289.945 C 188.303 290.381,186.532 290.390,186.101 289.959 C 185.363 289.220,185.743 288.919,187.415 288.919 L 189.056 288.919 189.056 288.004 C 189.056 286.309,186.879 285.504,185.575 286.718 M190.729 286.834 C 190.042 287.565,189.878 289.267,190.400 290.243 C 191.022 291.404,193.777 291.449,193.939 290.300 C 194.020 289.725,193.974 289.679,193.615 289.977 C 192.892 290.576,191.429 290.256,191.142 289.437 C 190.556 287.760,191.771 286.533,193.317 287.237 C 193.891 287.499,193.981 287.470,193.981 287.028 C 193.981 285.973,191.667 285.835,190.729 286.834 M195.199 286.907 C 193.669 288.558,194.736 291.108,196.956 291.108 C 198.398 291.108,198.906 290.884,198.906 290.248 C 198.906 289.812,198.815 289.770,198.376 290.004 C 197.223 290.621,195.622 290.198,195.622 289.275 C 195.622 289.023,196.099 288.919,197.264 288.919 L 198.906 288.919 198.906 288.098 C 198.906 286.245,196.522 285.479,195.199 286.907 M200.182 286.366 C 199.669 286.879,199.994 291.108,200.547 291.108 C 201.054 291.108,201.094 290.926,201.094 288.646 C 201.094 286.272,200.861 285.687,200.182 286.366 M202.438 287.483 C 202.722 288.198,203.164 289.306,203.422 289.945 C 204.148 291.750,204.684 291.504,205.703 288.902 C 206.677 286.412,206.718 286.183,206.189 286.183 C 205.979 286.183,205.541 286.910,205.198 287.825 C 204.861 288.728,204.493 289.466,204.381 289.466 C 204.269 289.466,203.908 288.728,203.579 287.825 C 203.129 286.592,202.849 286.183,202.452 286.183 C 201.931 286.183,201.931 286.203,202.438 287.483 M207.965 286.834 C 207.102 287.753,207.100 289.536,207.961 290.453 C 208.742 291.283,211.280 291.336,211.434 290.525 C 211.505 290.151,211.324 290.100,210.323 290.213 C 209.435 290.313,209.010 290.229,208.668 289.887 C 207.908 289.128,208.126 288.949,209.918 288.864 C 211.615 288.783,211.627 288.776,211.572 287.997 C 211.444 286.206,209.227 285.491,207.965 286.834 M218.878 286.867 C 218.878 287.369,219.024 287.551,219.425 287.551 C 219.827 287.551,219.973 287.369,219.973 286.867 C 219.973 286.366,219.827 286.183,219.425 286.183 C 219.024 286.183,218.878 286.366,218.878 286.867 M187.962 287.119 C 187.962 287.181,188.036 287.428,188.128 287.666 C 188.264 288.022,188.070 288.098,187.033 288.098 C 185.745 288.098,185.520 287.913,186.101 287.332 C 186.402 287.032,187.962 286.853,187.962 287.119 M197.756 287.332 C 198.335 287.911,198.114 288.098,196.854 288.098 C 195.974 288.098,195.622 287.988,195.622 287.711 C 195.622 287.026,197.174 286.750,197.756 287.332 M210.620 287.620 C 210.695 288.019,210.503 288.098,209.459 288.098 C 208.771 288.098,208.208 288.000,208.208 287.880 C 208.208 286.961,210.449 286.719,210.620 287.620 M215.869 288.480 C 215.869 290.006,215.654 290.287,214.488 290.287 C 213.484 290.287,213.089 288.674,213.832 287.612 C 214.748 286.304,215.869 286.782,215.869 288.480 M218.878 290.424 C 218.878 290.926,219.024 291.108,219.425 291.108 C 219.827 291.108,219.973 290.926,219.973 290.424 C 219.973 289.922,219.827 289.740,219.425 289.740 C 219.024 289.740,218.878 289.922,218.878 290.424 M177.839 306.977 L 177.839 310.260 179.891 310.260 C 181.532 310.260,181.943 310.178,181.943 309.850 C 181.943 309.530,181.578 309.439,180.301 309.439 L 178.659 309.439 178.659 308.345 L 178.659 307.250 180.301 307.250 C 181.760 307.250,181.943 307.190,181.943 306.703 C 181.943 306.216,181.760 306.156,180.283 306.156 C 178.634 306.156,178.624 306.151,178.710 305.404 C 178.792 304.691,178.880 304.647,180.369 304.569 C 182.940 304.435,182.535 303.694,179.891 303.694 L 177.839 303.694 177.839 306.977 M182.490 304.104 C 182.490 304.400,182.794 304.514,183.584 304.514 L 184.679 304.514 184.679 307.387 C 184.679 310.078,184.713 310.260,185.226 310.260 C 185.738 310.260,185.773 310.078,185.773 307.387 L 185.773 304.514 186.867 304.514 C 187.658 304.514,187.962 304.400,187.962 304.104 C 187.962 303.767,187.475 303.694,185.226 303.694 C 182.976 303.694,182.490 303.767,182.490 304.104 M188.782 306.977 C 188.782 309.713,188.851 310.260,189.193 310.260 C 189.508 310.260,189.603 309.910,189.603 308.755 L 189.603 307.250 191.108 307.250 L 192.613 307.250 192.613 308.755 C 192.613 310.078,192.679 310.260,193.160 310.260 C 193.677 310.260,193.707 310.078,193.707 306.957 C 193.707 303.959,193.663 303.662,193.228 303.744 C 192.879 303.811,192.727 304.149,192.666 304.996 L 192.581 306.156 191.092 306.156 L 189.603 306.156 189.603 304.925 C 189.603 304.013,189.497 303.694,189.193 303.694 C 188.851 303.694,188.782 304.241,188.782 306.977 M200.126 303.984 C 200.028 304.144,199.651 304.387,199.289 304.524 C 198.430 304.851,198.446 305.335,199.316 305.335 C 199.985 305.335,200.000 305.381,200.000 307.387 C 200.000 309.394,199.985 309.439,199.316 309.439 C 198.890 309.439,198.632 309.594,198.632 309.850 C 198.632 310.172,199.012 310.260,200.410 310.260 C 201.809 310.260,202.189 310.172,202.189 309.850 C 202.189 309.594,201.930 309.439,201.505 309.439 L 200.821 309.439 200.821 306.566 C 200.821 303.940,200.619 303.188,200.126 303.984 M207.456 303.875 C 206.481 304.268,207.117 304.985,208.187 304.699 C 210.602 304.054,210.748 305.601,208.482 307.819 C 206.237 310.016,206.291 310.260,209.029 310.260 C 210.792 310.260,211.218 310.180,211.218 309.850 C 211.218 309.533,210.862 309.439,209.657 309.439 L 208.096 309.439 209.520 308.023 C 212.100 305.457,210.667 302.579,207.456 303.875 M213.201 303.875 C 213.013 303.951,212.859 304.253,212.859 304.547 C 212.859 305.000,212.944 305.036,213.420 304.781 C 214.336 304.290,215.444 304.552,215.548 305.283 C 215.618 305.775,215.451 305.984,214.793 306.233 C 213.836 306.594,213.825 307.026,214.769 307.249 C 215.647 307.456,216.091 308.204,215.703 308.824 C 215.340 309.403,213.923 309.588,213.124 309.161 C 212.601 308.881,212.551 308.914,212.632 309.486 C 212.757 310.369,215.161 310.563,216.142 309.768 C 216.941 309.121,217.017 307.620,216.278 307.079 C 215.808 306.735,215.805 306.680,216.233 306.207 C 217.573 304.726,215.344 303.010,213.201 303.875 M219.321 305.494 C 217.331 307.825,217.315 308.289,219.220 308.399 C 220.621 308.479,220.659 308.504,220.742 309.371 C 220.857 310.555,221.614 310.592,221.614 309.414 C 221.614 308.797,221.763 308.528,222.161 308.424 C 222.462 308.345,222.709 308.187,222.709 308.071 C 222.709 307.956,222.462 307.797,222.161 307.718 C 221.679 307.592,221.614 307.345,221.614 305.634 C 221.614 303.156,221.332 303.138,219.321 305.494 M220.700 307.708 C 220.631 307.777,220.111 307.795,219.544 307.747 L 218.514 307.661 219.585 306.416 L 220.657 305.172 220.741 306.377 C 220.788 307.040,220.769 307.639,220.700 307.708 M204.104 309.576 C 204.104 310.078,204.250 310.260,204.651 310.260 C 205.052 310.260,205.198 310.078,205.198 309.576 C 205.198 309.074,205.052 308.892,204.651 308.892 C 204.250 308.892,204.104 309.074,204.104 309.576 M183.858 326.129 L 183.858 329.412 185.431 329.411 C 188.004 329.409,189.331 328.262,189.329 326.042 C 189.326 324.039,187.706 322.845,184.989 322.845 L 183.858 322.845 183.858 326.129 M192.207 323.112 C 192.038 323.385,189.877 329.137,189.877 329.314 C 189.877 329.889,190.963 329.251,191.108 328.591 C 191.280 327.807,191.353 327.770,192.711 327.770 C 194.041 327.770,194.155 327.824,194.444 328.591 C 194.714 329.305,195.618 329.776,195.625 329.207 C 195.647 327.151,192.823 322.115,192.207 323.112 M196.443 323.256 C 196.443 323.482,196.628 323.666,196.854 323.666 C 197.188 323.666,197.264 324.122,197.264 326.129 C 197.264 328.135,197.188 328.591,196.854 328.591 C 196.628 328.591,196.443 328.776,196.443 329.001 C 196.443 329.305,196.762 329.412,197.674 329.412 C 198.586 329.412,198.906 329.305,198.906 329.001 C 198.906 328.776,198.721 328.591,198.495 328.591 C 198.161 328.591,198.085 328.135,198.085 326.129 C 198.085 324.122,198.161 323.666,198.495 323.666 C 198.721 323.666,198.906 323.482,198.906 323.256 C 198.906 322.952,198.586 322.845,197.674 322.845 C 196.762 322.845,196.443 322.952,196.443 323.256 M203.750 323.017 C 203.644 323.123,203.557 323.921,203.557 324.789 L 203.557 326.368 204.477 326.218 C 205.662 326.026,206.566 326.510,206.566 327.336 C 206.566 328.329,205.920 328.689,204.491 328.493 C 203.403 328.344,203.256 328.383,203.335 328.799 C 203.482 329.573,206.291 329.623,206.978 328.863 C 208.205 327.508,207.254 325.308,205.442 325.308 C 204.746 325.308,204.651 325.210,204.651 324.487 C 204.651 323.673,204.664 323.666,206.179 323.666 C 207.279 323.666,207.675 323.570,207.593 323.324 C 207.470 322.951,204.086 322.681,203.750 323.017 M212.654 323.027 C 212.466 323.103,212.312 323.405,212.312 323.699 C 212.312 324.152,212.396 324.187,212.873 323.933 C 213.789 323.442,214.897 323.704,215.001 324.434 C 215.070 324.927,214.904 325.136,214.246 325.385 C 213.289 325.746,213.278 326.178,214.221 326.401 C 215.100 326.608,215.543 327.356,215.156 327.975 C 214.793 328.555,213.376 328.740,212.576 328.312 C 212.054 328.033,212.004 328.066,212.085 328.638 C 212.210 329.521,214.614 329.714,215.595 328.920 C 216.394 328.273,216.470 326.771,215.731 326.231 C 215.261 325.887,215.258 325.831,215.686 325.359 C 217.026 323.878,214.796 322.162,212.654 323.027 M187.234 324.123 C 189.347 324.722,188.423 328.197,186.068 328.513 L 184.952 328.663 184.952 326.143 L 184.952 323.623 185.841 323.802 C 186.330 323.900,186.957 324.045,187.234 324.123 M193.130 324.829 C 193.817 326.664,193.814 326.676,192.785 326.676 L 191.825 326.676 192.245 325.445 C 192.724 324.039,192.812 323.978,193.130 324.829 M209.302 328.728 C 209.302 329.229,209.448 329.412,209.850 329.412 C 210.251 329.412,210.397 329.229,210.397 328.728 C 210.397 328.226,210.251 328.044,209.850 328.044 C 209.448 328.044,209.302 328.226,209.302 328.728 " stroke="none" fill="#fcf0f3" fill-rule="evenodd"></path><path id="path2" d="M214.038 212.722 C 214.040 213.625,214.091 213.962,214.152 213.470 C 214.213 212.978,214.211 212.239,214.149 211.828 C 214.087 211.417,214.037 211.819,214.038 212.722 M185.034 213.133 C 185.034 213.960,185.085 214.299,185.148 213.885 C 185.211 213.471,185.211 212.794,185.148 212.380 C 185.085 211.966,185.034 212.305,185.034 213.133 M200.629 213.133 C 200.629 213.960,200.680 214.299,200.743 213.885 C 200.806 213.471,200.806 212.794,200.743 212.380 C 200.680 211.966,200.629 212.305,200.629 213.133 M125.945 249.658 C 125.946 250.711,125.995 251.109,126.055 250.541 C 126.114 249.973,126.113 249.112,126.052 248.626 C 125.992 248.140,125.944 248.605,125.945 249.658 M191.063 250.616 C 191.063 251.744,191.112 252.206,191.171 251.642 C 191.230 251.077,191.230 250.154,191.171 249.590 C 191.112 249.025,191.063 249.487,191.063 250.616 M208.560 250.479 C 208.562 251.231,208.615 251.507,208.678 251.091 C 208.741 250.675,208.739 250.059,208.674 249.723 C 208.609 249.386,208.558 249.726,208.560 250.479 M243.316 251.163 C 243.316 252.141,243.366 252.541,243.426 252.052 C 243.487 251.563,243.487 250.763,243.426 250.274 C 243.366 249.785,243.316 250.185,243.316 251.163 M208.545 253.625 C 208.545 254.152,208.601 254.367,208.670 254.104 C 208.739 253.841,208.739 253.410,208.670 253.146 C 208.601 252.883,208.545 253.098,208.545 253.625 M197.088 326.265 C 197.087 327.620,197.133 328.208,197.190 327.573 C 197.248 326.938,197.248 325.830,197.192 325.111 C 197.135 324.392,197.088 324.911,197.088 326.265 M198.182 326.265 C 198.181 327.620,198.227 328.208,198.285 327.573 C 198.342 326.938,198.343 325.830,198.286 325.111 C 198.230 324.392,198.183 324.911,198.182 326.265 " stroke="none" fill="#f889a2" fill-rule="evenodd"></path><path id="path3" d="M227.178 209.850 C 227.178 210.978,227.226 211.440,227.285 210.876 C 227.345 210.311,227.345 209.388,227.285 208.824 C 227.226 208.259,227.178 208.721,227.178 209.850 M165.905 209.150 C 165.534 210.116,165.909 210.533,167.171 210.556 L 168.399 210.578 167.237 210.472 C 165.212 210.288,165.536 209.090,167.647 208.957 L 169.220 208.859 167.638 208.807 C 166.478 208.769,166.016 208.860,165.905 209.150 M220.617 212.175 C 220.616 213.529,220.662 214.118,220.720 213.483 C 220.777 212.848,220.778 211.740,220.721 211.021 C 220.665 210.301,220.618 210.821,220.617 212.175 M219.242 212.722 C 219.243 213.776,219.292 214.173,219.352 213.605 C 219.411 213.038,219.410 212.176,219.349 211.690 C 219.289 211.205,219.240 211.669,219.242 212.722 M165.885 212.996 C 165.887 213.899,165.938 214.235,165.999 213.743 C 166.059 213.252,166.058 212.513,165.996 212.102 C 165.933 211.691,165.884 212.093,165.885 212.996 M227.150 213.680 C 227.150 214.207,227.206 214.422,227.275 214.159 C 227.344 213.895,227.344 213.464,227.275 213.201 C 227.206 212.938,227.150 213.153,227.150 213.680 M222.268 249.384 C 222.268 251.341,222.312 252.105,222.365 251.083 C 222.417 250.061,222.417 248.460,222.364 247.526 C 222.310 246.592,222.267 247.428,222.268 249.384 M290.941 249.384 C 290.941 251.341,290.985 252.105,291.038 251.083 C 291.090 250.061,291.090 248.460,291.037 247.526 C 290.983 246.592,290.940 247.428,290.941 249.384 M103.525 249.521 C 103.525 251.402,103.569 252.172,103.623 251.231 C 103.676 250.291,103.676 248.752,103.623 247.811 C 103.569 246.871,103.525 247.640,103.525 249.521 M136.344 248.153 C 136.344 249.282,136.392 249.744,136.451 249.179 C 136.510 248.615,136.510 247.692,136.451 247.127 C 136.392 246.563,136.344 247.025,136.344 248.153 M267.410 249.521 C 267.410 251.402,267.454 252.172,267.508 251.231 C 267.561 250.291,267.561 248.752,267.508 247.811 C 267.454 246.871,267.410 247.640,267.410 249.521 M102.873 246.740 C 102.873 246.918,102.421 247.078,101.847 247.103 L 100.821 247.146 101.745 247.259 C 102.647 247.370,103.433 246.980,103.060 246.607 C 102.957 246.505,102.873 246.564,102.873 246.740 M98.484 247.252 L 99.571 247.363 99.664 250.084 L 99.757 252.806 99.742 250.001 L 99.726 247.196 98.562 247.169 L 97.397 247.142 98.484 247.252 M123.754 249.521 C 123.754 250.499,123.803 250.899,123.864 250.410 C 123.925 249.921,123.925 249.121,123.864 248.632 C 123.803 248.143,123.754 248.543,123.754 249.521 M197.635 250.479 C 197.634 251.833,197.680 252.422,197.738 251.787 C 197.795 251.152,197.796 250.044,197.739 249.324 C 197.683 248.605,197.636 249.124,197.635 250.479 M199.003 250.479 C 199.002 251.833,199.048 252.422,199.106 251.787 C 199.163 251.152,199.164 250.044,199.107 249.324 C 199.051 248.605,199.004 249.124,199.003 250.479 M120.378 250.150 L 120.510 251.573 120.601 250.373 C 120.651 249.713,120.591 249.073,120.469 248.950 C 120.346 248.827,120.306 249.367,120.378 250.150 M174.923 250.752 C 174.924 251.956,174.972 252.415,175.030 251.771 C 175.087 251.128,175.087 250.143,175.028 249.582 C 174.969 249.022,174.922 249.549,174.923 250.752 M250.150 250.068 C 250.150 250.896,250.202 251.235,250.264 250.821 C 250.327 250.407,250.327 249.730,250.264 249.316 C 250.202 248.902,250.150 249.241,250.150 250.068 M300.679 250.150 L 300.811 251.573 300.902 250.373 C 300.952 249.713,300.892 249.073,300.770 248.950 C 300.647 248.827,300.607 249.367,300.679 250.150 M169.447 251.026 C 169.448 252.079,169.497 252.477,169.557 251.909 C 169.616 251.341,169.615 250.480,169.555 249.994 C 169.494 249.508,169.446 249.973,169.447 251.026 M256.725 251.026 C 256.726 252.079,256.775 252.477,256.834 251.909 C 256.894 251.341,256.893 250.480,256.832 249.994 C 256.772 249.508,256.723 249.973,256.725 251.026 M203.094 251.026 C 203.096 251.929,203.147 252.265,203.208 251.773 C 203.269 251.282,203.267 250.543,203.205 250.132 C 203.143 249.721,203.093 250.123,203.094 251.026 M136.315 251.984 C 136.315 252.510,136.371 252.726,136.440 252.462 C 136.509 252.199,136.509 251.768,136.440 251.505 C 136.371 251.241,136.315 251.457,136.315 251.984 M120.487 253.486 C 120.512 254.318,120.635 254.588,121.004 254.621 C 121.313 254.648,121.344 254.618,121.088 254.538 C 120.864 254.467,120.636 253.967,120.571 253.403 L 120.455 252.394 120.487 253.486 M216.796 287.688 C 216.796 289.644,216.840 290.409,216.893 289.387 C 216.945 288.365,216.945 286.764,216.892 285.830 C 216.838 284.896,216.795 285.732,216.796 287.688 M177.669 307.114 C 177.670 308.919,177.714 309.622,177.768 308.676 C 177.821 307.730,177.821 306.252,177.767 305.393 C 177.713 304.533,177.669 305.308,177.669 307.114 M181.943 304.195 C 181.943 304.395,181.357 304.533,180.369 304.565 L 178.796 304.616 180.272 304.717 C 181.649 304.812,182.559 304.492,182.130 304.063 C 182.027 303.960,181.943 304.020,181.943 304.195 M188.613 307.114 C 188.614 308.919,188.658 309.622,188.712 308.676 C 188.765 307.730,188.765 306.252,188.711 305.393 C 188.657 304.533,188.613 305.308,188.613 307.114 M200.922 306.703 C 200.922 308.283,200.967 308.930,201.023 308.140 C 201.078 307.350,201.078 306.057,201.023 305.267 C 200.967 304.477,200.922 305.123,200.922 306.703 M221.732 305.880 C 221.747 307.253,221.844 307.662,222.161 307.684 C 222.387 307.700,222.423 307.663,222.242 307.601 C 222.048 307.535,221.871 306.792,221.813 305.796 L 221.714 304.104 221.732 305.880 M182.969 304.707 C 183.307 304.773,183.861 304.773,184.200 304.707 C 184.538 304.642,184.261 304.589,183.584 304.589 C 182.907 304.589,182.630 304.642,182.969 304.707 M186.252 304.707 C 186.590 304.773,187.144 304.773,187.483 304.707 C 187.821 304.642,187.544 304.589,186.867 304.589 C 186.190 304.589,185.913 304.642,186.252 304.707 M219.083 307.717 C 219.422 307.782,219.976 307.782,220.315 307.717 C 220.653 307.652,220.376 307.598,219.699 307.598 C 219.022 307.598,218.745 307.652,219.083 307.717 M218.399 308.541 C 218.813 308.603,219.490 308.603,219.904 308.541 C 220.318 308.478,219.979 308.427,219.152 308.427 C 218.324 308.427,217.986 308.478,218.399 308.541 M221.719 308.739 C 221.636 308.956,221.626 309.356,221.696 309.628 C 221.782 309.961,221.835 309.883,221.856 309.391 C 221.876 308.941,222.073 308.610,222.367 308.533 C 222.815 308.416,222.815 308.406,222.358 308.376 C 222.090 308.359,221.803 308.522,221.719 308.739 M205.267 323.862 C 205.681 323.925,206.358 323.925,206.772 323.862 C 207.185 323.799,206.847 323.748,206.019 323.748 C 205.192 323.748,204.853 323.799,205.267 323.862 " stroke="none" fill="#fc9cb4" fill-rule="evenodd"></path><path id="path4" d="M164.810 211.354 C 164.811 213.160,164.855 213.863,164.909 212.917 C 164.962 211.970,164.962 210.493,164.908 209.634 C 164.854 208.774,164.810 209.549,164.810 211.354 M186.128 212.859 C 186.128 213.687,186.180 214.025,186.242 213.611 C 186.305 213.198,186.305 212.521,186.242 212.107 C 186.180 211.693,186.128 212.031,186.128 212.859 M201.724 212.859 C 201.724 213.687,201.775 214.025,201.838 213.611 C 201.900 213.198,201.900 212.521,201.838 212.107 C 201.775 211.693,201.724 212.031,201.724 212.859 M212.941 213.133 C 212.941 213.960,212.992 214.299,213.055 213.885 C 213.118 213.471,213.118 212.794,213.055 212.380 C 212.992 211.966,212.941 212.305,212.941 213.133 M100.785 250.068 C 100.785 251.648,100.830 252.295,100.886 251.505 C 100.941 250.715,100.941 249.422,100.886 248.632 C 100.830 247.842,100.785 248.488,100.785 250.068 M192.166 250.479 C 192.166 251.984,192.212 252.564,192.268 251.769 C 192.323 250.974,192.323 249.743,192.266 249.033 C 192.210 248.324,192.165 248.974,192.166 250.479 M127.045 250.342 C 127.045 251.621,127.092 252.144,127.150 251.505 C 127.207 250.865,127.207 249.819,127.150 249.179 C 127.092 248.540,127.045 249.063,127.045 250.342 M207.492 251.300 C 207.492 253.105,207.536 253.808,207.590 252.862 C 207.644 251.916,207.643 250.438,207.589 249.579 C 207.535 248.720,207.491 249.494,207.492 251.300 M242.230 250.342 C 242.230 251.621,242.277 252.144,242.334 251.505 C 242.392 250.865,242.392 249.819,242.334 249.179 C 242.277 248.540,242.230 249.063,242.230 250.342 M110.465 249.714 C 110.804 249.780,111.358 249.780,111.696 249.714 C 112.035 249.649,111.758 249.596,111.081 249.596 C 110.404 249.596,110.127 249.649,110.465 249.714 M214.299 249.718 C 214.715 249.780,215.331 249.779,215.667 249.714 C 216.004 249.649,215.663 249.597,214.911 249.599 C 214.159 249.602,213.883 249.655,214.299 249.718 M238.509 249.714 C 238.847 249.780,239.402 249.780,239.740 249.714 C 240.079 249.649,239.802 249.596,239.124 249.596 C 238.447 249.596,238.170 249.649,238.509 249.714 M259.443 249.718 C 259.859 249.780,260.474 249.779,260.811 249.714 C 261.147 249.649,260.807 249.597,260.055 249.599 C 259.302 249.602,259.027 249.655,259.443 249.718 M185.773 287.893 C 185.773 288.006,186.327 288.098,187.004 288.098 C 187.681 288.098,188.235 288.006,188.235 287.893 C 188.235 287.780,187.681 287.688,187.004 287.688 C 186.327 287.688,185.773 287.780,185.773 287.893 M196.101 288.018 C 196.440 288.083,196.994 288.083,197.332 288.018 C 197.671 287.953,197.394 287.899,196.717 287.899 C 196.040 287.899,195.763 287.953,196.101 288.018 M208.827 288.021 C 209.243 288.084,209.859 288.082,210.195 288.017 C 210.532 287.953,210.192 287.901,209.439 287.903 C 208.687 287.905,208.411 287.958,208.827 288.021 M189.682 304.925 C 189.684 305.677,189.737 305.952,189.800 305.537 C 189.862 305.121,189.861 304.505,189.796 304.169 C 189.731 303.832,189.679 304.172,189.682 304.925 M220.594 306.430 C 220.594 307.107,220.648 307.384,220.713 307.045 C 220.778 306.707,220.778 306.153,220.713 305.814 C 220.648 305.475,220.594 305.752,220.594 306.430 M178.764 308.208 L 178.796 309.302 180.371 309.325 L 181.945 309.347 180.455 309.243 L 178.964 309.139 178.848 308.126 L 178.731 307.114 178.764 308.208 M189.688 308.755 C 189.690 309.658,189.741 309.994,189.802 309.503 C 189.862 309.011,189.861 308.272,189.799 307.861 C 189.736 307.450,189.687 307.852,189.688 308.755 M220.583 309.439 C 220.583 309.966,220.640 310.181,220.708 309.918 C 220.777 309.655,220.777 309.224,220.708 308.960 C 220.640 308.697,220.583 308.912,220.583 309.439 M208.965 309.364 C 209.457 309.425,210.196 309.423,210.607 309.361 C 211.018 309.299,210.616 309.249,209.713 309.250 C 208.810 309.252,208.473 309.303,208.965 309.364 " stroke="none" fill="#f45f81" fill-rule="evenodd"></path></g></svg>