<svg xmlns="http://www.w3.org/2000/svg" viewBox="0 0 1440 1440"><defs><style>.cls-1{fill:#e2d2dd;}.cls-2{fill:#c53258;}.cls-3{fill:#ef3f6b;}</style></defs><title>gftlogo</title><path class="cls-1" d="M1312.81,1146.39,797,995.45a274.24,274.24,0,0,0-154,0L127.19,1146.39c-42.62,12.47-42.62,72.85,0,85.33L643,1382.67a274.24,274.24,0,0,0,154,0l515.79-150.94C1355.44,1219.25,1355.44,1158.87,1312.81,1146.39Z"/><path class="cls-2" d="M1300.11,357.39l-248.44-75.62,191,84.63c28.7,20,6.4,32-12,37.52l-447,131a61.79,61.79,0,0,0-44.41,59.29v759.77l163.85-48a61.79,61.79,0,0,0,44.41-59.29V992.37l74.38-18.25a54.24,54.24,0,0,0,41.32-52.68V748l-115.7,33.9V702.85l154.27-45.2v590.07l163.85-48a61.78,61.78,0,0,0,44.41-59.29V596.63h0a48.29,48.29,0,0,0,34.71-46.34V417A62.15,62.15,0,0,0,1300.11,357.39Z"/><path class="cls-3" d="M656.3,534.88,236.92,412c-19.77-10.14-35.94-44,15.86-68.58l-1.08.3L396,281.78,139.89,357.39A62.15,62.15,0,0,0,95.22,417V550.29a48.29,48.29,0,0,0,34.71,46.34h0v549.82a61.79,61.79,0,0,0,46.46,59.86l161.8,41.41,362.53,106.22V901.52a78.22,78.22,0,0,0-56.23-75.07L376.76,748V915.52a61.79,61.79,0,0,0,47.06,60l68.64,16.84v84.57l-152.13-44.57-2.14-359.86V657.65l154.27,45.2a61.79,61.79,0,0,0,44.41,59.29l163.85,48v-216A61.79,61.79,0,0,0,656.3,534.88Z"/><path class="cls-3" d="M771.65,84.11,720,261.56,668.35,84.11C658,48.49,614.92,34.61,585.7,57.46l-99,77.46a52.43,52.43,0,0,0-1.56,81.34L720,414.95,954.9,216.26a52.43,52.43,0,0,0-1.56-81.34l-99-77.46C825.08,34.61,782,48.49,771.65,84.11Z"/></svg>