<svg xmlns="http://www.w3.org/2000/svg" viewBox="0 0 281 281"><defs><style>.cls-1{fill:#bacace;}</style></defs><title>gft_grey</title><path class="cls-1" d="M247.28,74.91,201.55,61,236.7,76.57c5.28,3.68,1.18,5.89-2.21,6.91l-82.27,24.1A11.37,11.37,0,0,0,144,118.49V258.34l30.16-8.84a11.37,11.37,0,0,0,8.17-10.91v-46.8l13.69-3.36a10,10,0,0,0,7.6-9.7V146.81L182.38,153V138.5l28.4-8.32V238.79L240.94,230A11.37,11.37,0,0,0,249.11,219V118.95h0a8.89,8.89,0,0,0,6.39-8.53V85.89A11.44,11.44,0,0,0,247.28,74.91Z"/><path class="cls-1" d="M128.78,107.58,51.58,85C47.94,83.1,45,76.87,54.5,72.34l-.2.06L80.87,61,33.72,74.91a11.44,11.44,0,0,0-8.22,11v24.53a8.89,8.89,0,0,0,6.39,8.53h0v101.2a11.37,11.37,0,0,0,8.55,11l29.78,7.62L137,258.34V175.07a14.4,14.4,0,0,0-10.35-13.82L77.32,146.81v30.83a11.37,11.37,0,0,0,8.66,11l12.63,3.1v15.57l-28-8.2-.39-66.24v-2.74l28.4,8.32a11.37,11.37,0,0,0,8.17,10.91L137,158.25V118.49A11.37,11.37,0,0,0,128.78,107.58Z"/><path class="cls-1" d="M185.22,44.67a22,22,0,1,0-44,0,22,22,0,0,0-44,0c0,34.78,44,51.82,44,51.82S185.22,79.45,185.22,44.67Z"/></svg>